<svg xmlns="http://www.w3.org/2000/svg" viewBox="0 0 100 42.466"><path fill="#fff" d="M58.966 6.896l.057 4.339c-.627.2-1.113.286-1.684.543-2.344 1.056-1 1.941-.201 2.084.771.114 1.314-.029 2.086-.114 0 3.397-.029 7.28.371 10.591.172 1.285.229 1.571.971 1.77 1.029.286 1.4-.142 1.742-.913 1-2.256.287-11.333.459-11.991.828-.142 2.285-.514 2.855-.885.344-.257.686-.799.172-1.113-.6-.4-2.43-.286-3.172-.257-.113-1.085-.113-3.426-.229-4.111-.057-.457-.285-.657-.543-.914-.457-.485-1-1.027-1.941-1.056-.943-.028-.943 1.256-.943 2.027m-4.057 5.596c-.172-1.37-2.656-.999-3.771-.6-1.285.457-1.971 1.285-2.199 2.798-.258 1.942.199 2.741 1.086 3.826 1.686 2.055 2.713 2.512 3.885 3.654.285.314 1.029.857.943 1.57-.143 1.428-3.543 1.799-5.057-.057-.516-.6-.602-1.057-.229-1.885.943-1.94-1.029-1.256-2.113.086-.773.942-.857 2.77-.258 3.969 1.428 2.826 10.113 2.512 10.398-.886.285-3.597-5.971-5.566-5.143-9.82.372-1.97 1.945-2.055 2.458-2.655m23.483-2.569c-1.371-.4-5.057-.228-6.084 1.77-.287.542-.572 1.656-.172 2.198 1.115 1.513 6.256-2.883 6.256-3.968M67.964 11.75c.115.685 2.914 3.14 3.658 2.341.256-.285.084-.971-.057-1.256-.201-.428-.373-.6-.773-.8-.77-.399-1.885-.428-2.828-.285M35.026 33.676v-1.371h.771l.771 1.371h.428l-.799-1.428a1.07 1.07 0 0 0 .627-.971c0-.313-.084-.543-.285-.742a.949.949 0 0 0-.715-.285h-1.17v3.426h.372zm0-3.083h.771c.371 0 .656.285.656.685 0 .2-.057.343-.199.485-.115.143-.287.2-.486.2h-.742v-1.37zm2.113 1.884c0 .371.115.686.344.942.229.228.543.342.914.342.342 0 .656-.085.885-.285v-.399c-.143.172-.457.343-.885.343-.543 0-.857-.343-.887-.914h2v-.143c0-.371-.113-.656-.314-.885-.199-.229-.484-.343-.828-.343-.342 0-.656.114-.885.343-.229.256-.344.571-.344.97v.029zm.401-.287a.65.65 0 0 1 .258-.514c.17-.142.342-.199.57-.199s.4.058.543.199a.688.688 0 0 1 .201.514H37.54zm2.171 1.229c.199.228.485.313.858.313.283 0 .514-.086.627-.228.143-.144.229-.286.229-.457 0-.172-.086-.314-.143-.428-.029-.029-.086-.086-.172-.144-.057-.057-.113-.114-.17-.143-.029 0-.115-.058-.23-.114l-.227-.114c-.201-.114-.287-.2-.287-.343 0-.2.143-.313.43-.313.199 0 .371.086.543.199v-.371c-.143-.113-.344-.172-.572-.172s-.428.059-.543.2a.555.555 0 0 0-.229.457c0 .171.057.314.201.428.143.114.227.2.485.314l.229.115a.612.612 0 0 1 .172.113c.115.085.143.171.143.314 0 .2-.172.342-.484.342-.344 0-.629-.114-.858-.371v.403zm2.628.257v-2.141h.543v-.344h-.543v-.941h-.371v.941h-.314v.344h.314v2.141h.371zm1.885-2.571c-.342 0-.656.144-.885.4a1.268 1.268 0 0 0-.371.914c0 .398.143.713.371.941.229.258.543.371.885.371.43 0 .717-.171.857-.428v.371h.373V31.19h-.373v.371c-.141-.255-.428-.456-.857-.456m0 2.314c-.256 0-.457-.114-.627-.286a1.039 1.039 0 0 1-.258-.713c0-.257.086-.515.258-.687.17-.171.371-.284.627-.284.258 0 .486.113.658.284.172.172.258.43.258.687 0 .285-.086.514-.258.713a.931.931 0 0 1-.658.286m1.687-.714c0 .656.428 1.027 1.027 1.027.629 0 1.029-.371 1.029-1.056v-1.485h-.344v1.485c0 .456-.256.713-.686.713-.4 0-.656-.257-.656-.713v-1.485h-.371v1.514zm2.885.971V32.22c0-.4.285-.685.686-.685.086 0 .172 0 .229.027v-.398h-.143c-.371 0-.629.171-.771.456v-.429h-.344v2.484h.343zm2.256-2.571c-.342 0-.627.144-.885.4-.229.228-.342.543-.342.914 0 .398.113.713.342.941.258.258.543.371.885.371.457 0 .744-.171.887-.428v.371h.371V31.19h-.371v.371c-.143-.255-.43-.456-.887-.456m0 2.314c-.256 0-.457-.114-.627-.286a1.039 1.039 0 0 1-.258-.713c0-.257.086-.515.258-.687.17-.171.371-.284.627-.284.287 0 .486.113.658.284.172.172.256.43.256.687 0 .285-.084.514-.256.713a.88.88 0 0 1-.658.286m2.086.257V32.19c0-.428.285-.713.715-.713.4 0 .629.285.629.686v1.513h.371v-1.599c0-.542-.344-.913-.914-.913-.371 0-.658.171-.801.456v-.429h-.342v2.484h.342zm2.713 0v-2.141h.543v-.344h-.543v-.941h-.342v.941h-.314v.344h.314v2.141h.342zm8.171 0c.314 0 .543-.086.742-.286a.985.985 0 0 0 .314-.742c0-.428-.256-.742-.686-.828.258-.113.43-.37.43-.714a.885.885 0 0 0-.258-.628 1.08 1.08 0 0 0-.656-.228H62.88v3.426h1.142zm-.771-3.083h.629c.314 0 .57.228.57.542s-.256.542-.57.542h-.629v-1.084zm0 1.427h.742c.201 0 .373.058.486.171a.609.609 0 0 1 .199.457c0 .4-.285.657-.686.657h-.742V32.02zm2.172.457c0 .371.113.686.342.942.229.228.516.342.887.342s.686-.085.914-.285v-.399c-.172.172-.457.343-.914.343-.516 0-.857-.343-.887-.914h2v-.143c0-.371-.086-.656-.314-.885-.199-.229-.457-.343-.799-.343-.371 0-.658.114-.887.343-.229.256-.342.571-.342.97v.029zm.371-.287a.89.89 0 0 1 .256-.514.906.906 0 0 1 .602-.199c.199 0 .371.058.514.199a.715.715 0 0 1 .229.514h-1.601zm3.514-1.085a1.18 1.18 0 0 0-.887.4 1.276 1.276 0 0 0-.371.914c0 .398.145.713.371.941.23.258.543.371.887.371.428 0 .715-.171.857-.428v.371h.371V31.19h-.371v.371c-.143-.255-.43-.456-.857-.456m0 2.314c-.258 0-.457-.114-.629-.286a1.039 1.039 0 0 1-.258-.713c0-.257.086-.515.258-.687.172-.171.371-.284.629-.284s.486.113.656.284c.172.172.258.43.258.687 0 .285-.086.514-.258.713a.923.923 0 0 1-.656.286m2.914-2.314c-.371 0-.656.144-.914.4-.258.228-.4.543-.4.914 0 .398.143.713.4.941.258.258.543.371.914.371.344 0 .627-.086.828-.257v-.428c-.229.228-.514.371-.828.371-.258 0-.486-.114-.686-.286a1.039 1.039 0 0 1-.258-.713c0-.257.086-.515.258-.687.199-.171.428-.284.686-.284.314 0 .6.113.828.37v-.428a1.338 1.338 0 0 0-.828-.284m1.57 2.571V32.19c0-.428.287-.713.686-.713.371 0 .602.285.602.686v1.513h.371v-1.599c0-.542-.344-.913-.887-.913-.371 0-.629.171-.771.456v-1.37h-.343v3.426h.342zm-13.654-.428a1.405 1.405 0 0 1-.457.371c-.172.057-.344.113-.543.113-.373 0-.656-.113-.857-.371-.172-.199-.256-.428-.256-.656s.084-.429.199-.6c.143-.172.371-.313.627-.457a2.603 2.603 0 0 1-.313-.457.663.663 0 0 1 .17-.855.841.841 0 0 1 .629-.257.8.8 0 0 1 .572.228c.172.144.229.314.229.542 0 .315-.199.629-.656.857l.627.799c.086-.143.143-.314.172-.485l.457.086a3.296 3.296 0 0 1-.314.771c.143.2.342.372.543.514l-.287.343a1.689 1.689 0 0 1-.542-.486m-.887-1.828c.201-.114.314-.199.371-.285a.47.47 0 0 0 .086-.286c0-.114-.027-.228-.113-.285a.367.367 0 0 0-.287-.113.359.359 0 0 0-.283.113c-.086.058-.115.171-.115.257 0 .058 0 .114.029.172.027.086.086.143.143.199l.169.228zm.6 1.484l-.77-.971c-.23.144-.4.257-.457.371-.086.143-.143.257-.143.372 0 .142.057.285.17.428.113.171.287.229.486.229a.714.714 0 0 0 .4-.114c.144-.086.257-.171.314-.315m-14.168-7.822c-2-.971-1.172-6.937-1.172-8.85 0-.885-.029-1.085-.514-1.599-.43-.457-2.115-1.427-2.887-.657-.428.4-.398 2.827-.514 3.655-.285 1.884-.971 5.424-2.971 5.253-1.629-.144-1.4-5.311-1.342-6.881.027-.599.199-1.341-.258-1.627-.656-.4-2.914-.285-3.199.485-.629 1.628-.4 5.482.227 7.366.172.542.459.999.629 1.456-.17.171-1.313.855-1.57.941-.344-.685-.143-1.056-.973-2.568-.398-.743-.941-1.713-1.428-2.142-.713-.6-1.543-.914-2.57-.257-.514.314-1.658 1.398-2.057 1.514-1.172-.571-.514-3.341-.059-4.283.771-1.484 3.516.143 4.572-.371.256-.571-1.201-1.427-1.629-1.684-2.914-1.742-5.457-1.428-6.227 2.17-.486 2.283.371 5.081 2.17 6.109.828.485 1.801-.257 2.428-.742.43-.343.658-.714.943-.856 1.027 1.027 1.885 3.969 1.971 5.282-.686.228-1.885 1.427-2.314 1.912-2.799 2.997-2.885 7.451-.17 8.621 2.455 1.058 4.656-1.256 5.285-2.883 1.371-3.74.371-7.309.514-7.68.229-.285.771-.686 1.086-.942.371-.313.686-.685 1.086-.941.713.371.914.57 1.914.741 1.686.286 2.742-.456 3.627-1.713.43-.599.572-1.142.887-1.77.457 2.37 1.484 3.883 3.998 4.197.486.086 1.4.057 1.572-.344.286-.627-.657-.712-1.055-.912zm-17.315 9.969c-.857.2-1.258-.742-1.258-1.513-.029-1.427 1.314-3.227 2.057-3.54l.057 3.055c-.001.799-.143 1.827-.856 1.998zm43.51-20.503c-2.285 1.342-5.627-.257-6.77 4.425-.801 3.34 1.057 6.566 3.629 7.194 3.598.885 5.826-1.627 6.568-4.311 1.173-4.31-2.599-7.765-3.427-7.308zm-1.285 9.966c-2 2.142-2.199-4.254-1.971-5.996.115-1.028.199-1.57 1.086-1.884.713-.228 1.486.371 1.914.914 1.113 1.313.313 5.567-1.029 6.966z"/></svg>