<svg xmlns="http://www.w3.org/2000/svg" viewBox="0 0 115.069 42.466"><path fill="#fff" d="M17.011 17.094a15.096 15.096 0 0 0 1.884-.257c.543-.143 1-.343 1.371-.6a2.53 2.53 0 0 0 .857-.97c.172-.372.286-.857.286-1.399 0-.486-.114-.942-.286-1.314a2.976 2.976 0 0 0-.828-.97c-.343-.257-.771-.457-1.257-.6-.485-.114-1-.2-1.6-.2-.4 0-.685.029-.885.058-.229.057-.315.199-.315.428v11.477c0 .172-.114.285-.314.313-.171.029-.314.029-.514.059-.172 0-.372.029-.543.029-.171.027-.314.027-.486.027h-.314c-.228 0-.314-.086-.314-.256V11.84c0-.371-.114-.628-.286-.743-.2-.114-.457-.171-.771-.171-.172 0-.371 0-.6.029l-.086-.628c.8-.115 1.657-.2 2.571-.314a32.9 32.9 0 0 1 3.086-.143c.543 0 1.058.028 1.571.086a8.41 8.41 0 0 1 1.514.199c.486.115.914.257 1.344.4.399.171.771.4 1.057.657.314.285.543.599.714.942.2.371.286.799.286 1.284 0 .771-.2 1.428-.6 1.942-.4.542-.914.97-1.572 1.313-.629.343-1.399.571-2.229.742a15.73 15.73 0 0 1-2.628.286l-.113-.627zm17.683-7.223c1.171 0 2.199.171 3.113.457.943.285 1.715.713 2.371 1.284a5.232 5.232 0 0 1 1.515 2.056c.372.799.543 1.713.543 2.741 0 1.113-.2 2.112-.601 2.997a5.957 5.957 0 0 1-1.685 2.17 8.159 8.159 0 0 1-2.629 1.342 12.998 12.998 0 0 1-3.456.457 10.66 10.66 0 0 1-3.114-.457c-.914-.314-1.714-.744-2.37-1.314a5.73 5.73 0 0 1-1.515-2.085c-.343-.827-.515-1.741-.515-2.796 0-1.114.199-2.084.572-2.941a5.704 5.704 0 0 1 1.713-2.141c.715-.571 1.601-1.028 2.629-1.313a12.757 12.757 0 0 1 3.429-.457m-.657.942c-.885 0-1.628.143-2.257.428a4.56 4.56 0 0 0-1.514 1.199c-.4.486-.686 1.057-.885 1.713a7.607 7.607 0 0 0-.287 1.999c0 .77.114 1.541.314 2.284.199.77.514 1.427.943 2.027.457.571 1 1.056 1.713 1.427.687.371 1.515.542 2.515.542.856 0 1.601-.143 2.228-.457.629-.313 1.144-.714 1.543-1.228.4-.485.687-1.085.857-1.713.2-.657.286-1.342.286-2.027 0-.771-.086-1.542-.286-2.284a5.773 5.773 0 0 0-.971-1.97c-.43-.599-1-1.056-1.686-1.399-.685-.371-1.541-.541-2.513-.541M46.55 23.059c-.199 0-.313-.113-.313-.283V11.84c0-.371-.087-.628-.286-.743-.2-.114-.457-.171-.771-.171-.172 0-.371 0-.572.029l-.084-.6a50.624 50.624 0 0 1 3.027-.342 36.337 36.337 0 0 1 3.057-.143c.857 0 1.686.057 2.515.143.799.085 1.571.199 2.285.399.714.2 1.371.457 1.971.771a5.779 5.779 0 0 1 1.543 1.171 5.53 5.53 0 0 1 1.028 1.684c.229.628.343 1.37.343 2.227 0 1.113-.228 2.084-.714 2.969-.457.855-1.143 1.599-1.971 2.197-.857.601-1.887 1.058-3.057 1.343a14.683 14.683 0 0 1-3.828.484c-.4 0-.744-.027-1.058-.027a62.117 62.117 0 0 0-.914-.086 9.744 9.744 0 0 0-.972-.059c-.344-.027-.743-.027-1.229-.027m2.172-.913c.342.057.686.113 1.027.143.372.029.715.029 1.086.029 1.086 0 2.028-.145 2.857-.4a5.757 5.757 0 0 0 2.113-1.142c.571-.515 1-1.114 1.314-1.828a6.543 6.543 0 0 0 .457-2.426c0-.857-.171-1.628-.486-2.313a4.388 4.388 0 0 0-1.342-1.798c-.572-.514-1.286-.914-2.143-1.171-.857-.285-1.828-.428-2.942-.428h-.687c-.399 0-.713.029-.914.086-.229.057-.342.199-.342.456v10.792zm25.196-11.59c.086-.171.227-.285.457-.343.113-.028.256-.057.398-.057.145-.028.287-.028.4-.057h.629c.115 0 .172 0 .199.029.029.028.059.057.059.085 0 .029-.029.086-.086.2L69.66 22.975c-.084.113-.143.199-.229.199-.057 0-.143 0-.229.029h-.314c-.113.029-.229.029-.342.029h-.201c-.057 0-.084 0-.143-.029-.057-.029-.084-.086-.143-.145l-5.256-11.247c-.143-.342-.344-.571-.543-.685a1.7 1.7 0 0 0-.771-.171h-.258c-.086 0-.199.028-.313.028l-.086-.599a8.89 8.89 0 0 1 1.17-.172c.4-.057.771-.114 1.086-.142.314-.029.6-.057.828-.057.229-.029.373-.029.43-.029.113 0 .229.029.285.086.057.085.115.171.172.314l4.771 10.306h.057l4.287-10.134zm4.999 7.88l-2.027 4.566c-.057.086-.115.115-.258.145-.143 0-.342.027-.543.027h-.686c-.143 0-.229-.027-.229-.086 0-.029 0-.057.029-.057l6.084-12.162-.256-.628c-.029-.057-.029-.086-.029-.114 0-.114.086-.171.258-.2.143-.029.285-.057.486-.057.199-.029.371-.029.541-.057.201-.029.344-.029.516-.029.143 0 .256-.028.314-.028.199 0 .313.085.398.257l5.971 12.703a.218.218 0 0 1 .029.115c0 .113-.086.199-.258.227-.17.029-.342.029-.543.059-.199 0-.4.029-.57.029-.199.027-.373.027-.543.027h-.344c-.143 0-.256-.057-.313-.143l-2.172-4.682-5.855.088zm.429-.972h5.027l-2.543-5.481-2.484 5.481zM95.6 21.319c0 .171.029.313.029.428.029.086.057.172.115.229.057.058.143.085.285.085.143.03.314.03.57.03h1.314c.715 0 1.287 0 1.744-.03a3.16 3.16 0 0 0 1.141-.284c.316-.144.572-.4.83-.714.227-.314.514-.742.799-1.313l.658.114c0 .057-.029.2-.086.399-.029.229-.086.485-.145.771-.084.285-.143.57-.227.885-.086.314-.172.572-.23.798-.143.229-.342.371-.656.371-.686 0-1.514-.029-2.514-.029H93.43c-.115 0-.201-.027-.229-.113-.059-.057-.086-.113-.086-.17V11.955c0-.2-.029-.371-.059-.485a.639.639 0 0 0-.227-.314c-.086-.086-.201-.115-.314-.143a2.204 2.204 0 0 0-.457-.057c-.172 0-.373.028-.572.028l-.084-.599c.484-.086.941-.143 1.369-.2.43-.057.828-.086 1.143-.114.344-.029.629-.057.83-.086h.428c.285 0 .428.114.428.343v10.991zm-64.848 8.107c0-.057.058-.084.086-.084.028-.029.058-.029.086-.029h.114c.027 0 .057-.029.086-.029h.057c.028 0 .028.029.028.029v.057l-1.228 3.197c-.029.029-.029.029-.029.059H29.752c-.028 0-.058.027-.085.027h-.059c-.027 0-.027-.027-.027-.027-.029 0-.029 0-.029-.029l-.714-2.055-.771 2.025c0 .029-.029.029-.029.059h-.172c-.028 0-.057.027-.086.027h-.086s0-.027-.027-.027c0 0-.029 0-.029-.029l-.971-2.855a.297.297 0 0 0-.143-.172.249.249 0 0 0-.172-.057h-.057c-.029 0-.029 0-.059.029l-.027-.172c.086-.027.171-.027.257-.057.114 0 .171 0 .257-.029h.2c.058-.027.086-.027.086-.027.028 0 .058.027.085.027 0 .029.029.059.029.086l.886 2.598h.028l.656-1.855-.256-.713v-.057c.028-.029.028-.029.057-.029.057-.029.143-.029.229-.029.057 0 .143-.027.2-.027.028 0 .028.027.058.027 0 0 .027.029.027.059l.915 2.654.829-2.572zm1.2-.057c.113-.027.229-.027.314-.057.113 0 .199-.029.256-.029h.201c.057-.027.086-.027.086-.027.086 0 .113.027.113.113v3.141c0 .057-.027.086-.085.086-.028 0-.058 0-.114.029h-.314c-.029 0-.057-.029-.057-.059V29.77c0-.057 0-.086-.029-.115 0-.027-.028-.057-.028-.086-.028-.027-.058-.027-.086-.027-.028-.029-.058-.029-.086-.029-.058 0-.085 0-.142.029l-.029-.173zm2.742-.142h.029l.057.057 2.086 2.57-.086-2.512c0-.029.029-.029.057-.029.029 0 .086-.029.143-.029h.172c.028 0 .057 0 .057.029l-.085 2.74v.514c0 .029 0 .059-.029.059h-.315l-.029-.029-2.114-2.598.087 2.568c0 .029-.029.059-.058.059h-.314c-.029 0-.029 0-.029-.029l.057-2.941-.229-.313c-.028 0-.028-.029-.028-.029 0-.029.028-.029.057-.057h.115c.058-.029.114-.029.171-.029H34.694zm4.486 2.941v.086c0 .027 0 .057.028.057 0 .027.029.027.057.027h.915a.8.8 0 0 0 .257-.057c.058-.027.143-.086.172-.172.057-.086.113-.199.199-.342l.143.029s0 .057-.028.113c0 .029 0 .113-.028.172 0 .086-.029.143-.029.229-.027.084-.057.141-.057.199-.029.057-.086.086-.171.086h-1.943c-.029 0-.058 0-.058-.029-.028 0-.028-.027-.028-.057v-2.684c0-.086-.028-.172-.058-.199-.057-.029-.114-.029-.171-.029h-.143l-.029-.172c.057 0 .115 0 .199-.027.087 0 .173 0 .258-.029.086 0 .172 0 .258-.027H40.665c.029 0 .057 0 .057.027v.258c.029.027.029.086.029.143v.315l-.143.027a.824.824 0 0 0-.114-.314c-.029-.084-.058-.113-.114-.17a.54.54 0 0 0-.229-.059h-.914c-.029 0-.029 0-.058.029v1.227c.171-.027.314-.027.457-.027.114 0 .257-.029.343-.029h.371c.057 0 .086.029.086.086v.115c-.029.027-.029.057-.029.113l-1.228-.057v1.142zm5.428-2.799c.17-.027.371-.057.57-.086.2-.027.457-.027.715-.027h.285c.114 0 .229.027.314.027.113.029.199.059.314.086.086.057.172.086.229.143a.438.438 0 0 1 .171.229c.058.086.058.172.058.285 0 .086 0 .172-.029.258-.028.084-.086.143-.143.229-.057.057-.143.143-.229.199s-.172.086-.285.143c.027 0 .085.029.113.029.058.027.144.027.201.057.057.029.113.057.17.115a.495.495 0 0 1 .201.141c.028.059.086.115.114.201s.058.17.058.285c0 .029-.029.086-.029.143s-.028.143-.057.199c-.029.086-.086.145-.144.23a1.036 1.036 0 0 1-.257.17 1.118 1.118 0 0 1-.371.143c-.143.059-.344.059-.543.059h-.484c-.057-.029-.143-.029-.199-.029h-.285c-.058 0-.058-.029-.058-.057V29.74a.253.253 0 0 0-.086-.199c-.028-.029-.086-.029-.172-.029h-.114l-.028-.143zm.942 2.998H45.779c.029.027.086.027.115.027h.143c.143 0 .257-.027.371-.057.086-.057.172-.084.229-.17a.469.469 0 0 0 .114-.201c.028-.057.058-.113.058-.199a.787.787 0 0 0-.086-.371c-.058-.086-.115-.172-.229-.229a.938.938 0 0 0-.344-.113c-.113-.029-.256-.029-.428-.029h-.172v1.342zm0-1.57H45.666c.171 0 .314-.029.457-.029.113-.027.229-.086.314-.113a.431.431 0 0 0 .17-.229c.058-.059.058-.172.058-.285a.976.976 0 0 0-.058-.314c-.027-.086-.113-.143-.17-.199a.83.83 0 0 0-.287-.115c-.113-.029-.228-.029-.342-.029h-.201c-.027.029-.057.059-.057.115v1.198zm3.371.629l-.457 1.141c0 .029-.027.059-.057.059h-.286c-.028 0-.028 0-.028-.029l1.371-3.084-.057-.17v-.029c0-.029 0-.057.057-.057.029 0 .057 0 .114-.029h.315c.027 0 .057 0 .084.057l1.344 3.227v.029c0 .027-.029.057-.057.057-.029 0-.087 0-.115.029h-.342c-.029 0-.058 0-.058-.029l-.485-1.199-1.343.027zm.115-.258h1.113l-.571-1.398-.542 1.398zm4.171-.258c.142-.027.284-.027.399-.057a.804.804 0 0 0 .314-.143.444.444 0 0 0 .171-.229c.058-.115.058-.229.058-.342 0-.115 0-.229-.058-.285a1.567 1.567 0 0 0-.171-.229c-.086-.029-.172-.086-.286-.115s-.229-.029-.343-.029c-.085 0-.143 0-.2.029-.028 0-.057.029-.057.086v2.912c0 .057 0 .086-.058.086-.029 0-.086 0-.113.029h-.315c-.058 0-.058-.029-.058-.059V29.74a.254.254 0 0 0-.084-.199c-.029-.029-.086-.029-.172-.029h-.114l-.029-.143c.2-.057.399-.057.629-.086.228-.027.429-.027.657-.027h.314c.113 0 .199.027.313.027.086.029.2.059.286.086.086.057.171.086.257.172a.514.514 0 0 1 .144.199.485.485 0 0 1 .086.285.668.668 0 0 1-.086.342.598.598 0 0 1-.144.23c-.086.084-.144.143-.257.199a.824.824 0 0 1-.286.113v.029c.058 0 .086.029.172.029.058.027.114.057.171.086.029.057.086.084.143.141a.58.58 0 0 1 .115.23l.229.627c.027.086.057.172.086.229 0 .029.027.086.057.113.028.029.086.029.114.057h.144v.145c-.029 0-.086.029-.144.029h-.114c-.057.027-.086.027-.115.027h-.084c-.058 0-.115 0-.172-.027a.214.214 0 0 1-.144-.059c-.028-.057-.085-.086-.114-.143a1.974 1.974 0 0 1-.084-.229l-.201-.686c-.028-.084-.086-.17-.115-.229-.057-.057-.084-.113-.17-.143-.058-.027-.144-.027-.229-.057-.085 0-.2 0-.313-.027l-.029-.141zm7.883-.086l.457-.256c.115.113.201.229.258.342.029.115.057.229.057.344 0 .143-.027.285-.086.428a1.845 1.845 0 0 1-.285.371c.086.057.143.143.258.201.086.084.172.17.256.256.029 0 .029 0 .029.029 0 .027 0 .027-.029.027 0 .029-.027.029-.027.029-.115.029-.201.029-.287.029-.086.027-.143.027-.17.027-.029 0-.029 0-.057-.027-.029 0-.059 0-.059-.029-.057-.029-.113-.086-.172-.115-.027-.057-.086-.086-.143-.113-.057.027-.143.084-.229.113-.086.059-.199.086-.285.115-.113.029-.199.029-.314.057-.113 0-.228.029-.314.029-.172 0-.314-.029-.457-.057a.734.734 0 0 1-.371-.174.804.804 0 0 1-.286-.256.89.89 0 0 1-.085-.398c0-.115.027-.23.057-.314.028-.086.086-.143.143-.229.086-.059.143-.143.229-.199.114-.059.2-.115.314-.201a2.257 2.257 0 0 1-.258-.371 1.765 1.765 0 0 1-.057-.371c0-.143.029-.285.086-.371a.816.816 0 0 1 .258-.285c.113-.057.229-.113.371-.143.114-.057.258-.057.4-.057h.285c.113.027.199.057.285.086.115.027.172.084.229.141a.371.371 0 0 1 .115.258c0 .086-.059.172-.115.229a.819.819 0 0 1-.285.057h-.143v-.086a.608.608 0 0 0-.086-.342c-.086-.086-.172-.115-.344-.115-.083 0-.142 0-.227.029-.058.029-.114.086-.172.115-.028.057-.058.113-.085.17-.029.086-.029.143-.029.229s0 .145.029.229c0 .057.057.143.085.229.058.086.114.172.2.258.086.084.171.199.285.285.115.113.258.256.43.4.143.141.342.285.543.455.086-.143.143-.256.143-.398 0-.201-.115-.428-.344-.629v-.031zm-.199 1.371a12.572 12.572 0 0 0-.771-.656l-.514-.514c-.086.086-.172.17-.201.256a.516.516 0 0 0-.086.314c0 .115.029.229.086.314a.428.428 0 0 0 .172.258.581.581 0 0 0 .285.17c.086.029.229.057.343.057.113 0 .258-.027.371-.057a.964.964 0 0 0 .315-.142m5.713-.027v.086c.029.027.029.057.029.057.029.027.057.027.086.027h.798a.554.554 0 0 0 .258-.057.64.64 0 0 0 .199-.199c.057-.059.115-.172.172-.344l.143.059v.084c0 .059-.027.115-.027.201-.029.086-.057.143-.057.229-.029.084-.029.141-.059.199a.156.156 0 0 1-.143.086H66.12c-.029 0-.029 0-.059-.029V29.77c0-.057-.029-.086-.029-.115 0-.027-.027-.057-.057-.086 0-.027-.027-.027-.057-.027-.027-.029-.057-.029-.113-.029-.029 0-.086 0-.115.029l-.027-.172c.113-.027.199-.027.313-.057.086 0 .172-.029.258-.029h.199c.029-.027.059-.027.086-.027.057 0 .086.027.086.113v2.798zm4.285-2.912c.258 0 .486.027.686.113.229.057.4.172.543.314s.258.314.344.514.113.457.113.713c0 .285-.027.543-.113.742-.115.229-.229.43-.4.572s-.342.256-.6.342a3.047 3.047 0 0 1-.771.115 2.42 2.42 0 0 1-.686-.115c-.229-.086-.4-.199-.543-.342s-.256-.314-.342-.543c-.088-.199-.115-.428-.115-.686 0-.285.027-.541.115-.77.086-.201.227-.4.398-.543.145-.143.344-.258.602-.314.226-.085.484-.112.769-.112m-.17.226a.935.935 0 0 0-.486.115.852.852 0 0 0-.344.285.96.96 0 0 0-.199.457 1.334 1.334 0 0 0-.086.484c0 .201.029.4.086.602.029.199.113.371.199.514.115.143.23.256.4.371.143.084.344.113.57.113.201 0 .344-.029.486-.113.143-.057.258-.172.373-.287.084-.143.141-.285.17-.457.057-.17.086-.342.086-.512 0-.201-.029-.4-.086-.572a1.391 1.391 0 0 0-.199-.514 1.173 1.173 0 0 0-.4-.342c-.142-.114-.343-.144-.57-.144m3.656 2.084c0 .145 0 .258.057.344.029.113.086.172.172.258a.554.554 0 0 0 .229.113c.113.029.229.029.314.029.17 0 .314 0 .428-.057.143-.059.285-.086.43-.172v-2.684c0-.029.027-.057.084-.057.029-.029.059-.029.086-.029h.258c.029-.029.057-.029.057-.029.057 0 .086.029.086.086v3.141c0 .057-.029.086-.086.086-.027 0-.057 0-.113.029H76.088c-.027 0-.057-.029-.057-.059l-.027-.229c-.201.086-.4.172-.602.229a2.147 2.147 0 0 1-.629.115c-.143 0-.256-.029-.371-.057a.663.663 0 0 1-.313-.174.603.603 0 0 1-.201-.256.79.79 0 0 1-.086-.371V29.77c0-.057 0-.086-.029-.115 0-.027-.027-.057-.027-.086-.029-.027-.057-.027-.086-.027-.027-.029-.057-.029-.086-.029-.057 0-.086 0-.143.029l-.029-.172c.115-.027.23-.027.314-.057.115 0 .201-.029.258-.029h.199c.057-.027.086-.027.086-.027.086 0 .115.027.115.113v2.196zm3.971-2.339h.057c0 .029 0 .029.029.057l2.084 2.57-.084-2.512c0-.029.027-.029.057-.029.027 0 .086-.029.143-.029h.172c.029 0 .057 0 .057.029l-.086 2.74v.514c0 .029 0 .059-.027.059h-.315s0-.029-.029-.029l-2.086-2.598.059 2.568c0 .029 0 .059-.059.059H78.003c-.027 0-.027 0-.027-.029l.057-2.941-.229-.313c-.029 0-.029-.029-.029-.029 0-.029.029-.029.059-.057h.113c.057-.029.115-.029.172-.029H78.346zm6.828 3.253c0 .029-.029.059-.059.059a3.156 3.156 0 0 1-.514.113c-.172 0-.371.029-.543.029-.313 0-.572-.057-.828-.115a1.887 1.887 0 0 1-.629-.342c-.199-.143-.313-.314-.428-.543a1.86 1.86 0 0 1-.143-.713c0-.287.057-.543.143-.742.115-.229.256-.4.457-.543.172-.143.398-.258.658-.342a3.57 3.57 0 0 1 .826-.086c.172 0 .314 0 .486.027a2.1 2.1 0 0 1 .428.059c.029 0 .029.027.059.027v.029c0 .027.027.057.027.113V29.911c.029.057.029.086.029.113v.059l-.172.027a.436.436 0 0 0-.113-.314c-.057-.057-.143-.143-.229-.17-.086-.059-.201-.086-.314-.115s-.229-.029-.344-.029c-.199 0-.4.029-.57.086a1.161 1.161 0 0 0-.686.715 1.543 1.543 0 0 0-.086.541c0 .23.057.457.115.658.084.17.17.342.313.484.145.143.314.258.514.344.23.084.457.113.744.113h.143c.027 0 .086 0 .143-.029v-.997c-.029-.057-.029-.086-.057-.086 0-.029-.029-.029-.059-.029-.027-.027-.084-.027-.113-.027h-.112v-.143c.113 0 .199-.029.285-.029h.514c.057 0 .115.029.115.086v1.311zm-54.45-3.082c0-.029.029-.029.029-.057l.057.057c-.029 0-.029 0-.029.027l-.057-.027zm.029-.056l.027.027-.027-.027zm0 0c.027-.029.057-.029.084-.029l.029.057c-.029 0-.057 0-.057.029l-.056-.057zm.084-.029v.029-.029zm0 0l.029-.029.029.059-.029.027-.029-.057zm.029-.03h.029v.029l-.029-.029zm.03 0h.027l.029.059h-.057v-.059zm.027 0v.029-.029zm0 0h.057v.059h-.027l-.03-.059zm.056 0v.029-.029zm0 0h.058v.059h-.058v-.059zm.058 0v.029-.029zm0 0l.086-.027v.086h-.086v-.059zm.086-.027v.027-.027zm0 0h.058v.057l-.058.029v-.086zm.058 0v.027-.027zm0 0s.028 0 .028.027l-.028.059V29.256zm.028.027h.028l-.028.029v-.029zm.028 0l.029.029h-.086s.028.029 0 .029l.057-.058zm.03.03c0 .029 0 .029-.029.029h-.057v-.029h.086zm-.086.029h.028-.028zm.056 0v.057l-.057-.029v-.027h.057zm-.056.027h.028-.028zm.056.029l-1.229 3.197-.057-.029 1.229-3.197.057.029zm-1.228 3.198l-.029-.029.029.029zm0 0H29.923l.029-.029.057.029zm-.03 0v.027l-.027-.027h.027zm0 .027l-.057-.027v-.029l.057.056zm0 0h-.027.027zm0 0l-.027.029-.029-.057.056.028zm-.027.029l-.029-.029.029.029zm0 0h-.029l-.027-.057h.027l.029.057zm-.029 0v-.029.029zm0 0h-.086v-.057h.086v.057zm-.084 0v-.029.029zm0 0h-.086v-.057h.086v.057zm-.086 0v-.029.029zm0 0l-.087.029v-.086h.087v.057zm-.087.03v-.029.029zm0 0h-.057v-.059l.057-.027v.086zm-.057 0v-.029.029zm0 0h-.029v-.086l.029.027v.059zm-.029 0v-.059.059zm0 0l-.028-.029.028-.057h.029l-.029.086zm-.028-.03l.028-.029-.028.029zm0 0s-.028 0-.028-.029l.057-.027-.029.056zm-.029-.029h.028-.028zm0 0v-.027h.057l-.057.027zm.057-.027h-.028.028zm-.057 0l-.714-2.057h.057l.714 2.057h-.057zm-.713-2.084l.029-.086.027.113h-.027l-.029-.027zm.056.027l-.771 2.057-.057-.029.771-2.055.057.027zm-.771 2.057l-.028-.029.028.029zm0 0l-.028.027-.058-.027c.029 0 .029-.029.029-.029l.057.029zm-.029.027h-.028.028zm0 0l-.028.029-.029-.057h.029l.028.028zm-.028.029v-.029.029zm0 0l-.029-.057.029.057zm0 0h-.029v-.029l.029.029zm-.029 0h-.057v-.057h.057v.057zm-.057 0v-.029.029zm0 0h-.086v-.057h.086v.057zm-.086 0v-.029.029zm0 0l-.085.029v-.086h.085v.057zm-.085.03v-.029.029zm0 0h-.086v-.059l.086-.027v.086zm-.086 0v-.029.029zm0 0v-.086.086zm0 0h-.029v-.029l.029-.029v.058zm-.029-.03l.029-.057-.029.057zm0 0v-.029.029zm0 0c-.028 0-.028 0-.028-.029l.028-.027h.029l-.029.056zm-.028-.029h.028-.028zm0 0c-.028 0-.028 0-.028-.027h.057l-.029.027zm.028-.027h-.028.028zm-.057 0l-.972-2.855h.058l.971 2.855h-.057zm-.914-2.856h-.028.028zm-.057 0c-.028-.027-.028-.057-.057-.086l.057-.057c.029.027.029.086.058.143h-.058zm-.057-.086c-.029-.029-.029-.057-.057-.057l.027-.057c.029 0 .058.027.086.057l-.056.057zm-.057-.056v-.029.029zm0 0c-.029-.029-.057-.029-.086-.029l.029-.084c.027.027.057.027.084.057l-.027.056zm-.056-.114v.027-.027zm-.03.084c-.029-.027-.057-.027-.086-.027v-.057h.115l-.029.084zm-.085-.084v.027-.027zm0 .057h-.029v-.057h.029v.057zm-.029-.057v.027-.027zm0 .057h-.028v-.057h.028v.057zm-.028-.057v.027-.027zm0 .057h-.029v-.057h.029v.057zm-.029-.057v.027-.027zm0 .057l-.028.027v-.084h.028v.057zm-.029.027h-.029v-.029h.029v.029zm-.029-.027l-.028-.172h.058l.028.143-.058.029zm-.028-.199h.029v.027h-.029v-.027zm.028 0l.144-.029v.057l-.144.029v-.057zm.144-.029v.029-.029zm0 0l.115-.029.027.086h-.143v-.057zm.115-.03v.029-.029zm0 0h.142v.059l-.114.027-.028-.086zm.141 0v.029-.029zm0 0l.114-.027v.057l-.114.029v-.059zm.115-.027v.027-.027zm0 0h.201v.057h-.201v-.057zm.201 0v.027-.027zm0 0l.057-.029v.086h-.057v-.057zm.056-.029v.029-.029zm0 0h.027v.057l-.027.029v-.086zm.028 0v.029-.029zm0 0c.029 0 .059 0 .059.029l-.029.057s0-.029-.029-.029v-.057zm.029.086l.029-.029-.029.029zm.029-.057c.027 0 .027 0 .057.027l-.057.029h-.029l.029-.056zm0 .057l.027-.029-.027.029zm.028-.03c.029 0 .029 0 .029.029l-.057.029v-.029l.028-.029zm.029.03h-.029.029zm0 0c.028 0 .028.029.028.057h-.058s0-.027-.027-.027l.057-.03zm-.029.056h.029-.029zm.057 0l.886 2.598h-.057l-.887-2.598h.058zm.857 2.627h-.029v-.029h.029v.029zm0-.057h.029v.057h-.029v-.057zm.057.028l-.028.029v-.029h.028zm-.085 0l.685-1.885.058.029-.657 1.855h-.086zm.743-1.885v.029h-.028l.028-.029zm-.058.029l-.257-.713.057-.029.258.713-.058.029zm-.2-.742l-.027.029.027-.029zm-.057.029v-.029h.057l-.057.029zm.057-.029h-.027.027zm-.057 0v-.057l.057.029v.027h-.057zm0-.056l.029.029-.029-.029zm0 0c.029 0 .029 0 .029-.029l.057.059c-.029 0-.029 0-.029.027l-.057-.057zm.086.029l-.029-.029.029.029zm-.057-.059h.027l.029.059-.056-.059zm.028 0l.029.029-.029-.029zm0 0c.058 0 .086-.027.115-.027l.028.057c-.058.029-.086.029-.114.029l-.029-.059zm.115-.027v.027-.027zm0 0h.114l.028.057h-.114l-.028-.057zm.114 0h.028v.027l-.028-.027zm.029 0l.086-.029.029.086h-.115v-.057zm.086-.029l.029.057-.029-.057zm0 0h.113v.057l-.084.029-.029-.086zm.113 0s.029 0 .029.029v.057l-.029-.029v-.057zm.029.086v-.029.029zm0-.057h.057l-.057.057v-.057zm0 .057l.029-.029-.029.029zm.057-.057v.027l-.057.029.057-.056zm0 .027c.029 0 .029.029.029.029l-.057.029s0-.029-.029-.029l.057-.029zm.029.03l-.029.029.029-.029zm0 0l.914 2.684h-.057l-.914-2.654.057-.03zm.885 2.71h-.029v-.029h.029v.029zm0-.056v.057-.057zm.056.029l-.027.027h-.029v-.027h.056zm-.083 0l.828-2.598.057.027-.801 2.57h-.084zm.828-2.598l.029.027-.029-.027zm1.228-.056l.171-.029v.057l-.144.029-.027-.057zm.171-.029v.029-.029zm0 0l.144-.029v.059l-.144.027v-.057zm.144-.03v.029-.029zm0 0c.086 0 .199-.027.257-.027v.057c-.058.029-.144.029-.257.029v-.059zm.256-.027h.114v.057h-.114v-.057zm.115 0v.027-.027zm0 0h.086v.057h-.086v-.057zm.086 0v.027-.027zm0 0l.057-.029v.086h-.057v-.057zm.056-.029v.029-.029zm0 0h.029v.057l-.029.029v-.086zm.03 0v.029-.029zm0 0c.057 0 .084.029.113.029l-.057.057s-.029-.029-.057-.029v-.057zm.113.029c0 .027.028.057.028.113h-.085v-.057l.057-.056zm.028 3.254h-.086v-3.141h.086v3.141zm0 0c0 .027-.028.057-.028.086l-.057-.059v-.027h.085zm-.028.086c-.029 0-.057.027-.086.027v-.057c.029 0 .029 0 .029-.029l.057.059zm-.086.027v-.027.027zm0 0h-.057v-.057h.057v.057zm-.057 0v-.027.027zm0 0l-.057.029v-.086h.057v.057zm-.056.029v-.029.029zm0 0h-.058v-.057l.058-.029v.086zm-.058 0v-.029.029zm0 0h-.057v-.057h.057v.057zm-.057 0v-.029.029zm0 0h-.114v-.057h.114v.057zm-.115 0v-.029.029zm0 0h-.086v-.057h.086v.057zm-.085 0v-.029.029zm0 0c-.029 0-.057 0-.057-.029l.027-.027h.029v.056zm-.056-.029c-.029 0-.029-.027-.029-.057h.057v.029l-.028.028zm-.03-2.853h.057v2.797h-.057V29.77zm0-.057h.057v.057h-.057v-.057zm0 0h.029-.029zm0 0c0-.029-.029-.029-.029-.059l.059-.029c.027.029.027.059.027.088h-.057zm.03-.088l-.029.029.029-.029zm-.059.029v-.029l.059-.027v.027l-.059.029zm.059-.056h-.029.029zm-.059.027l-.027-.027.027-.057.059.057-.059.027zm-.027-.027l.027-.029-.027.029zm0 0c0-.029-.029-.029-.029-.029l.029-.057c.027 0 .027.029.027.029l-.027.057zm-.03-.03v-.027.027zm0 0h-.028v-.057h.058l-.03.057zm-.028-.056v.029-.029zm0 .056c-.028 0-.028-.027-.057-.027l.028-.057s.028 0 .028.027v.057zm-.028-.084l-.028.027.028-.027zm-.029.057h-.029v-.057h.058l-.029.057zm-.029 0c-.057 0-.086 0-.144.027v-.084h.144v.057zm-.144.027h-.028v-.029h.028v.029zm-.027-.027l-.029-.172h.057l.029.143-.057.029zm-.029-.199h.029v.027h-.029v-.027zm2.771-.145c.029 0 .057 0 .057.029l-.027.029h-.029v-.058zm.057.03h-.027.027zm0 0l.057.029-.057.057-.027-.057.027-.029zm.057.029l-.027.027.027-.027zm0 0l2.086 2.598-.057.029-2.086-2.57.057-.057zm2.086 2.598v.113l-.057-.084.028-.029h.029zm-.057 0l-.086-2.512h.057l.086 2.512h-.057zm-.086-2.512h.029-.029zm0 0c0-.029 0-.029.029-.059l.027.059h-.056zm.086 0h-.029v-.029l.029.029zm-.057-.059h.057v.059l-.057-.059zm.057.059v-.029.029zm0-.059l.057-.027v.057l-.057.029v-.059zm.057-.027v.027-.027zm0 0h.086v.057h-.086v-.057zm.085 0v.027-.027zm0 0h.087v.057h-.087v-.057zm.086 0v.027-.027zm0 0h.086v.057h-.086v-.057zm.086 0v.027-.027zm0 0h.057l-.027.057h-.029v-.057zm.057 0c.029.027.029.027.029.057h-.057l.028-.057zm.029.057h-.029.029zm0 0l-.086 2.74h-.057l.086-2.74h.057zm-.142 2.74h.027-.027zm.056.513h-.057v-.514h.057v.514zm0 0v.057l-.057-.027v-.029h.057zm0 .057c-.029.029-.029.029-.057.029v-.057l.057.028zm-.056-.027v.027-.027zm0 .056h-.058v-.057h.058v.057zm-.058 0v-.029.029zm0 0h-.086v-.057h.086v.057zm-.086 0v-.029.029zm0 0h-.058v-.057h.058v.057zm-.057 0v-.029.029zm0 0h-.057v-.057h.057v.057zm-.057 0v-.029.029zm0 0h-.057l.027-.057h.029v.057zm-.029-.056v.027-.027zm-.028.056h-.029l.057-.057-.028.057zm.028-.056l-.027.027.027-.027zm-.057.056c0-.029-.029-.029-.029-.057l.059-.029c0 .029.027.029.027.029l-.057.057zm.029-.086l-.029.029.029-.029zm-.058.03l-2.113-2.6.058-.027 2.114 2.598-.059.029zm-2.114-2.6v-.113l.058.086-.028.027h-.03zm.086 0l.057 2.57h-.057l-.086-2.57h.086zm.057 2.57h-.027.027zm0 0c0 .029 0 .057-.027.057l-.029-.057h.056zm-.027.057v-.027.027zm0 0s-.029.029-.058.029v-.057c.028 0 .028 0 .028-.029l.03.057zm-.058-.027v.027-.027zm.028.056h-.086v-.057h.058l.028.057zm-.086 0v-.029.029zm0 0h-.086v-.057h.086v.057zm-.085 0v-.029.029zm0 0h-.087v-.057h.087v.057zm-.086 0v-.029.029zm0 0h-.086v-.057h.086v.057zm-.086 0v-.029.029zm0 0h-.057l.057-.057v.057zm-.057 0c0-.029-.027-.029-.027-.057h.084l-.057.057zm-.027-.056h.057-.057zm0 0l.084-2.941h.058l-.058 2.941h-.084zm.141-2.971v.029h-.028l.028-.029zm-.057.059l-.228-.314.028-.057.257.313-.057.058zm-.2-.371v.029-.029zm-.028.056c-.028 0-.028-.027-.028-.027l.057-.029-.029.056zm-.028-.027v-.029h.057l-.057.029zm0-.029c0-.029 0-.029.028-.057l.028.057h-.056zm.056 0v-.029.029zm-.028-.057s.028-.029.058-.029v.057l-.029.029-.029-.057zm.058-.029v.029-.029zm0 0h.057v.057h-.057v-.057zm.056 0v.029-.029zm0 0h.057v.057h-.057v-.057zm.057 0v.029-.029zm0 0l.172-.029v.059l-.172.027v-.057zm.172-.03v.029-.029zm0 0h.144v.059h-.144v-.059zm.142 0v.029-.029zm0 0h.086v.059h-.086v-.059zm.086 0v.029-.029zm4.514 3.028h-.057v-.059h.057v.059zm-.057 0h.027-.027zm.057.027h-.057v-.027h.057v.027zm-.057 0h.027-.027zm.057 0v.029l-.057.029v-.059h.057zm-.057.059l.027-.029-.027.029zm.057-.03s.028 0 .028.029l-.058.027-.027-.027.057-.029zm.028.03h-.028.028zm0 0l-.028.057-.029-.029.057-.028zm0 0v.027-.027zm0 0h.028v.057h-.057l.029-.057zm.029.056v-.029.029zm0-.056h.058v.057h-.058v-.057zm.057.056v-.029.029zm0-.056h.086l-.028.086-.058-.029v-.057zm.086.085h-.028l.028-.059v.059zm0-.085h.371v.086h-.371v-.086zm.371.085v-.059.059zm0-.085h.229v.057l-.229.029v-.086zm.23.056v-.029.029zm0-.056h.17v.057h-.17v-.057zm.17 0c.058 0 .086 0 .144-.029v.057c-.028.029-.086.029-.144.029v-.057zm.143.027v-.027.027zm0-.057c.028 0 .058-.029.086-.029l.028.059c-.028 0-.057.027-.114.027v-.057zm.086-.029l.028.029-.028-.029zm0 0c.028-.027.085-.027.114-.057l.029.029c-.029.027-.059.057-.115.086l-.028-.058zm.114-.057c.029-.029.057-.057.057-.113l.057.027c-.027.057-.057.086-.084.115l-.03-.029zm.057-.113l.029.027-.029-.027zm0 0c.029-.029.057-.086.086-.143l.057.027a.583.583 0 0 1-.086.143l-.057-.027zm.086-.143c.028-.057.086-.115.114-.201l.058.029c-.029.086-.086.143-.115.199l-.057-.027zm.114-.201h.028v.029l-.028-.029zm.029 0l.144.029v.057l-.172-.027.028-.059zm.143.03h.028v.029h-.028v-.029zm.028.056h-.057v-.027h.057v.027zm0 0h-.028.028zm0 0v.086l-.086-.027.029-.059h.057zm0 .086h-.057.057zm0 0l-.028.086-.058-.029v-.084l.086.027zm-.028.086h-.028.028zm0 0l-.028.086h-.058l.028-.115.058.029zm-.028.086h-.029.029zm0 0v.113h-.086l.028-.113h.058zm0 .113h-.058.058zm0 0l-.029.115h-.086l.029-.115h.086zm-.115.116h.058-.058zm.086 0c-.028.057-.028.086-.028.113l-.086-.027c.028-.029.028-.059.028-.086h.086zm-.029.113c-.028.029-.028.057-.028.086h-.058v-.113l.086.027zm-.028.086h-.029.029zm0 0c-.029.057-.058.086-.086.086l-.029-.029c.029-.029.029-.057.058-.057h.057zm-.086.086v-.029.029zm0 0c-.029.027-.058.027-.115.027v-.057h.086l.029.03zm-.115.027v-.027.027zm0 0h-.256v-.057h.256v.057zm-.256 0h-.344v-.057h.344v.057zm-.344 0h-.4v-.057h.4v.057zm-.4-.057v.029-.029zm0 .057h-.457v-.057h.457v.057zm-.457 0h-.485v-.057h.485v.057zm-.485 0h-.057l.027-.057h.029v.057zm-.056 0v-.027.027zm0 0l-.029-.027.057-.029-.028.056zm.027-.057h-.027.027zm-.057.03l-.029-.029.059-.029.027.029-.057.029zm-.029-.03l.029-.029-.029.029zm0 0v-.056h.059v.027l-.059.029zm0-2.74h.057v2.684h-.057v-2.684zm0 0c0-.057 0-.086-.027-.113l.086-.029v.143h-.059zm-.027-.113h.057-.057zm0 0c0-.029 0-.029-.029-.059l.029-.057.086.086-.086.03zm0-.115v.027-.027zm-.03.056c-.028 0-.028-.029-.057-.029v-.057c.028 0 .057.029.086.029l-.029.057zm-.056-.086v.029-.029zm0 .057h-.086v-.057h.086v.057zm-.086 0h-.144v-.057h.144v.057zm-.143 0h-.029v-.027h.029v.027zm-.029-.027l-.029-.143.086-.029v.172h-.057zm-.029-.143v-.029l.029-.027v.027l-.029.029zm.029-.057h.086v.057l-.057.029-.029-.086zm.086 0v.027-.027zm0 0l.114-.029v.086h-.114v-.057zm.114-.029v.029-.029zm0 0l.257-.027v.057l-.257.057v-.087zm.257-.027v.027-.027zm0 0h.114v.057h-.114v-.057zm.114 0v.027-.027zm0 0l.144-.029v.057l-.144.029v-.057zm.144-.029v.029-.029zm0 0h.086l.027.057h-.113v-.057zm.086 0v.029-.029zm0 0h.086v.057h-.086v-.057zm.086 0h1.113v.057h-1.113v-.057zm1.113 0h.2v.057h-.2v-.057zm.2.056v-.027.027zm0-.056h.257v.057h-.257v-.057zm.257 0v.029-.029zm0 0h.057l-.028.057h-.028v-.057zm.057 0l-.028.029.028-.029zm0 0c.029.029.029.029.029.057h-.058l.029-.057zm.029.056h-.029.029zm0 .115h-.057v-.115h.057v.115zm0 .057h-.057v-.057h.057v.057zm0 0h-.029.029zm0 0l.028.084h-.086v-.084h.058zm-.058.084h.028-.028zm.086 0v.145h-.058l-.028-.145h.086zm0 .287h-.058v-.142h.058v.142zm0 0h-.028.028zm0 .113h-.058v-.113h.058v.113zm0 0h-.028.028zm0 .057h-.058v-.057h.058v.057zm0 .029h-.029v-.029h.029v.029zm-.028 0l-.143.029v-.059l.143-.027v.057zm-.143.03h-.029v-.029h.029v.029zm-.029-.03c-.027-.057-.027-.115-.057-.172l.057-.027a.403.403 0 0 1 .057.199h-.057zm-.057-.172c0-.057-.029-.084-.057-.141h.057a.203.203 0 0 1 .057.113l-.057.028zm-.056-.14c0-.029-.029-.059-.058-.086l.058-.029c.027.029.057.057.057.115h-.057zm-.058-.086l-.058-.059.029-.057.086.086-.057.03zm-.028-.115v.027-.027zm-.029.056c-.028 0-.057-.029-.086-.029l.029-.057c.028 0 .057.029.086.029l-.029.057zm-.057-.086l-.029.029.029-.029zm-.029.057c-.028 0-.057-.027-.113-.027v-.057c.057 0 .085.027.143.027l-.03.057zm-.114-.084v.027-.027zm0 .057h-.143v-.057h.143v.057zm-.142-.057v.027-.027zm0 .057h-.172v-.057h.172v.057zm-.172-.057v.027-.027zm0 .057h-.543v-.057h.543v.057zm-.543-.057v.027-.027zm0 .057h-.029v-.057h.029v.057zm-.029-.057v.027-.027zm0 .057h-.028v-.057h.028v.057zm-.057-.057h.028v.027l-.028-.027zm.028.057h-.028l-.029-.057h.029l.028.057zm-.028 0v-.029.029zm0 0l-.029-.029v-.027l.029.056zm0 0h-.029.029zm0 0h-.057c0-.029 0-.029.027-.029l.03.029zm-.057 0h.027-.027zm.057.027h-.057v-.027h.057v.027zm-.057 0h.027-.027zm.057 0v.029l-.057-.029h.057zm-.057.029v-.029l.027.029h-.027zm.057.03h-.057v-.029h.057v.029zm-.057 0h.027-.027zm.057 1.14h-.057v-1.141h.057v1.141zm-.029.03h-.029v-.029h.028v.029zm0-.057l.457-.029v.057l-.457.029v-.057zm.457.027v-.027.027zm0-.056l.344-.027v.057l-.344.027v-.057zm.343-.028h.257v.057h-.257v-.057zm.257 0v.027-.027zm0 0h.114v.057h-.114v-.057zm.115 0v.027-.027zm0 0c.029 0 .058 0 .086.027l-.057.029h-.029v-.056zm.086.028c.029 0 .029.029.029.086h-.058c0-.029-.028-.057-.028-.057l.057-.029zm.029.086v.115l-.086-.029c0-.029.028-.057.028-.086h.058zm0 .115h-.029.029zm0 0l-.029.113h-.057v-.143l.086.03zm-.029.142h-.029v-.029h.029v.029zm-.029 0l-1.229-.029v-.086l1.229.059v.056zm-1.257-.115h.029v.029h-.029v-.029zm.057 1.17h-.057v-1.141h.057v1.141zm-.057 0h.027-.027zm5.456-2.824l.257-.059.029.059-.286.057v-.057zm.257-.059l.029.029-.029-.029zm0 0l.314-.027v.057l-.285.029-.029-.059zm.315-.027v.027-.027zm0 0c.115-.029.229-.029.342-.029v.057c-.113 0-.227.029-.342.029v-.057zm.342-.029h.371v.057h-.371v-.057zm.373 0h.143v.057h-.143v-.057zm.142 0v.029-.029zm0 0h.143v.057h-.143v-.057zm.143 0h.028l-.028.029v-.029zm.028 0c.029 0 .087 0 .144.029v.057c-.057-.029-.114-.029-.172-.029l.028-.057zm.144.086v-.029.029zm0-.057h.17l-.027.057h-.143v-.057zm.17 0l-.027.027.027-.027zm0 0c.058.027.087.027.144.057l-.028.057c-.028-.027-.086-.027-.143-.057l.027-.057zm.143.057c.058 0 .086.029.144.029l-.029.057c-.028 0-.085-.029-.143-.029l.028-.057zm.144.029c.057.027.086.057.143.084l-.029.029c-.057 0-.084-.029-.143-.057l.029-.056zm.142.084c.027.029.085.059.114.086l-.029.029c-.058-.029-.085-.057-.114-.086l.029-.029zm.085.115v-.029.029zm.029-.029c.028.029.086.057.114.086l-.058.027-.086-.084.03-.029zm.115.086l-.028.027.028-.027zm0 0a.215.215 0 0 1 .057.115l-.057.027c0-.027-.028-.057-.058-.115l.058-.027zm.056.115c.029.057.059.113.059.143l-.059.027c-.028-.057-.028-.084-.057-.143l.057-.027zm.059.142c0 .057.027.113.027.17h-.086v-.143l.059-.027zm.027.17c0 .057-.027.086-.027.143l-.059-.027v-.115h.086zm-.086.116h.029-.029zm.059.027c0 .029-.029.086-.029.115l-.058-.029c0-.027.028-.057.028-.113l.059.027zm-.029.115c-.029.057-.029.086-.058.113l-.057-.027c.028-.029.028-.059.057-.115l.058.029zm-.058.113c-.028.057-.057.086-.086.115l-.057-.029c.028-.029.057-.057.086-.113l.057.027zm-.086.116a.214.214 0 0 1-.114.113l-.029-.027c.029-.029.058-.086.087-.115l.056.029zm-.114.113v-.027.027zm0 0c-.029.029-.057.086-.113.115l-.029-.057c.029-.029.086-.059.113-.086l.029.028zm-.113.115c-.057.027-.086.057-.144.057l-.028-.057c.057 0 .086-.029.143-.057l.029.057zm-.172 0v.027-.027zm.028.057c-.057.027-.114.057-.172.086l-.028-.059c.058-.027.114-.057.172-.084l.028.057zm-.2.057v-.029l.028.029h-.028zm.057 0h-.057.057zm-.057.029v-.029h.028l-.028.029zm.028-.059h.058v.086l-.086-.027.028-.059zm.058 0v.029-.029zm0 0l.086.029-.028.057-.058-.027v-.059zm.086.03l-.028.029.028-.029zm0 0c.028 0 .057.029.086.029l-.029.057c-.028 0-.057-.029-.085-.029l.028-.057zm.086.029c.029 0 .057.027.086.027l-.029.059c-.027 0-.057-.029-.086-.029l.029-.057zm.086.027v.029-.029zm0 0c.027.029.084.029.113.059l-.029.057c-.057-.029-.084-.029-.113-.057l.029-.059zm.113.059c.028.027.058.027.086.057l-.028.057c-.029-.027-.058-.057-.087-.057l.029-.057zm.086.056l-.028.029.028-.029zm0 0c.028.029.058.057.114.057l-.057.057c-.029-.027-.058-.057-.086-.057l.029-.057zm.114.057c.028.029.058.057.058.086l-.029.057a3.467 3.467 0 0 1-.085-.086l.056-.057zm.028.143l.029-.027-.029.027zm.03-.057c.029.029.057.086.086.113l-.057.029c-.029-.029-.029-.057-.059-.086l.03-.056zm.086.113c.027.029.027.059.057.115l-.057.029c-.029-.059-.029-.086-.057-.115l.057-.029zm.056.115c.027.029.027.086.027.115l-.057.027c0-.057-.027-.086-.027-.113l.057-.029zm.028.116l-.027.027.027-.027zm0 0c.029.057.029.113.029.17h-.086v-.143l.057-.027zm.029.17c0 .027 0 .086-.029.143h-.057v-.143h.086zm-.086.142h.029-.029zm.057 0c0 .029 0 .086-.027.115l-.057-.029c.027-.027.027-.057.027-.086h.057zm-.028.115c0 .027 0 .057-.029.084h-.057c0-.057.029-.084.029-.113l.057.029zm-.086.084h.029-.029zm.057 0c-.027.059-.027.086-.057.115l-.057-.029c0-.027.029-.057.057-.086h.057zm-.113.086l.029.029-.029-.029zm.056.03a.34.34 0 0 1-.086.113l-.057-.027c.028-.029.057-.086.086-.115l.057.029zm-.086.113c-.028.059-.085.086-.114.115l-.057-.057c.057-.029.086-.059.114-.086l.057.028zm-.114.115c-.057.029-.086.057-.144.086l-.027-.029.114-.113.057.056zm-.143.086c-.057.027-.113.057-.17.084l-.029-.057c.059-.027.115-.027.172-.057l.027.03zm-.17.084c-.086.029-.144.059-.229.059v-.059a.496.496 0 0 0 .2-.057l.029.057zm-.23.059c-.085.027-.171.057-.257.057v-.057a.792.792 0 0 0 .257-.059v.059zm-.257.056h-.286v-.057h.286v.057zm-.285 0v-.029.029zm0 0h-.143v-.057h.143v.057zm-.142 0v-.029.029zm0 0h-.114v-.057h.114v.057zm-.116 0v-.029.029zm0 0h-.228l.029-.057h.199v.057zm-.228 0v-.029.029zm0 0l-.086-.029v-.057l.115.029-.029.057zm-.086-.086v.029-.029zm0 .057h-.113v-.057h.113v.057zm-.113-.057v.029-.029zm0 .057h-.144v-.057h.144v.057zm-.144-.057v.029-.029zm0 .057h-.143v-.057h.143v.057zm-.143-.057v.029-.029zm0 .057c-.028 0-.058 0-.085-.027l.057-.029h.028v.056zm-.028-.057h-.029.029zm-.057.03s-.029-.029-.029-.059h.086v.029l-.057.03zm-.029-2.856h.086v2.799h-.086V29.74zm0 0v-.115h.057c.029.029.029.059.029.115h-.086zm.057-.115h-.027.027zm-.057 0c0-.027-.029-.027-.029-.057l.029-.027c.029 0 .057.027.057.084h-.057zm-.029-.057v-.027.027zm0 0c-.027 0-.057-.027-.084-.027l.027-.057c.029 0 .057.027.086.057l-.029.027zm-.057-.084v.027-.027zm-.027.057h-.087v-.057h.114l-.027.057zm-.087 0h-.114l-.028-.057h.143v.057zm-.114 0h-.028l-.028-.029h.057v.029zm-.057-.029v-.143h.057l.028.143h-.085zm0-.17h.029v.027h-.029v-.027zm1 2.969l.028.027-.028.059h-.029l.029-.086zm.028.085h-.028l.028-.029v.029zm0-.058h.057l-.028.059h-.028v-.059zm.029.058v-.029.029zm.028-.058h.114v.086l-.143-.027.029-.059zm.114.086v-.057.057zm0-.086l.059.029v.057h-.059v-.086zm.059.086v-.027.027zm0-.057h.057v.057h-.057v-.057zm.057.057v-.027.027zm0-.057h.086v.057h-.086v-.057zm.084.057v-.027.027zm0-.057h.058v.057h-.058v-.057zm.058.057v-.027.027zm0-.057c.057 0 .143 0 .2-.029v.059c-.058.027-.144.027-.2.027v-.057zm.2-.029c.058 0 .114-.027.142-.027l.029.057c-.057 0-.113.029-.171.029v-.059zm.142-.027l.029.027-.029-.027zm0 0c.059-.029.086-.059.143-.086l.029.057c-.029.029-.086.057-.143.086l-.029-.057zm.143-.086c.029 0 .058-.029.087-.059l.057.029c-.028.029-.086.057-.114.086l-.03-.056zm.143-.03l-.028-.029.028.029zm-.057-.029l.086-.084.057.027-.086.086-.057-.029zm.086-.084c0-.059.028-.086.028-.115l.057.029c0 .027-.028.057-.028.113l-.057-.027zm.085-.086l-.028-.029.028.029zm-.056-.029c.028-.027.028-.057.028-.084h.058c0 .027 0 .057-.029.113l-.057-.029zm.028-.084v-.115h.087c0 .029 0 .086-.029.115h-.058zm0-.115v-.199h.058c0 .057.029.141.029.199h-.087zm0-.2c-.028-.057-.028-.115-.057-.143l.057-.029c.028.057.058.115.058.172h-.058zm-.057-.142c-.029-.059-.058-.086-.086-.145l.028-.027c.058.027.086.086.114.143l-.056.029zm-.086-.145h.028-.028zm0 0c-.029-.027-.087-.057-.114-.084l.027-.059a.226.226 0 0 1 .115.115l-.028.028zm-.114-.084c-.057-.029-.115-.059-.172-.059l.029-.057c.057 0 .113.029.17.057l-.027.059zm-.172-.058c-.057-.027-.114-.057-.171-.057l.028-.057c.058 0 .115.029.172.057l-.029.057zm-.171-.057v-.027.027zm0 0c-.058 0-.144-.027-.2-.027v-.059c.086 0 .143.029.229.029l-.029.057zm-.2-.027h-.229v-.059h.229v.059zm-.228 0h-.086v-.059h.086v.059zm-.086 0h-.028v-.059h.028v.059zm-.029-.059v.029-.029zm0 .059h-.029v-.059h.029v.059zm-.028-.059v.029-.029zm0 .059h-.029v-.059h.029v.059zm-.058-.059h.029v.029h-.029v-.029zm.058 1.371h-.057v-1.342h.057v1.342zm-.029.029l-.029-.029h.029v.029zm0-1.628h.058v.057h-.058v-.057zm.057.056v-.027.027zm0-.056h.057v.057h-.057v-.057zm.057.056v-.027.027zm0-.056h.229l.027.057h-.257v-.057zm.23 0c.084-.027.143-.027.228-.027v.057c-.057 0-.144 0-.2.027l-.028-.057zm.227-.028c.058-.029.115-.029.144-.057l.029.057c-.058.027-.115.027-.173.057v-.057zm.144-.056c.057-.029.113-.029.143-.059l.029.029c-.029.029-.086.057-.143.086l-.029-.056zm.142-.059l.029.029-.029-.029zm0 0c.029-.027.086-.057.113-.086l.029.029c-.029.029-.057.086-.113.115l-.029-.058zm.143-.057l-.029-.029.029.029zm-.029-.029c.029-.027.029-.086.058-.113l.058.027c-.028.029-.058.086-.086.115l-.03-.029zm.057-.113c.029-.029.029-.086.058-.143l.058.027c-.029.059-.029.086-.058.143l-.058-.027zm.058-.143l.028.027-.028-.027zm0 0v-.143h.058v.17l-.058-.027zm0-.314h.058v.172h-.058v-.172zm0 0h.028-.028zm0 0c-.028-.029-.028-.086-.058-.113l.058-.029c.028.029.028.086.058.143h-.058zm-.058-.114c-.028-.057-.058-.086-.085-.115l.057-.027a.38.38 0 0 1 .086.113l-.058.029zm-.028-.142h-.029.029zm-.057.027c-.029-.027-.057-.057-.086-.086l.029-.057a.216.216 0 0 1 .113.115l-.056.028zm-.086-.086a.217.217 0 0 0-.113-.057l.027-.057c.057 0 .086.027.115.057l-.029.057zm-.113-.056c-.058-.029-.087-.057-.144-.057v-.057c.057 0 .114.027.171.057l-.027.057zm-.144-.057c-.058 0-.114-.029-.173-.029v-.057c.059 0 .144 0 .173.029v.057zm-.172-.029h-.17v-.057h.17v.057zm-.17 0h-.114v-.057h.114v.057zm-.115 0v-.027.027zm0 0h-.058l-.028-.057h.086v.057zm-.057 0l-.028-.027.028.027zm0 0c-.028 0-.028.029-.028.029l-.058-.029c0-.027.029-.027.058-.057l.028.057zm-.029.029s-.028.027-.028.057h-.059c0-.029 0-.057.029-.086l.058.029zm-.028 1.256h-.057v-1.199h.057v1.199zm-.029.027h-.029v-.027h.029v.027zm3.4.602l-.458 1.17-.058-.029.457-1.17.059.029zm-.515 1.14h.029-.029zm.057.03s0 .027-.028.027l-.029-.057.057.03zm-.028.027l-.029-.027.029.027zm0 0c0 .029-.029.029-.057.029v-.057s.027 0 .027-.029l.03.057zm-.057.029v-.029.029zm0 0h-.057v-.057h.057v.057zm-.056 0v-.029.029zm0 0h-.057v-.057h.057v.057zm-.059 0v-.029.029zm0 0h-.086v-.057h.086v.057zm-.085 0v-.029.029zm0 0h-.086v-.057h.086v.057zm-.086 0h-.057l.057-.057v.057zm0-.056l-.028.027.028-.027zm-.057.056c0-.029-.029-.029-.029-.057h.086l-.057.057zm-.029-.056l.029-.029.057.029h-.086zm.086 0h-.028.028zm-.057-.03l1.37-3.082.058.027-1.371 3.084-.057-.029zm1.428-3.082v.027h-.028l.028-.027zm-.057.028l-.057-.17.057-.029.058.172-.058.027zm-.057-.17h.029-.029zm0-.029h.057v.029h-.057v-.029zm0 0h.029-.029zm0 0h-.029.086-.057zm-.029 0h.059-.059zm0 0c0-.029.029-.057.029-.057l.057.027v.029h-.086zm.086-.03h-.027.027zm-.057-.027c.029-.029.057-.029.057-.029l.029.057h-.029l-.057-.028zm.057-.029h.058l.028.057h-.057l-.029-.057zm.057 0v.029-.029zm0 0l.058-.029.028.059-.058.027-.028-.057zm.058-.03h.028v.029l-.028-.029zm.028 0h.114v.059l-.114.027v-.086zm.114 0v.029-.029zm0 0h.113v.059h-.113v-.059zm.116 0v.029-.029zm0 0h.086v.059h-.086v-.059zm.084 0v.029-.029zm0 0h.058l-.028.059h-.029v-.059zm.057 0c.028.029.028.059.058.059l-.058.027c-.028 0-.028-.027-.028-.027l.028-.059zm.058.059l-.029.027.029-.027zm0 0l1.342 3.254h-.057l-1.343-3.227.058-.027zm1.342 3.254h-.027.027zm0 0l-.057.027v-.027h.057zm0 0l-.027.027.027-.027zm0 0v.027h-.057l.057-.027zm0 .027h-.027.027zm0 0c0 .029 0 .059-.027.059l-.029-.029v-.029h.056zm-.057.029h.029-.029zm.029.03c0 .027-.029.027-.057.027v-.057h.027l.03.03zm-.056.027h-.058v-.057h.058v.057zm-.059 0v-.027.027zm0 0l-.057.029v-.086h.057v.057zm-.057.029v-.029.029zm0 0h-.057l-.028-.057.085-.029v.086zm-.056 0l-.028-.029.028.029zm0 0h-.086v-.057h.058l.028.057zm-.086 0v-.029.029zm0 0h-.115v-.057h.115v.057zm-.115 0v-.029.029zm0 0h-.086v-.057h.086v.057zm-.086 0v-.029.029zm0 0h-.057l.029-.057h.027v.057zm-.057 0l.029-.029-.029.029zm0 0c-.027-.029-.027-.029-.027-.057l.057-.029v.029l-.03.057zm-.027-.056l-.515-1.199h.085l.486 1.17-.056.029zm-.457-1.229l.027.029h-.027v-.029zm0 .059l-1.344.027v-.057l1.344-.029v.059zm-1.373-.03h.029v.029l-.029-.029zm.143-.257h1.114v.057h-1.114v-.057zm1.144.029l.028.029h-.058v-.029h.03zm-.058.029l-.571-1.398.058-.029.571 1.398-.058.029zm-.571-1.427l.028-.086.029.086h-.057zm.057.029l-.543 1.398-.058-.029.543-1.398.058.029zm-.572 1.398h-.058l.029-.029h.028v.029zm4.171-.314c.086 0 .143-.029.2-.029l.028.057c-.086 0-.143.029-.229.029v-.057zm.2-.029l.028.029-.028-.029zm0 0c.086 0 .144-.029.2-.029l.029.059c-.058 0-.144.027-.201.027l-.028-.057zm.23.029l-.029-.029.029.029zm-.03-.059c.057-.027.113-.057.172-.057l.027.057a.386.386 0 0 0-.17.059l-.029-.059zm.172-.056c.027-.027.085-.057.113-.084l.058.057a.652.652 0 0 0-.144.084l-.027-.057zm.114-.084c.029-.029.086-.059.115-.115l.028.057c-.028.029-.058.059-.086.115l-.057-.057zm.115-.116v.029-.029zm0 0c.028-.029.028-.057.057-.115l.057.029c-.027.057-.027.086-.085.143l-.029-.057zm.113-.086h-.027.027zm-.057-.029c.029-.027.029-.084.057-.143h.057a.381.381 0 0 1-.057.172l-.057-.029zm.057-.312h.057v.17h-.057v-.17zm0-.172h.057v.172h-.057v-.172zm0 0c-.027-.029-.027-.086-.057-.113l.057-.029c.029.057.029.086.057.143h-.057zm-.057-.114h.029-.029zm0 0c-.028-.029-.057-.086-.086-.115l.058-.027c.028.027.058.086.085.113l-.057.029zm-.085-.115l-.086-.086.029-.029a.388.388 0 0 1 .114.088l-.057.027zm-.086-.086c-.028-.029-.086-.029-.113-.057l.027-.057c.029.027.086.057.115.084l-.029.03zm-.114-.056c-.059-.029-.115-.029-.143-.057v-.057c.057.027.113.027.17.057l-.027.057zm-.142-.057c-.058 0-.115 0-.172-.029v-.057c.057 0 .114.029.172.029v.057zm-.172-.029h-.172v-.057h.172v.057zm-.172 0h-.113v-.057h.113v.057zm-.113 0v-.027.027zm0 0c-.029 0-.059 0-.059.029l-.027-.057c.027-.029.057-.029.086-.029v.057zm-.059.029h-.027l-.058-.029c0-.027.028-.027.058-.027l.027.056zm-.027 0h-.029.029zm0 0v.057h-.086c0-.029 0-.057.028-.086l.058.029zm0 2.969h-.086v-2.912h.086v2.912zm0 0c0 .027-.029.057-.029.086l-.057-.059v-.027h.086zm-.03.086l-.028-.029.028.029zm0 0c-.028 0-.057.027-.086.027v-.057s.029 0 .029-.029l.057.059zm-.085.027v-.027.027zm0 0h-.057v-.057h.057v.057zm-.057 0v-.027.027zm0 0l-.058.029v-.086h.058v.057zm-.058.029v-.029.029zm0 0h-.114l-.029-.057.144-.029v.086zm-.114 0v-.029.029zm0 0h-.113v-.057h.113v.057zm-.113 0v-.029.029zm0 0h-.086v-.057h.086v.057zm-.086 0v-.029.029zm0 0c-.029 0-.058 0-.086-.029l.057-.027h.029v.056zm-.086-.029v-.057h.057v.029l-.057.028zm0-2.883h.057v2.826h-.057V29.74zm0 0c0-.057-.029-.086-.029-.115h.058c.028.029.028.059.028.115h-.057zm.028-.115h-.028.028zm-.057 0c0-.027-.028-.027-.028-.057l.028-.027c.029 0 .058.027.058.084h-.058zm0-.084h-.028.028zm-.029.027c-.028 0-.058-.027-.085-.027l.027-.057c.029 0 .058.027.086.057l-.028.027zm-.057-.084v.027-.027zm-.028.057h-.086v-.057h.113l-.027.057zm-.086 0h-.114v-.057h.114v.057zm-.114 0h-.028v-.029h.028v.029zm-.028-.029l-.029-.143h.058l.028.143h-.057zm-.03-.17h.029v.027h-.029v-.027zm.03 0c.086-.029.199-.059.313-.059v.059c-.114.027-.2.027-.313.057v-.057zm.313-.059c.086-.027.2-.027.313-.027v.057c-.113 0-.228.029-.313.029v-.059zm.314-.027v.027-.027zm0 0c.115-.029.201-.029.315-.029v.057c-.086 0-.2 0-.315.029v-.057zm.315-.029h.343v.057h-.343v-.057zm.343 0h.143v.057h-.143v-.057zm.143 0v.029-.029zm0 0h.171v.057h-.171v-.057zm.171 0v.029-.029zm0 0c.057 0 .113 0 .171.029l-.028.057c-.057-.029-.086-.029-.143-.029v-.057zm.171.029l-.028.027.028-.027zm0 0h.144v.086c-.058-.029-.115-.029-.172-.029l.028-.057zm.144.086v-.059.059zm0-.086c.057.027.113.027.143.057v.057c-.057-.027-.114-.027-.143-.027v-.087zm.142.057c.057 0 .113.029.143.029v.057c-.057 0-.115-.029-.143-.029v-.057zm.143.029a.642.642 0 0 1 .143.084l-.028.059c-.028-.029-.086-.059-.114-.086v-.057zm.143.084c.058.029.086.059.115.086l-.029.029a.212.212 0 0 0-.114-.057l.028-.058zm.115.086v.029-.029zm0 0a.368.368 0 0 1 .113.086l-.057.057a.368.368 0 0 0-.086-.113l.03-.03zm.113.086c.029.057.057.086.057.143h-.057c0-.027-.027-.057-.057-.086l.057-.057zm.057.142a.218.218 0 0 1 .058.143h-.058c-.027-.057-.027-.084-.057-.143h.057zm.057.143h-.028.028zm0 0c0 .029.028.086.028.143h-.085v-.143h.057zm.029.142c0 .086 0 .143-.028.201l-.058-.029v-.172h.086zm-.029.202c0 .057-.028.084-.028.143l-.086-.029a.218.218 0 0 0 .057-.143l.057.029zm-.114.113l.029.029-.029-.029zm.086.029c-.029.057-.057.084-.086.143l-.057-.029c.029-.057.057-.086.057-.143l.086.029zm-.086.143c-.027.027-.057.086-.086.113l-.057-.027c.029-.059.057-.086.086-.115l.057.029zm-.086.113c-.057.029-.085.086-.113.115l-.058-.057c.028-.029.086-.059.114-.086l.057.028zm-.171.059l.028.027-.028-.027zm.058.056a.629.629 0 0 0-.144.084l-.028-.057c.028-.027.086-.057.114-.084l.058.057zm-.172.028v.029-.029zm.028.056c-.058.029-.114.029-.144.059l-.027-.059c.027-.027.086-.027.143-.057l.028.057zm-.143.059c-.057.027-.113.057-.17.057l-.029-.057a.389.389 0 0 0 .172-.059l.027.059zm-.199.027v-.027l.029.027h-.029zm.057.029h-.058v-.029h.058v.029zm-.028.03h-.029v-.029h.029v.029zm0-.059h.086l-.029.086c-.028-.027-.057-.027-.057-.027v-.059zm.086 0c.027.029.057.029.084.029l-.027.057h-.086l.029-.086zm.056.086l.027-.027-.027.027zm.028-.057c.029.029.059.029.086.057l-.027.059c-.029-.029-.059-.029-.086-.059l.027-.057zm.058.116l.027-.029-.027.029zm.028-.059c.029 0 .058.029.086.029l-.028.057c-.028 0-.058-.027-.085-.027l.027-.059zm.086.029v.029-.029zm0 0l.086.086-.028.027c-.028 0-.058-.027-.086-.057l.028-.056zm.086.086c.029.027.058.057.086.086l-.057.027c-.029-.027-.058-.057-.058-.086l.029-.027zm.086.086c.029.027.029.057.057.084l-.057.029c-.028-.029-.028-.057-.057-.086l.057-.027zm.056.084c.029.029.029.086.059.115l-.059.029c-.027-.059-.027-.086-.057-.115l.057-.029zm0 .145h.029-.029zm.059-.03l.228.656-.058.029-.229-.656.059-.029zm.227.657h-.028.028zm0 0c0 .029.028.086.028.113l-.057.029c0-.029-.029-.086-.029-.143h.058zm.029.113c.029.029.029.059.058.086l-.058.029c-.028-.029-.028-.057-.057-.086l.057-.029zm.057.086l-.028.029.028-.029zm0 0c0 .029.028.059.028.059l-.057.057c-.029-.029-.029-.057-.029-.086l.058-.03zm.029.059l-.028.027.028-.027zm0 0c0 .027.029.057.029.057l-.029.057-.057-.057.057-.057zm0 .113v-.027.027zm.029-.057c.028 0 .028.029.057.029l-.057.057-.029-.029.029-.057zm.056.029l-.028.027.028-.027zm0 0l.029.027-.029.057s-.028-.027-.057-.027l.057-.057zm.03.028v.029-.029zm0 0h.057v.057h-.086l.029-.057zm.056 0v.029-.029zm0 0h.086v.057h-.086v-.057zm.085 0h.028v.029h-.028v-.029zm.029.029v.143h-.057l-.029-.143h.086zm0 .17h-.028v-.027h.028v.027zm-.029 0h-.029v-.057h.029v.057zm-.028 0c-.029.029-.057.029-.086.029l-.027-.057c.027 0 .084 0 .113-.029v.057zm-.086.029h-.085v-.057h.058l.027.057zm-.085 0v-.029.029zm0 0l-.058.029v-.086h.058v.057zm-.057.03v-.059.059zm0 0h-.114l-.028-.059.143-.027v.086zm-.115 0v-.029.029zm0 0h-.058v-.059h.058v.059zm-.057 0v-.029.029zm0 0h-.028v-.059h.028v.059zm-.029 0v-.029.029zm0 0h-.114l.029-.059h.085v.059zm-.085-.059v.029-.029zm-.029.059c-.027 0-.057 0-.086-.029l.029-.057c.029 0 .057.027.086.027l-.029.059zm-.086-.03c-.027 0-.027 0-.057-.029l.029-.057c.027.029.027.029.057.029l-.029.057zm-.056-.029v-.027.027zm0 0c-.028 0-.057-.027-.086-.057l.058-.029s.028.029.058.029l-.03.057zm-.086-.057h.029-.029zm0 0c-.028 0-.028-.029-.057-.057l.057-.029.058.057-.058.029zm-.057-.056c-.029-.029-.029-.057-.058-.086l.058-.027c.028.027.028.057.057.084l-.057.029zm-.058-.086h.028-.028zm0 0c0-.027-.028-.057-.028-.086l.057-.027c0 .027.029.057.029.086l-.058.027zm.029-.113h-.029.029zm-.057.027c-.029-.027-.029-.086-.057-.113l.057-.029c.028.029.028.086.057.115l-.057.027zm0-.143h-.029.029zm-.057.03l-.2-.686.058-.027.199.684-.057.029zm-.2-.686l.028-.027-.028.027zm0 0c-.028-.057-.028-.113-.058-.143l.058-.029c.028.059.028.086.058.145l-.058.027zm-.057-.143c-.028-.029-.028-.057-.057-.086l.057-.057c.029.027.029.086.058.113l-.058.03zm-.057-.085l.028-.029-.028.029zm0 0c-.029-.029-.058-.057-.058-.086l.028-.027c.029 0 .058.027.086.057l-.056.056zm-.029-.114h-.028.028zm-.029.028c-.028-.027-.058-.027-.085-.057l.027-.057c.029.027.058.057.086.086l-.028.028zm-.057-.114l-.027.027.027-.027zm-.028.057c-.029 0-.059-.029-.115-.029l.029-.057c.027 0 .086.029.113.029l-.027.057zm-.086-.086v.029-.029zm-.029.057c-.027 0-.057-.027-.113-.027v-.057c.057 0 .113.027.143.027l-.03.057zm-.113-.084v.027-.027zm0 .056h-.144v-.057h.144v.057zm-.144 0c-.058 0-.114 0-.171-.029v-.057c.057 0 .113.029.171.029v.057zm-.171-.029h-.029l.029-.027v.027zm-.029 0l-.027-.172h.057l.027.145-.057.027zm-.027-.199h.028v.027h-.028v-.027zm7.882-.086l.486-.229.029.029-.486.256-.029-.056zm.486-.229v-.029l.029.029h-.029zm.03 0a.346.346 0 0 1 .143.143l-.057.029-.145-.143.059-.029zm.142.143c.029.057.086.113.115.172l-.086.027c0-.057-.057-.113-.086-.17l.057-.029zm.115.172c0 .057.027.113.057.199h-.086a.397.397 0 0 0-.057-.172l.086-.027zm-.029.199h.029-.029zm.086 0v.172h-.057c0-.057 0-.115-.029-.172h.086zm0 .172c0 .086 0 .143-.029.229h-.057c.029-.086.029-.172.029-.229h.057zm-.029.228c0 .086-.027.143-.057.227l-.086-.027c.059-.086.086-.143.086-.199h.057zm-.057.227c-.057.059-.086.115-.143.174l-.059-.029a.54.54 0 0 0 .115-.172l.087.027zm-.142.174a.518.518 0 0 1-.145.199l-.057-.059c.057-.057.115-.113.143-.17l.059.03zm-.202.199l-.027-.029.027-.029.029.029-.029.029zm.057-.059l.115.115-.057.027-.115-.084.057-.058zm.059.143h.027-.027zm.056-.027l.115.113-.029.029-.143-.115.057-.027zm.116.113l.143.115-.029.029-.143-.115.029-.029zm.142.115h-.029.029zm0 0l.143.113-.057.029-.115-.113.029-.029zm.143.113l-.029.029.029-.029zm0 0s.027 0 .027.029l-.057.027s0-.027-.027-.027l.057-.029zm.027.03h-.027.027zm0 0v.027h-.057l.057-.027zm0 .027v.029l-.057-.029h.057zm-.057 0l.029.029-.029-.029zm.057.029c0 .029-.027.029-.027.029l-.029-.059.056.03zm-.027.03l-.029-.029.029.029zm0 0l-.029.027-.027-.057.027-.029.029.059zm-.03.027v-.027.027zm0 0h-.027l-.029-.057h.029l.027.057zm-.027 0v-.027.027zm0 0c-.059 0-.115.029-.143.029l-.029-.057c.057 0 .113-.029.143-.029l.029.057zm-.143.029h-.143v-.057h.113l.03.057zm-.142 0v-.029.029zm0 0l-.115.029v-.086h.115v.057zm-.115.03v-.029.029zm0 0h-.059v-.059l.059-.027v.086zm-.059 0v-.029.029zm0 0h-.027v-.086l.027.027v.059zm-.027 0v-.029.029zm0 0c-.029 0-.029-.029-.029-.029v-.057h.029v.086zm-.03-.086v.027-.027zm0 .056h-.057l.029-.057h.027v.057zm-.056 0l-.027-.029.027-.057.029.029-.029.057zm0-.086v.029-.029zm-.028.057l-.143-.113.027-.057.143.113-.027.057zm-.142-.113l-.145-.113.029-.059.143.115-.027.057zm-.145-.172v-.027l.029.027-.029.029v-.029zm.03.058c-.029.027-.086.027-.115.057l-.027-.057c.027-.029.057-.029.113-.059l.029.059zm-.143 0v.027-.027zm.027.057c-.057.027-.086.057-.143.057l-.027-.057c.057 0 .084-.029.143-.057l.027.057zm-.142.057v-.03.03zm0 0a.219.219 0 0 1-.143.057v-.057a.222.222 0 0 0 .115-.057l.028.057zm-.143 0v.027-.027zm0 .056c-.027.029-.086.029-.143.057v-.057c.027-.029.086-.029.143-.057v.057zm-.142.057c-.057 0-.086.029-.143.029l-.029-.057c.057 0 .115-.029.172-.029v.057zm-.143.029c-.057 0-.113.029-.172.029v-.059c.059 0 .086-.027.143-.027l.029.057zm-.172-.029v.029-.029zm0 .059h-.171v-.059h.171v.059zm-.171 0v-.029.029zm0 0c-.057.027-.086.027-.143.027v-.057c.057 0 .113-.029.143-.029v.059zm-.143.027c-.086 0-.171 0-.257-.027l.028-.059c.058 0 .143.029.229.029v.057zm-.257-.027c-.058 0-.144-.029-.2-.029v-.057c.086 0 .143.027.229.027l-.029.059zm-.2-.03a.862.862 0 0 0-.229-.057l.028-.059a.5.5 0 0 1 .2.059v.057zm-.228-.056l.028-.029-.028.029zm0 0c-.058-.029-.114-.086-.172-.115l.029-.057a.562.562 0 0 0 .171.113l-.028.059zm-.172-.116l.029-.027-.029.027zm0 0c-.057-.027-.113-.084-.143-.113l.029-.057a.472.472 0 0 0 .143.113l-.029.057zm-.143-.113c-.057-.057-.085-.115-.143-.172l.058-.029c.058.059.085.115.114.145l-.029.056zm-.085-.201l-.029.029.029-.029zm-.057.029c-.028-.057-.058-.113-.058-.172l.058-.027c.028.057.028.113.058.17l-.058.029zm-.058-.172c-.028-.084-.028-.141-.028-.227h.058c0 .057.028.143.028.199l-.058.028zm-.028-.226c0-.115.028-.229.058-.314l.057.029c-.028.084-.057.17-.057.285h-.058zm.057-.315c.028-.057.028-.086.057-.115l.058.029c-.028.029-.028.057-.058.115l-.057-.029zm.057-.115h.029-.029zm0 0c.029-.057.058-.086.087-.143l.057.057a.423.423 0 0 0-.086.115l-.058-.029zm.087-.142l.027.029-.027-.029zm0 0c.057-.027.084-.057.113-.086l.057.029c-.027.029-.086.086-.113.113l-.057-.056zm.113-.086h.029-.029zm0 0c.057-.027.086-.084.143-.113l.028.057c-.028.029-.085.057-.114.086l-.057-.03zm.143-.114l.144-.086.028.057-.144.086-.028-.057zm.143-.086v.029-.029zm0 0l.144-.115.027.059-.143.113-.028-.057zm.201-.085l-.029.029v-.029h.029zm-.057.029c-.059-.086-.115-.143-.144-.199l.058-.029c.027.057.086.113.143.199l-.057.029zm-.144-.199c-.058-.086-.086-.145-.115-.201l.086-.029c0 .059.029.115.087.201l-.058.029zm-.115-.202c0-.057-.028-.113-.057-.172l.086-.027c0 .057.028.113.057.17l-.086.029zm-.057-.171v-.199h.057c0 .057 0 .115.029.172l-.086.027zm0-.2c0-.057 0-.143.028-.199h.058c-.029.057-.029.143-.029.199h-.057zm.029-.199a.39.39 0 0 1 .058-.199l.057.027c-.028.059-.057.115-.057.172h-.058zm.114-.172h-.028.028zm-.057-.027c.028-.059.086-.115.114-.145l.057.029a.647.647 0 0 0-.114.143l-.057-.027zm.171-.115l-.027-.029.027.029zm-.056-.03c.057-.057.086-.113.143-.143l.057.059c-.057.027-.113.057-.143.113l-.057-.029zm.142-.142l.029.029-.029-.029zm0 0c.057-.027.113-.057.171-.084l.029.057a.58.58 0 0 0-.144.086l-.056-.059zm.171-.084c.086-.029.144-.059.2-.059l.029.059c-.058 0-.114.027-.2.057l-.029-.057zm.2-.059c.086-.027.143-.057.229-.057v.057c-.057.029-.143.029-.199.059l-.03-.059zm.229-.056h.201v.057h-.201v-.057zm.201 0h.143v.057h-.143v-.057zm.142 0v.029-.029zm0 0h.143v.086c-.057-.029-.115-.029-.143-.029v-.057zm.143 0v.029-.029zm0 0c.057.029.115.029.172.029l-.029.086c-.057-.029-.086-.029-.143-.029v-.086zm.172.029c.029.027.086.027.143.057l-.029.057c-.057-.027-.084-.027-.143-.027l.029-.087zm.113.113v-.027.027zm.029-.056c.086.029.17.086.229.143l-.059.057c-.057-.057-.113-.113-.199-.143l.029-.057zm.229.142v.029h-.03l.03-.029zm0 .029a.38.38 0 0 1 .086.113h-.057l-.088-.086.059-.027zm.029.114h.027-.027zm.057 0c0 .027.029.086.029.143h-.086v-.143h.057zm.029.142c0 .059-.029.086-.029.143l-.057-.027v-.116h.086zm-.029.143c-.029.029-.057.086-.115.113l-.029-.057.088-.084.056.028zm-.145.056l.029.029-.029-.029zm.059.057c-.059 0-.086.029-.143.059l-.029-.086c.057 0 .086-.029.113-.029l.059.056zm-.172-.027l.029.027-.029-.027zm.029.086h-.172v-.059c.057 0 .113 0 .143-.027l.029.086zm-.172 0h-.143l.029-.059h.113v.059zm-.142 0h-.029v-.029h.029v.029zm-.03-.116h.086v.086h-.086v-.086zm0 0c0-.084 0-.141-.029-.17l.088-.029c0 .059.027.115.027.199h-.086zm.059-.199h-.059.059zm-.088.03a.22.22 0 0 0-.057-.145l.057-.027c.029.027.059.086.088.143l-.088.029zm-.057-.145c-.027-.027-.086-.057-.113-.084l.027-.057c.059.027.086.057.143.113l-.057.028zm-.113-.084c-.057-.029-.113-.029-.199-.029v-.057c.086 0 .143 0 .227.029l-.028.057zm-.199-.029h-.115v-.057h.115v.057zm-.115 0v-.027.027zm0 0c-.029.029-.059.029-.086.029l-.029-.057c.029 0 .057-.029.115-.029v.057zm-.086.029c-.029.027-.057.027-.086.057l-.057-.057c.029-.029.086-.029.113-.057l.03.057zm-.086.057c-.027.027-.057.027-.086.057l-.028-.029c0-.027.028-.057.058-.084l.056.056zm-.086.056c0 .029-.028.059-.057.086l-.058-.027.086-.088.029.029zm-.056.086l-.028-.027.028.027zm0 0c0 .029-.028.059-.028.086l-.058-.027c0-.029.028-.059.028-.086l.058.027zm-.029.086l-.029-.027.029.027zm0 0c0 .029-.029.057-.029.086h-.057c0-.029 0-.086.028-.113l.058.027zm-.086.086h.028-.028zm.057 0v.113h-.086c0-.029.029-.086.029-.113h.057zm0 .113v.115h-.057c0-.029-.029-.086-.029-.115h.086zm-.057.116h.028-.028zm.057 0c0 .027 0 .057.029.113h-.057c-.028-.027-.028-.086-.028-.113h.056zm.029.113h-.029.029zm0 0c0 .029.028.057.028.086l-.058.029c-.028-.029-.028-.086-.028-.115h.058zm.029.086c.028.057.057.086.057.113l-.057.029c0-.029-.028-.057-.058-.113l.058-.029zm.056.113l-.028.029.028-.029zm0 0c.029.059.059.086.086.145l-.057.027c-.029-.057-.058-.086-.086-.143l.057-.029zm.086.145c.029.027.086.086.113.113l-.057.057c-.027-.057-.057-.113-.113-.143l.057-.027zm.057.17l.029-.027-.029.027zm.057-.057a.36.36 0 0 0 .144.143l-.057.057c-.058-.057-.087-.113-.144-.143l.057-.057zm.143.143c.03.057.086.115.143.172l-.027.029c-.086-.059-.116-.115-.172-.145l.056-.056zm.143.171h-.027.027zm0 0c.057.057.113.113.199.172l-.057.027-.17-.17.028-.029zm.199.172c.057.057.145.143.23.199l-.059.029a1.526 1.526 0 0 1-.229-.201l.058-.027zm.231.199l.256.229-.057.027-.258-.227.059-.029zm.199.256l.027-.027-.027.027zm.057-.027l.285.229-.057.057-.285-.258.057-.028zm.285.285l-.027.029-.029-.029.029-.027.027.027zm-.057-.027c.057-.086.086-.145.115-.201h.057a.848.848 0 0 1-.115.229l-.057-.028zm.115-.201h.027-.027zm0 0c.027-.086.027-.143.027-.199h.057c0 .057 0 .143-.027.199h-.057zm.028-.2a.528.528 0 0 0-.086-.285l.059-.029a.574.574 0 0 1 .084.314h-.057zm-.086-.285c-.057-.115-.143-.201-.258-.314l.029-.059c.145.115.229.23.287.344l-.058.029zm-.258-.314h-.027l.027-.029h.029l-.029.029zm0-.059h.059v.029h-.059v-.029zm0 0v-.027l.029.027h-.029zm-.17 1.401c-.172-.143-.314-.258-.43-.371l.059-.029c.113.115.258.229.398.342l-.027.058zm-.43-.371a1.852 1.852 0 0 1-.341-.314l.028-.027c.114.084.229.197.372.313l-.059.028zm-.341-.315c-.115-.086-.199-.172-.286-.258l.028-.027c.086.057.199.172.286.258l-.028.027zm-.286-.258v-.027.027zm0 0c-.114-.084-.172-.17-.257-.256l.057-.029c.086.086.144.172.229.258l-.029.027zm-.257-.285l.027-.027.029.027-.029.029-.027-.029zm.057.029a.472.472 0 0 0-.113.143l-.057-.057c.027-.029.084-.086.113-.115l.057.029zm-.17.086l.027.027-.027-.027zm.057.057c-.057.029-.086.086-.086.113l-.057-.027c0-.029.057-.086.086-.143l.057.057zm-.086.113c-.029.059-.057.086-.057.145h-.058c0-.059.028-.115.058-.172l.057.027zm-.115.145h.028-.028zm.058 0v.17h-.087c0-.084 0-.143.029-.17h.058zm0 .17v.172h-.058c-.029-.059-.029-.115-.029-.172h.087zm0 .172a.44.44 0 0 0 .057.143l-.057.029a.404.404 0 0 1-.058-.172h.058zm.057.142c0 .057.029.086.057.143l-.057.029c-.029-.059-.057-.086-.057-.143l.057-.029zm.056.143c.029.029.057.057.113.086l-.057.057a3.01 3.01 0 0 0-.113-.113l.057-.03zm.057.142l.029-.029-.029.029zm.056-.056a.219.219 0 0 0 .115.113l-.028.029c-.058-.029-.087-.057-.144-.086l.057-.056zm.116.113c.058 0 .086.029.143.059l-.028.057c-.057-.029-.114-.057-.143-.086l.028-.03zm.142.059v.027-.027zm0 0a.388.388 0 0 0 .172.027l-.029.059c-.057 0-.113 0-.171-.029l.028-.057zm.172.027c.057.029.114.029.171.029v.057c-.057 0-.114 0-.2-.027l.029-.059zm.171.029c.057 0 .116 0 .172-.029l.027.086h-.2v-.057zm.172-.029v.029-.029zm0 0c.057 0 .113 0 .17-.027l.029.057c-.057.029-.115.029-.172.057l-.027-.087zm.17-.027l.029.027-.029-.027zm0 0a.393.393 0 0 0 .172-.059l.029.059c-.057.027-.115.057-.172.057l-.029-.057zm.172-.059l.029.029-.029-.029zm0 0l.172-.086.027.059c-.057.027-.113.057-.17.086l-.029-.059zm.199-.086l.029.029-.029.029-.027-.029.027-.029zm5.715 0l.029.059h-.086v-.059h.057zm-.056.059h.027-.027zm.086.027h-.086v-.027h.086v.027zm-.086 0h.027-.027zm.086 0v.029l-.059.029c0-.029-.027-.029-.027-.059h.086zm-.059.059l.029-.029-.029.029zm.059-.03v.029l-.029.027c-.029 0-.029-.027-.029-.027l.058-.029zm0 .03h-.029.029zm0 0h.027l-.027.057c-.029 0-.029-.029-.059-.029l.059-.028zm.027 0l-.027.027.027-.027zm0 0h.029l-.029.057h-.027l.027-.057zm.029.056h-.029l.029-.029v.029zm0-.056h.057l-.029.057h-.027v-.057zm.057.056h-.029l.029-.029v.029zm0-.056h.057v.086l-.057-.029v-.057zm.057.085v-.059.059zm0-.085h.314v.086h-.314v-.086zm.314 0h.199v.057c-.057.029-.143.029-.199.029v-.086zm.199 0h.172v.057h-.172v-.057zm.172 0v.027-.027zm0 0c.059 0 .086 0 .145-.029l.027.057c-.057.029-.113.029-.172.029v-.057zm.145-.03c.027 0 .084-.029.113-.029l.027.059c-.027 0-.084.027-.113.027l-.027-.057zm.113-.029v.029-.029zm0 0l.086-.086.057.059c-.029.027-.086.057-.115.086l-.028-.059zm.086-.086l.086-.084.057.027c-.029.029-.057.086-.086.115l-.057-.058zm.086-.084c.027-.059.057-.086.086-.143l.057.027c-.029.057-.057.086-.086.143l-.057-.027zm.086-.143c.027-.057.057-.143.086-.201l.057.029c-.029.057-.057.143-.086.199l-.057-.027zm.086-.201l.027-.029v.029h-.027zm.027-.029l.172.029-.029.086-.143-.027v-.088zm.172.029l.027.029v.029h-.056l.029-.058zm.027.059s-.027.027-.027.086h-.059v-.086h.086zm-.086.086h.029-.029zm.059 0c0 .057-.029.084-.029.141h-.057c0-.057.027-.084.027-.141h.059zm-.086.14h.027-.027zm.057 0v.059h-.086l.029-.059h.057zm0 .059h-.03.03zm0 0l-.029.113h-.057v-.113h.086zm-.03.113h-.027.027zm0 0l-.027.115h-.057l.027-.115h.057zm-.027.116h-.029.029zm0 0l-.029.113-.057-.027.029-.086h.057zm-.029.113l-.027-.027.027.027zm0 0l-.027.086h-.057l.027-.113.057.027zm-.028.086h-.029.029zm0 0c-.029.057-.029.086-.057.086l-.059-.029c.029-.029.029-.057.059-.057h.057zm-.056.086c-.029.027-.086.027-.115.027v-.057h.057l.058.03zm-.116.027v-.027.027zm0 0h-.572v-.057h.572v.057zm-.572-.057v.029-.029zm0 .057h-.371v-.057h.371v.057zm-.371 0h-.428v-.057h.428v.057zm-.428 0h-.513v-.057h.514v.057zm-.513 0h-.059l.029-.057h.029v.057zm-.059 0l.029-.027-.029.027zm0 0c0-.027-.027-.027-.027-.027l.057-.029-.03.056zm.029-.057h-.029.029zm-.056.03v-.029l.057-.029v.029l-.057.029zm0-.03l.027-.029-.027.029zm0 0c0-.029-.029-.029-.029-.057h.086v.027l-.057.03zm-.03-2.796h.086v2.74h-.086v-2.74zm0-.057h.086v.057h-.086v-.057zm0 0h.057-.057zm0 0v-.059l.057-.029c0 .029.029.059.029.088h-.086zm.057-.088l-.027.029.027-.029zm-.057.029s0-.029-.029-.029l.059-.027c.027 0 .027.027.027.027l-.057.029zm.03-.056h-.029.029zm-.059.027v-.027l.029-.057c.029.027.029.027.029.057l-.058.027zm0-.027v-.029.029zm0 0l-.027-.029.027-.057.029.029-.029.057zm0-.086l-.027.029.027-.029zm-.027.056h-.059l.029-.057h.057l-.027.057zm-.03-.056v.029-.029zm-.029.056l-.027-.027v-.057c.027 0 .057 0 .057.027l-.03.057zm-.027-.084v.027-.027zm0 .057h-.057v-.057h.057v.057zm-.057-.057v.027-.027zm0 .057h-.057v-.057h.057v.057zm-.058-.057v.027-.027zm0 .057l-.057.027v-.084h.057v.057zm-.057.027h-.029v-.029h.029v.029zm-.027-.027l-.029-.172h.057l.029.143-.057.029zm-.03-.199h.029v.027h-.029v-.027zm.03 0l.143-.029.027.057-.17.029v-.057zm.142-.029l.027.029-.027-.029zm0 0l.17-.029v.059l-.143.027-.027-.057zm.17-.03v.029-.029zm0 0h.145v.059h-.145v-.059zm.145 0v.029-.029zm0 0l.113-.027v.057l-.113.029v-.059zm.113-.027v.027-.027zm0 0h.172l.027.057h-.199v-.057zm.172 0l.086-.029v.086h-.059l-.027-.057zm.086-.029v.029-.029zm0 0h.027v.057l-.027.029v-.086zm.027 0v.029-.029zm0 0c.029 0 .086.029.086.029l-.027.057c-.029 0-.029-.029-.059-.029v-.057zm.086.029c.029.027.059.057.059.113h-.086v-.057l.027-.056zm.059 2.91h-.086v-2.797h.086v2.797zm-.086 0h.027-.027zm4.312-2.939c.115 0 .258 0 .371.029v.057c-.113-.029-.256-.029-.371-.029v-.057zm.371.029a.74.74 0 0 1 .344.086l-.029.057a.646.646 0 0 0-.314-.086v-.057zm.344.086c.086.027.199.084.285.113l-.027.057c-.086-.057-.201-.086-.287-.113l.029-.057zm.285.113c.086.057.172.143.258.199l-.057.059a.747.747 0 0 0-.229-.201l.028-.057zm.201.258l.027-.029-.027.029zm.057-.059c.086.086.143.172.199.258l-.057.027c-.057-.084-.115-.17-.199-.227l.057-.058zm.199.258c.059.084.115.17.143.285l-.057.029c-.027-.115-.086-.201-.143-.287l.057-.027zm.143.285h-.027.027zm0 0a.654.654 0 0 1 .086.342h-.057c-.029-.113-.057-.229-.086-.313l.057-.029zm.086.342c.029.115.029.229.029.371h-.057c0-.143 0-.256-.029-.371h.057zm.029.371c0 .145 0 .287-.029.4h-.057c.029-.143.029-.256.029-.4h.057zm-.029.401c0 .143-.057.258-.086.371l-.057-.029.086-.342h.057zm-.086.371c-.057.115-.113.201-.17.314l-.059-.057c.059-.086.115-.172.172-.287l.057.03zm-.17.314c-.059.086-.145.17-.229.256l-.059-.057c.086-.086.172-.143.229-.256l.059.057zm-.229.256c-.086.059-.172.145-.287.201l-.027-.057c.086-.059.199-.115.256-.201l.058.057zm-.314.144l.027.027-.027-.027zm.027.057c-.086.057-.199.084-.313.143l-.029-.059c.113-.057.229-.084.314-.141l.028.057zm-.312.143c-.115.027-.258.057-.373.086l-.027-.059c.143-.027.256-.057.371-.086l.029.059zm-.373.086c-.143.027-.285.027-.428.027v-.057c.143 0 .285-.029.4-.029l.028.059zm-.428.027c-.115 0-.258 0-.371-.027v-.059c.113 0 .256.029.371.029v.057zm-.371-.027c-.115-.029-.229-.059-.344-.086l.029-.059c.113.029.199.059.314.086v.059zm-.344-.086c-.113-.059-.199-.086-.285-.143l.027-.057c.086.057.172.084.287.141l-.029.059zm-.285-.143c-.113-.057-.199-.143-.258-.201l.059-.057c.057.086.143.143.227.201l-.028.057zm-.258-.201a1.481 1.481 0 0 1-.199-.256l.057-.029a.764.764 0 0 0 .201.229l-.059.056zm-.199-.256c-.057-.086-.115-.172-.143-.287l.057-.027a.877.877 0 0 0 .143.285l-.057.029zm-.143-.287a1.602 1.602 0 0 1-.115-.342h.086c0 .115.029.201.086.314l-.057.028zm-.029-.342h-.027.027zm-.086 0c0-.113-.027-.256-.027-.371h.086c0 .115 0 .258.027.371h-.086zm-.027-.371c0-.143.027-.285.057-.428l.057.029c-.027.113-.027.256-.027.398h-.087zm.056-.428c0-.115.057-.229.086-.342l.057.027a2.889 2.889 0 0 0-.086.344l-.057-.029zm.086-.341c.057-.115.113-.23.17-.314l.059.027c-.059.115-.115.201-.172.314l-.057-.027zm.17-.315c.059-.086.145-.172.23-.258l.027.059a1.637 1.637 0 0 0-.199.227l-.058-.028zm.231-.258c.086-.057.17-.143.285-.199l.027.057a.999.999 0 0 0-.285.201l-.027-.059zm.285-.199c.086-.029.199-.086.314-.113l.027.057a1.015 1.015 0 0 0-.314.113l-.027-.057zm.342-.057v-.029.029zm-.028-.056a.845.845 0 0 1 .371-.086l.029.057a.795.795 0 0 0-.373.086l-.027-.057zm.401-.029l-.029-.029.029.029zm-.03-.057c.143-.029.285-.029.428-.029v.057c-.143 0-.285 0-.398.029l-.03-.057zm.256.256c-.084 0-.17 0-.256.029v-.057c.086-.029.172-.029.256-.029v.057zm-.256-.028v.027-.027zm0 .057c-.086.027-.143.027-.229.084l-.029-.057.258-.084v.057zm-.228.084c-.059.029-.115.088-.172.115l-.057-.027a.886.886 0 0 1 .199-.145l.03.057zm-.172.115c-.057.059-.113.115-.143.172l-.057-.029c.027-.057.086-.143.143-.17l.057.027zm-.143.172l-.029-.029.029.029zm0 0a.461.461 0 0 0-.115.199l-.086-.029c.059-.057.086-.143.145-.199l.056.029zm-.115.199c-.057.057-.057.143-.086.229l-.057-.029c0-.084.029-.143.057-.229l.086.029zm-.086.229c-.027.086-.027.172-.057.258l-.057-.029c0-.086.029-.172.057-.258l.057.029zm-.113.228h.029-.029zm.057 0v.256h-.084c0-.084 0-.17.027-.256h.057zm0 .256v.314h-.057c-.027-.113-.027-.199-.027-.314h.084zm0 .315c.029.086.029.172.057.287h-.057a1.082 1.082 0 0 1-.057-.287h.057zm.056.287c.029.086.059.17.086.256l-.057.027c-.029-.084-.086-.17-.086-.283h.057zm.086.256c.029.086.086.172.115.229l-.057.029c-.029-.057-.086-.143-.115-.23l.057-.028zm.115.228c.057.086.115.143.172.199l-.057.057c-.059-.057-.115-.143-.172-.227l.057-.029zm.172.199c.057.057.143.115.199.172l-.029.057c-.086-.057-.143-.113-.227-.172l.057-.057zm.2.172l.258.086v.057c-.115-.027-.201-.057-.287-.086l.029-.057zm.257.086c.086.029.199.029.314.029v.084a.977.977 0 0 1-.314-.057v-.056zm.315.029c.086 0 .172 0 .256-.029l.029.086c-.086 0-.199.027-.285.027v-.084zm.256-.029c.086 0 .143-.029.229-.086l.029.057a.82.82 0 0 1-.229.115l-.029-.086zm.228-.086v.029-.029zm0 0a.569.569 0 0 0 .172-.115l.057.029c-.057.057-.113.115-.199.143l-.03-.057zm.172-.115l.172-.17.057.027c-.057.059-.115.143-.172.172l-.057-.029zm.172-.17c.027-.057.057-.143.113-.199l.059.027c-.029.059-.086.143-.115.199l-.057-.027zm.113-.199c.029-.088.059-.145.059-.229h.086c-.029.084-.059.17-.086.256l-.059-.027zm.059-.229c.027-.086.057-.172.057-.258h.057c0 .086-.027.172-.027.258h-.087zm.056-.257c0-.086.029-.172.029-.256h.057c0 .084 0 .17-.029.256h-.057zm.03-.256c0-.086-.029-.201-.029-.287h.057c.029.086.029.201.029.287h-.057zm-.03-.287h.029-.029zm0 0c0-.084-.029-.199-.057-.285h.057a.839.839 0 0 1 .057.285h-.057zm-.056-.286c-.029-.086-.059-.172-.086-.256l.057-.029a.485.485 0 0 1 .086.285h-.057zm-.086-.255c-.029-.086-.086-.172-.115-.23l.057-.027c.029.057.086.143.115.229l-.057.028zm-.059-.258h-.027.027zm-.056.027a1.233 1.233 0 0 0-.17-.197l.057-.059c.057.086.113.143.17.229l-.057.027zm-.17-.197a.942.942 0 0 0-.201-.145l.029-.057c.086.027.143.086.229.143l-.057.059zm-.201-.145v-.029.029zm0 0a.984.984 0 0 0-.256-.113l.027-.057a1 1 0 0 1 .258.113l-.029.057zm-.256-.113c-.086-.029-.201-.029-.316-.029v-.057c.115 0 .23 0 .344.029l-.028.057zm3.371 2.227h-.059v-.201h.059v.201zm0 0c.027.057.027.086.057.143l-.057.029c-.029-.057-.059-.115-.059-.172h.059zm0 .171l.027-.029-.027.029zm.056-.029c0 .057.027.086.057.113l-.057.029a.217.217 0 0 1-.057-.113l.057-.029zm.057.113c.027.059.057.086.086.115l-.029.027c-.029-.027-.086-.057-.113-.113l.056-.029zm.086.116c.057.027.086.057.113.057l-.027.057c-.029-.027-.086-.057-.115-.086l.029-.028zm.086.113l.027-.027-.027.027zm.027-.057c.059.029.086.029.145.057l-.029.059c-.057 0-.086-.029-.143-.059l.027-.057zm.145.057l-.029.029.029-.029zm0 0c.027 0 .084.029.141.029v.057c-.057 0-.113-.027-.17-.027l.029-.059zm.14.029h.143v.057h-.143v-.057zm.143 0h.23v.057h-.23v-.057zm.23.057v-.027.027zm0-.057c.057-.029.143-.029.199-.057l.027.057c-.084.029-.141.029-.227.057v-.057zm.2-.056c.057-.029.143-.059.201-.086l.027.057c-.057.029-.143.057-.201.086l-.027-.057zm.201-.086c.086 0 .143-.029.227-.086l.029.057c-.086.029-.143.086-.229.086l-.027-.057zm.256-.057v.027l-.029-.027h.029zm-.057-2.684h.057v2.684h-.057v-2.684zm0 0c0-.029 0-.057.027-.057l.057.027c-.027 0-.027.029-.027.029h-.057zm.027-.056l.029.027-.029-.027zm0 0c0-.029.029-.029.057-.029l.029.057h-.029l-.057-.028zm.057-.029l.029.029-.029-.029zm0 0l.059-.029.027.059-.057.027-.029-.057zm.059-.03v.029-.029zm0 0h.057l.029.059h-.059l-.027-.059zm.056 0v.029-.029zm0 0h.145v.059h-.115l-.03-.059zm.145 0v.029-.029zm0 0l.113-.027v.086h-.113v-.059zm.113-.027v.057-.057zm0 0h.057v.057l-.057.029v-.086zm.057 0v.027-.027zm0 0c.029 0 .057.027.086.027l-.057.059s0-.029-.029-.029v-.057zm.086.027c.027.029.027.059.027.086h-.057c0-.027-.027-.027-.027-.027l.057-.059zm.027 3.227h-.057v-3.141h.057v3.141zm0 0c0 .027 0 .057-.027.086l-.057-.059s.027 0 .027-.027h.057zm-.027.086l-.029-.029.029.029zm0 0c-.029 0-.029.027-.086.027v-.057c.029 0 .029 0 .029-.029l.057.059zm-.086.027v-.027.027zm0 0l-.113.029v-.086h.113v.057zm-.114.029v-.029.029zm0 0h-.115v-.057l.115-.029v.086zm-.115 0v-.029.029zm0 0h-.086v-.057h.086v.057zm-.086 0v-.029.029zm0 0h-.086v-.057h.086v.057zm-.086 0v-.029.029zm0 0c-.029 0-.057 0-.057-.029l.027-.027h.029v.056zm-.056-.029c-.029 0-.029-.027-.029-.057h.057v.029l-.028.028zm.027-.057h-.027.027zm-.057 0l-.027-.229.057-.027.027.256h-.057zm-.027-.255l.057-.029v.029l-.029.027-.028-.027zm.057.056c-.113.029-.199.086-.314.113l-.027-.057c.113-.027.199-.086.285-.113l.056.057zm-.315.113c-.086.057-.199.086-.285.115l-.029-.059c.086-.027.199-.057.287-.113l.027.057zm-.285.116l-.344.086v-.059c.115-.027.201-.057.314-.086l.03.059zm-.344.086c-.086 0-.199.027-.313.027v-.057c.113 0 .199-.029.313-.029v.059zm-.312.027c-.059 0-.145 0-.201-.027v-.059c.086 0 .143.029.201.029v.057zm-.201-.086v.029-.029zm0 .059c-.057 0-.113-.029-.199-.029l.029-.057c.057 0 .113.027.17.027v.059zm-.2-.03a.402.402 0 0 0-.172-.057l.057-.059c.029 0 .086.029.145.059l-.03.057zm-.115-.115l-.027.029.027-.029zm-.056.059c-.029-.029-.086-.086-.143-.115l.057-.027a.598.598 0 0 0 .143.084l-.057.058zm-.143-.116c-.029-.027-.086-.084-.115-.113l.059-.029c.027.029.057.059.113.115l-.057.027zm-.115-.113l.029-.029-.029.029zm0 0a.619.619 0 0 0-.084-.143l.057-.029a.723.723 0 0 1 .086.143l-.059.029zm-.084-.142a.536.536 0 0 1-.059-.201h.059c0 .059.027.115.057.172l-.057.029zm-.059-.202c-.027-.057-.027-.141-.027-.199h.057c0 .059 0 .143.029.199h-.059zm-.027-2.253h.057v2.055h-.057V29.77zm0-.057h.057v.057h-.057v-.057zm0 0h.027-.027zm0 0c0-.029-.029-.059-.029-.059l.086-.029v.088h-.057zm-.029-.059v-.029l.057-.027s0 .027.029.027l-.086.029zm0-.029l.029-.027-.029.027zm0 0c0-.027-.029-.027-.029-.027l.029-.057c.029.027.029.027.057.057l-.057.027zm-.03-.027l.029-.029-.029.029zm0 0c0-.029-.027-.029-.027-.029l.027-.057c.029 0 .029.029.059.029l-.059.057zm-.027-.03l.027-.027-.027.027zm0 0h-.029v-.057h.057l-.028.057zm-.029-.056v.029-.029zm0 .056c-.029 0-.029-.027-.057-.027l.027-.057s.029 0 .029.027v.057zm-.03-.084l-.027.027.027-.027zm-.027.057h-.029v-.057h.057l-.028.057zm-.029-.057v.027-.027zm0 .057h-.086v-.057h.086v.057zm-.086-.057v.027-.027zm.029.057l-.086.027v-.084h.057l.029.057zm-.086.027h-.029v-.029h.029v.029zm-.027-.027l-.029-.172h.086v.143l-.057.029zm-.03-.199h.029v.027h-.029v-.027zm.03 0l.17-.029v.057l-.143.029-.027-.057zm.17-.029v.029-.029zm0 0l.143-.029v.059l-.143.027v-.057zm.142-.03v.029-.029zm0 0c.115 0 .201-.027.258-.027v.057c-.057.029-.143.029-.258.029v-.059zm.258-.027h.113v.057h-.113v-.057zm.113 0v.027-.027zm0 0h.086v.057h-.086v-.057zm.086 0v.027-.027zm0 0l.059-.029v.086h-.059v-.057zm.059-.029v.029-.029zm0 0h.027v.057l-.027.029v-.086zm.027 0v.029-.029zm0 0c.059 0 .086.029.115.029l-.057.057s-.029-.029-.059-.029v-.057zm.059.086l.027-.029-.027.029zm.056-.057c0 .027.029.057.029.113h-.059c0-.027-.027-.057-.027-.057l.057-.056zm.03 2.312h-.059v-2.199h.059v2.199zm0 0h-.029.029zm3.941-2.371h.027l-.027.059v-.059zm.028 0c.029 0 .029 0 .029.029l-.029.029h-.027l.027-.058zm.029.03l.057.029-.057.057-.029-.057.029-.029zm.056.029l-.027.027.027-.027zm0 0l2.086 2.598-.057.029-2.086-2.57.057-.057zm2.086 2.598v.113l-.057-.084.027-.029h.03zm-.056 0l-.086-2.512h.086l.057 2.512h-.057zm-.086-2.512h.027-.027zm0 0c0-.029.027-.029.027-.059l.059.059h-.086zm.086 0l-.029-.029.029.029zm-.059-.059h.059v.059l-.059-.059zm.059.059v-.029.029zm0-.059l.057-.027v.057l-.057.029v-.059zm.056-.027v.027-.027zm0 0h.086v.057h-.086v-.057zm.086 0v.027-.027zm0 0h.086v.057h-.086v-.057zm.086 0v.027-.027zm0 0h.086v.057h-.086v-.057zm.086 0v.027-.027zm0 0h.057l-.029.057h-.027v-.057zm.028.057l.029-.029-.029.029zm.029-.057c.027.027.027.027.027.057h-.057l.03-.057zm.027.057h-.027.027zm0 0l-.057 2.74h-.084l.084-2.74h.057zm-.14 2.74h.027-.027zm.084.513h-.086v-.514h.086v.514zm0 0c0 .029-.027.057-.027.057l-.057-.027v-.029h.084zm-.028.057c-.029.029-.029.029-.057.029v-.057l.057.028zm-.056-.027v.027-.027zm0 .056h-.057v-.057h.057v.057zm-.059 0v-.029.029zm0 0h-.057l-.029-.057h.086v.057zm-.057 0l-.029-.029.029.029zm0 0h-.086v-.057h.057l.029.057zm-.086 0v-.029.029zm0 0h-.057v-.057h.057v.057zm-.056 0v-.029.029zm0 0h-.029v-.057h.029v.057zm-.03-.056v.027-.027zm0 .056h-.029l.029-.057v.057zm0-.056l-.029.027.029-.027zm-.029.056c-.027-.029-.027-.029-.057-.057l.057-.029c0 .029.029.029.029.029l-.029.057zm0-.086l-.027.029.027-.029zm-.056.03l-2.084-2.6.027-.027 2.113 2.598-.056.029zm-2.114-2.6v-.113l.057.086v.027h-.057zm.086 0l.057 2.57h-.057l-.086-2.57h.086zm.057 2.57h-.029.029zm0 0c0 .029 0 .057-.029.057l-.027-.057h.056zm-.029.057v-.027.027zm0 0l-.027.029-.029-.057c.029 0 .029 0 .029-.029l.027.057zm-.057-.027v.027-.027zm.029.056h-.086v-.057h.057l.029.057zm-.086 0v-.029.029zm0 0h-.086v-.057h.086v.057zm-.086 0v-.029.029zm0 0h-.086v-.057h.086v.057zm-.086 0v-.029.029zm0 0h-.086v-.057h.086v.057zm-.086 0v-.029.029zm0 0h-.057l.057-.057v.057zm-.056 0v-.057h.057l-.057.057zm0-.056h.029-.029zm0 0l.057-2.941h.057l-.057 2.941h-.057zm.113-2.971v.029h-.027l.027-.029zm-.057.059l-.227-.314.057-.057.227.313-.057.058zm-.199-.371h.029l-.029.029v-.029zm-.027.056l-.029-.027.057-.029-.028.056zm-.029-.027v-.029h.057l-.057.029zm0-.029c0-.029 0-.029.029-.057l.057.057H77.747zm.086 0l-.029-.029.029.029zm-.057-.057s.027-.029.057-.029V29.313l-.057-.057zm.057-.029v.029-.029zm0 0h.057v.057h-.057v-.057zm.056 0v.029-.029zm0 0h.057l.029.057h-.086v-.057zm.057 0v.029-.029zm0 0l.172-.029v.059l-.143.027-.029-.057zm.172-.03v.029-.029zm0 0h.143v.059h-.143v-.059zm.142 0v.029-.029zm0 0h.086v.059h-.086v-.059zm.086 0v.029-.029zm6.856 3.283c0 .029-.027.029-.027.057l-.057-.027v-.03h.084zm-.028.057l-.029-.027.029.027zm0 0l-.029.029-.027-.057.056.028zm-.029.029l-.027-.029.027.029zm0 0a.839.839 0 0 1-.285.057v-.057c.086 0 .172-.029.258-.057l.027.057zm-.285.057c-.086.029-.172.029-.258.059v-.059c.086-.027.172-.027.258-.057v.057zm-.258 0v.029-.029zm0 .059c-.086 0-.172 0-.258.027v-.086h.258v.059zm-.258-.059v.029-.029zm0 .086h-.285v-.057c.086 0 .172 0 .285-.029v.086zm-.285 0c-.143 0-.285 0-.428-.027v-.059c.143 0 .285.029.428.029v.057zm-.428-.027a12.788 12.788 0 0 1-.4-.086v-.059c.143.029.258.059.4.086v.059zm-.4-.086c-.143-.059-.258-.086-.371-.143l.057-.057c.086.057.201.084.314.141v.059zm-.371-.143c-.086-.057-.199-.115-.285-.201l.027-.057c.086.086.201.143.314.201l-.056.057zm-.285-.201l-.258-.256.057-.029c.086.086.143.172.229.229l-.028.056zm-.258-.256a2.822 2.822 0 0 1-.172-.287l.059-.027c.057.115.113.201.17.285l-.057.029zm-.172-.287a1.49 1.49 0 0 1-.113-.342l.057-.027c.029.113.057.229.115.342l-.059.027zm-.113-.342c-.029-.143-.029-.256-.029-.398h.057c0 .113 0 .256.029.371l-.057.027zm-.03-.398c0-.145 0-.285.029-.4h.057c-.029.115-.029.256-.029.4h-.057zm.03-.401c.027-.143.057-.258.113-.371l.059.029c-.029.113-.086.227-.115.342h-.057zm.113-.371a1.06 1.06 0 0 1 .199-.285l.059.027a.995.995 0 0 0-.199.287l-.059-.029zm.199-.285c.086-.113.172-.172.258-.258l.029.059a.883.883 0 0 0-.229.227l-.058-.028zm.287-.199v-.029.029zm-.029-.059c.086-.086.201-.143.314-.199l.029.057a1.708 1.708 0 0 0-.314.201l-.029-.059zm.315-.199c.115-.057.229-.086.344-.143l.027.057c-.113.057-.229.086-.342.143l-.029-.057zm.343-.142c.143-.029.285-.057.428-.057v.057c-.143 0-.258.029-.4.057l-.028-.057zm.428-.057c.113-.029.285-.029.43-.029v.057c-.145 0-.287 0-.43.029v-.057zm.43-.029h.256l-.029.057h-.227v-.057zm.256 0c.057 0 .143 0 .229.029l-.027.057c-.059-.029-.145-.029-.23-.029l.028-.057zm.228.029v.027-.027zm0 0c.086 0 .143 0 .229.027l-.029.059c-.057-.029-.143-.029-.227-.029l.027-.057zm.229.027c.057 0 .143.029.201.029v.057c-.086 0-.145-.027-.23-.027l.029-.059zm.201.086v-.027.027zm0-.056c.027 0 .027 0 .057.029l-.029.027h-.027v-.056zm.027.056v-.027.027zm.029-.056c0 .029 0 .029.029.029l-.059.057v-.029l.03-.057zm.03.029l-.029.027.029-.027zm0 0c0 .027 0 .057.027.057h-.086l.059-.057zm.027.056h-.057.057zm0 .114h-.086v-.113h.086v.113zm0 0v.057h-.057l-.029-.057h.086zm0 .056h-.027.027zm0 0v.057l-.057.029v-.086h.057zm-.057.086h.029-.029zm.057-.029v.174h-.057v-.145l.057-.029zm0 .174l.029.113h-.086v-.113h.057zm.029.226h-.086v-.113h.086v.113zm0 0h-.029.029zm0 .057h-.086v-.057h.086v.057zm0 .029h-.029v-.029h.029v.029zm-.029 0l-.143.029-.029-.059.172-.027v.057zm-.143.03h-.057v-.029h.027l.03.029zm-.056-.03c0-.057 0-.115-.029-.172h.057c.029.029.029.086.059.172h-.087zm.027-.172h-.027.027zm-.056 0c-.029-.027-.057-.084-.086-.113l.057-.027a.521.521 0 0 1 .086.141h-.057zm-.086-.113c-.029-.027-.057-.086-.086-.113l.029-.029a.215.215 0 0 1 .113.115l-.056.027zm-.086-.113a.369.369 0 0 1-.113-.088l.027-.027c.029 0 .086.057.115.086l-.029.029zm-.114-.088a.21.21 0 0 1-.143-.057v-.057l.17.086-.027.028zm-.142-.113v.029-.029zm0 .056c-.059 0-.115-.027-.172-.027l.027-.057c.059 0 .115.027.145.027v.057zm-.145-.084l-.027.027.027-.027zm-.027.057c-.059-.029-.115-.029-.172-.029v-.057c.057 0 .113 0 .199.029l-.027.057zm-.172-.029h-.172v-.057h.172v.057zm-.172 0c-.086 0-.199 0-.285.029l-.027-.086h.313v.057zm-.285.029a.815.815 0 0 0-.285.057v-.057l.258-.086.027.086zm-.285.057c-.059.027-.143.086-.201.115l-.057-.059c.086-.029.172-.086.258-.113v.057zm-.258.056l.029.029-.029-.029zm.057.059c-.084.057-.143.086-.199.143l-.057-.029c.057-.057.143-.113.199-.172l.057.058zm-.256.113l.027.029-.027-.029zm.056.029c-.057.057-.086.141-.143.199l-.057-.029c.057-.086.084-.143.143-.199l.057.029zm-.142.2c-.029.057-.086.143-.115.229l-.057-.029c.029-.086.086-.143.115-.229l.057.029zm-.115.228c0 .086-.027.17-.057.256h-.057c.029-.113.029-.199.057-.285l.057.029zm-.057.256v.285h-.086c0-.113.029-.199.029-.285h.057zm0 .285c0 .115 0 .23.029.344h-.086c0-.113-.029-.229-.029-.344h.086zm.029.344c0 .086.027.199.057.285l-.057.029c-.029-.115-.057-.201-.086-.314h.086zm.057.285c.029.115.086.199.143.285l-.057.029a1.311 1.311 0 0 1-.143-.285l.057-.029zm.143.285c.057.086.115.145.172.229l-.057.029c-.059-.057-.115-.143-.172-.229l.057-.029zm.171.229c.057.057.143.115.229.172l-.029.057a1.532 1.532 0 0 1-.256-.199l.056-.03zm.229.172c.086.057.172.086.285.143l-.027.057c-.115-.057-.201-.086-.287-.143l.029-.057zm.285.142c.086.029.199.057.314.086v.057c-.115-.027-.229-.057-.342-.086l.028-.057zm.315.086c.115 0 .258.029.4.029v.057c-.143 0-.285 0-.4-.029v-.057zm.4.086v-.029.029zm0-.057h.057v.057h-.057v-.057zm.057.057v-.029.029zm0-.057h.086v.057h-.086v-.057zm.085.057v-.029.029zm0-.057h.057v.057h-.057v-.057zm.057.057v-.029.029zm0-.057l.086-.029v.057l-.086.029v-.057zm.115.028h-.029v-.029h.029v.029zm-.056-.912h.057v.885h-.057v-.885zm0-.059h.057v.057h-.057v-.057zm0 0h.027-.027zm0 0c0-.027 0-.057-.029-.057l.086-.029v.086h-.057zm-.03-.057h.057-.057zm0 0v-.056h.057l.029.027-.086.029zm0-.056h.029-.029zm0 0h-.029l.059-.059s.027.029.027.059h-.057zm-.029 0l.029-.029-.029.029zm0 0c0-.029 0-.029-.027-.029l.057-.057.029.027-.059.059zm-.027-.029h-.029l.029-.086c0 .029.027.029.057.029l-.057.057zm0-.086v.057-.057zm-.03.086c0-.029-.029-.029-.029-.029v-.057h.059l-.03.086zm-.029-.03v-.027.027zm0 0h-.057v-.057h.057v.057zm-.056-.056v.029-.029zm0 .056h-.057v-.057h.057v.057zm-.057 0v-.027.027zm0 0h-.057v-.057h.057v.057zm-.059 0h-.029v-.029h.029v.029zm-.027-.027v-.143h.057l.029.143h-.086zm0-.172h.029v.029h-.029v-.029zm.027 0l.287-.027.029.057-.316.027v-.057zm.287-.027v.027-.027zm0 0h.256v.057h-.227l-.029-.057zm.256 0v.027-.027zm0 0h.172v.057h-.172v-.057zm.172 0v.027-.027zm0 0h.086v.057h-.086v-.057zm.086 0v.027-.027zm0 0c.059 0 .086 0 .086.027l-.027.029h-.059v-.056zm.086.027c.029 0 .057.029.057.086h-.084v-.057l.027-.029zm.057 1.398h-.086v-1.313h.086v1.313zm1.943-.312v.086c0 .027.029.057.029.057.027.027.027.027.057.027h.914a.55.55 0 0 0 .256-.057c.086-.027.145-.086.201-.172s.113-.199.17-.342l.145.029v.113c-.029.029-.029.113-.029.172-.029.086-.057.143-.057.229-.029.084-.029.141-.059.199a.153.153 0 0 1-.141.086H86.658c-.027 0-.057 0-.057-.029 0 0-.027-.027-.027-.057v-2.684c0-.086 0-.172-.059-.199-.057-.029-.115-.029-.172-.029H86.2v-.172c.029 0 .086 0 .172-.027.086 0 .172 0 .258-.029.084 0 .17 0 .256-.027H88.63c.027 0 .057 0 .057.027 0 .029 0 .057.027.113V30.026c.029.029.029.059.029.059l-.172.027c-.027-.143-.057-.229-.086-.314-.057-.084-.086-.113-.143-.17-.057-.029-.113-.059-.199-.059h-.944c-.027 0-.027 0-.027.029-.029 0-.029 0-.029.029v1.198c.17-.027.314-.027.457-.027s.256-.029.371-.029h.342c.059 0 .086.029.086.086v.115c0 .027 0 .057-.027.113l-1.229-.057v1.142zm.027.057h-.057v-.057h.057v.057zm-.056 0h.029-.029zm.056.029h-.057v-.029h.057v.029zm-.056 0h.029-.029zm.056 0l.029.027-.086.029v-.057h.057zm-.056.057l.057-.029-.057.029zm.086-.03v.029l-.057.027s0-.027-.029-.027l.086-.029zm0 .03h-.029.029zm0 0h.029l-.029.057c-.029 0-.029-.029-.057-.029l.057-.028zm.029 0l-.029.027.029-.027zm0 0h.027l-.027.057h-.029l.029-.057zm0 .056v-.029.029zm.027-.056h.029v.057h-.057l.028-.057zm.03.056v-.029.029zm0-.056h.086v.084l-.086-.027v-.057zm.086.084v-.057.057zm0-.084h.4v.086h-.4v-.086zm.4.084v-.057.057zm0-.084h.199v.057l-.199.027v-.084zm.199.056v-.029.029zm0-.056h.172v.057h-.172v-.057zm.172 0c.057 0 .086 0 .143-.029v.057c-.029.029-.086.029-.143.029v-.057zm.143-.03c.029 0 .086-.027.115-.027l.027.057c-.027 0-.086.027-.143.027v-.057zm.115-.027v.027-.027zm0 0c.027-.029.057-.029.084-.059l.057.029c-.057.029-.084.057-.113.086l-.028-.056zm.084-.059h.029-.029zm0 0a.38.38 0 0 0 .086-.113l.057.027c-.027.059-.057.086-.086.115l-.057-.029zm.086-.113l.029.027-.029-.027zm0 0c.029-.029.057-.086.086-.143l.057.027a.554.554 0 0 1-.086.143l-.057-.027zm.086-.143c.029-.057.057-.115.086-.201l.059.029c-.029.086-.059.143-.088.199l-.057-.027zm.086-.201h.029v.029l-.029-.029zm.029 0l.143.029v.057l-.143-.027v-.059zm.143.03h.029v.029h-.029v-.029zm.027.056h-.057v-.029h.057v.029zm0 0h-.027.027zm0 0v.086l-.057-.027v-.059h.057zm0 .086h-.027.027zm0 0l-.027.086-.057-.029.027-.084.057.027zm-.027.086h-.029.029zm0 0v.086h-.086l.029-.115.057.029zm0 .086h-.029.029zm0 0l-.029.113h-.057v-.113h.086zm-.03.113h-.027.027zm0 0l-.027.115h-.057l.027-.115h.057zm-.027.116c0 .057-.029.084-.029.113l-.057-.029c0-.027 0-.057.029-.084h.057zm-.029.113c0 .027-.027.057-.027.086h-.059c0-.029 0-.059.029-.115l.057.029zm-.028.086h-.029.029zm0 0c-.029.057-.029.086-.059.086l-.057-.029c.027-.027.027-.057.057-.057h.059zm-.058.086l-.029-.029.029.029zm0 0c-.029.029-.086.029-.115.029v-.059h.059l.056.03zm-.116.029v-.029.029zm0 0h-.285v-.059h.285v.059zm-.285 0H88v-.059h.344v.059zm-.342 0h-.4v-.059h.4v.059zm-.4-.059v.029-.029zm0 .059h-.43v-.059h.43v.059zm-.43 0h-.514v-.059h.514v.059zm-.513 0h-.057l.027-.059h.029v.059zm-.057 0l.027-.029-.027.029zm0 0c0-.029-.029-.029-.029-.029l.057-.029-.028.058zm.027-.059h-.027.027zm-.056.03c0-.029 0-.029-.027-.029l.084-.027v.027l-.057.029zm-.028-.03l.057-.027-.057.027zm0 0v-.056h.084v.029l-.084.027zm0-2.74h.086v2.684h-.086v-2.684zm0 0v-.113l.057-.029c0 .057.027.086.027.143h-.084zm0-.113h.027-.027zm0 0l-.057-.059.057-.057c.027.029.027.057.057.086l-.057.03zm0-.115l-.029.029.029-.029zm-.056.056s-.029-.027-.059-.027l.029-.059c.029 0 .057.029.086.029l-.056.057zm-.03-.086l-.029.029.029-.029zm-.029.059h-.084v-.059h.113l-.029.059zm-.084 0h-.115l-.029-.059h.145v.059zm-.115 0h-.059v-.029h.029l.03.029zm-.059-.029v-.143l.059-.029.027.172h-.086zm0-.143v-.029l.029-.027v.027l-.029.029zm.03-.057h.057l.029.057-.086.027v-.084zm.056 0l.029.027-.029-.027zm0 0l.115-.029v.086h-.086l-.029-.057zm.116-.029v.029-.029zm0 0l.256-.027v.057l-.256.057v-.087zm.255-.027v.027-.027zm0 0h.115l.029.057h-.145v-.057zm.116 0l.029.027-.029-.027zm0 0l.143-.029v.057l-.113.029-.03-.057zm.142-.029v.029-.029zm0 0H87v.057h-.113v-.057zm.115 0v.029-.029zm0 0h.086v.057h-.086v-.057zm.084 0h1.086v.057h-1.086v-.057zm1.086 0h.23v.057h-.23v-.057zm.231.056v-.027.027zm0-.056h.229v.057h-.229v-.057zm.226 0v.029-.029zm0 0h.059l-.029.057h-.029v-.057zm.059 0v.029-.029zm0 0c.027.029.027.029.027.057h-.057l.03-.057zm.027.056h-.027.027zm0 0l.029.113h-.086v-.113h.057zm.03.113v.059h-.057l-.029-.059h.086zm0 .059h-.029.029zm0 .086h-.057v-.086h.057v.086zm-.057 0h.027-.027zm.057.143h-.057v-.143h.057v.143zm0 .142h-.057v-.142h.057v.142zm0 0h-.029.029zm0 0l.029.113h-.086v-.113h.057zm.029.113h-.059.059zm0 .059h-.086v-.059h.086v.059zm0 .027h-.029v-.029h.029v.029zm-.029 0l-.172.029v-.057l.143-.029.029.057zm-.172.03h-.029v-.029h.029v.029zm-.03-.03a.397.397 0 0 0-.057-.172l.086-.027c0 .057.029.113.029.199h-.058zm-.056-.172c0-.057-.027-.084-.027-.143h.057c0 .029.027.086.057.115l-.087.028zm-.028-.142c-.029-.027-.057-.057-.057-.084l.027-.029c.029.029.057.057.086.113h-.056zm-.056-.084c-.029 0-.059-.029-.086-.059l.057-.057c.029.029.057.057.057.086l-.028.03zm-.029-.115l-.029.029.029-.029zm-.057.056c-.029 0-.059-.027-.086-.027l.027-.059c.029 0 .086.029.115.029l-.056.057zm-.059-.086v.029-.029zm-.027.059c-.029 0-.059-.029-.086-.029v-.057c.027 0 .086.027.113.027l-.027.059zm-.086-.086v.027-.027zm0 .057H88v-.057h.145v.057zm-.143-.057v.027-.027zm0 .057h-.199v-.057h.199v.057zm-.199-.057v.027-.027zm0 .057h-.516v-.057h.516v.057zm-.515-.057v.027-.027zm0 .057h-.057v-.057h.057v.057zm-.057-.057v.027-.027zm0 .057h-.029v-.057h.029v.057zm-.029-.057v.027-.027zm0 .057l-.029-.057h.029v.057zm0 0l-.029-.029.029.029zm0 0h-.029l-.027-.029s0-.027.027-.027l.029.056zm-.03 0h-.057c0-.029.029-.029.029-.029l.028.029zm-.056 0h.029-.029zm.056.029h-.057v-.029h.057v.029zm-.056 0h.029-.029zm.056 0v.027l-.057-.027h.057zm-.056.027v-.027l.029.027h-.029zm.056.03h-.057v-.029h.057v.029zm-.056 0h.029-.029zm.056 1.14h-.057v-1.141h.057v1.141zm-.027.03h-.029v-.029h.029v.029zm0-.057l.457-.029v.057l-.457.029v-.057zm.457.027v-.027.027zm0-.056l.342-.027.029.057-.371.027v-.057zm.342-.028h.258v.057h-.229l-.029-.057zm.258 0v.027-.027zm0 0h.115v.057h-.115v-.057zm.115 0v.027-.027zm0 0c.027 0 .057 0 .086.027l-.059.029h-.027v-.056zm.086.028c.027 0 .027.029.027.086h-.057c0-.029 0-.057-.029-.057l.059-.029zm.027.086v.115l-.057-.029v-.086h.057zm0 .115h-.027.027zm0 0l-.027.113h-.059l.029-.143.057.03zm-.027.142h-.029v-.029h.029v.029zm-.029 0l-1.229-.029v-.086l1.229.059v.056zm-1.258-.115h.029v.029h-.029v-.029zm.056 1.172h-.057v-1.143h.057v1.143zm-.056 0h.029-.029zM11.983 25.914l91.074.258v.428l-91.074-.286z"/></svg>