<svg xmlns="http://www.w3.org/2000/svg" version="1.1" x="0px" y="0px" viewBox="0 0 100 42.466" enable-background="new 0 0 100 42.466" xml:space="preserve"><path fill="#fff" d="M58.966 6.896l0.057 4.339c-0.627 0.2-1.113 0.286-1.684 0.543 -2.344 1.056-1 1.941-0.201 2.084 0.771 0.114 1.314-0.029 2.086-0.114 0 3.397-0.029 7.28 0.371 10.591 0.172 1.285 0.229 1.571 0.971 1.77 1.029 0.286 1.4-0.142 1.742-0.913 1-2.256 0.287-11.333 0.459-11.991 0.828-0.142 2.285-0.514 2.855-0.885 0.344-0.257 0.686-0.799 0.172-1.113 -0.6-0.4-2.43-0.286-3.172-0.257 -0.113-1.085-0.113-3.426-0.229-4.111 -0.057-0.457-0.285-0.657-0.543-0.914 -0.457-0.485-1-1.027-1.941-1.056C58.966 4.841 58.966 6.125 58.966 6.896M54.909 12.492c-0.172-1.37-2.656-0.999-3.771-0.6 -1.285 0.457-1.971 1.285-2.199 2.798 -0.258 1.942 0.199 2.741 1.086 3.826 1.686 2.055 2.713 2.512 3.885 3.654 0.285 0.314 1.029 0.857 0.943 1.57 -0.143 1.428-3.543 1.799-5.057-0.057 -0.516-0.6-0.602-1.057-0.229-1.885 0.943-1.94-1.029-1.256-2.113 0.086 -0.773 0.942-0.857 2.77-0.258 3.969 1.428 2.826 10.113 2.512 10.398-0.886 0.285-3.597-5.971-5.566-5.143-9.82C52.823 13.177 54.396 13.092 54.909 12.492M78.392 9.923c-1.371-0.4-5.057-0.228-6.084 1.77 -0.287 0.542-0.572 1.656-0.172 2.198C73.251 15.404 78.392 11.008 78.392 9.923M67.964 11.75c0.115 0.685 2.914 3.14 3.658 2.341 0.256-0.285 0.084-0.971-0.057-1.256 -0.201-0.428-0.373-0.6-0.773-0.8C70.022 11.636 68.907 11.607 67.964 11.75M35.026 33.676v-1.371h0.771l0.771 1.371h0.428l-0.799-1.428c0.371-0.171 0.627-0.542 0.627-0.971 0-0.313-0.084-0.543-0.285-0.742 -0.199-0.199-0.428-0.285-0.715-0.285h-1.17v3.426H35.026zM35.026 30.593h0.771c0.371 0 0.656 0.285 0.656 0.685 0 0.2-0.057 0.343-0.199 0.485 -0.115 0.143-0.287 0.2-0.486 0.2h-0.742V30.593zM37.139 32.477c0 0.371 0.115 0.686 0.344 0.942 0.229 0.228 0.543 0.342 0.914 0.342 0.342 0 0.656-0.085 0.885-0.285v-0.399c-0.143 0.172-0.457 0.343-0.885 0.343 -0.543 0-0.857-0.343-0.887-0.914h2v-0.143c0-0.371-0.113-0.656-0.314-0.885 -0.199-0.229-0.484-0.343-0.828-0.343 -0.342 0-0.656 0.114-0.885 0.343 -0.229 0.256-0.344 0.571-0.344 0.97V32.477zM37.54 32.19c0-0.199 0.086-0.371 0.258-0.514 0.17-0.142 0.342-0.199 0.57-0.199s0.4 0.058 0.543 0.199c0.143 0.143 0.201 0.314 0.201 0.514H37.54zM39.711 33.419c0.199 0.228 0.485 0.313 0.858 0.313 0.283 0 0.514-0.086 0.627-0.228 0.143-0.144 0.229-0.286 0.229-0.457 0-0.172-0.086-0.314-0.143-0.428 -0.029-0.029-0.086-0.086-0.172-0.144 -0.057-0.057-0.113-0.114-0.17-0.143 -0.029 0-0.115-0.058-0.23-0.114l-0.227-0.114c-0.201-0.114-0.287-0.2-0.287-0.343 0-0.2 0.143-0.313 0.43-0.313 0.199 0 0.371 0.086 0.543 0.199v-0.371c-0.143-0.113-0.344-0.172-0.572-0.172s-0.428 0.059-0.543 0.2c-0.143 0.114-0.229 0.257-0.229 0.457 0 0.171 0.057 0.314 0.201 0.428 0.143 0.114 0.227 0.2 0.485 0.314l0.229 0.115c0.057 0.027 0.113 0.057 0.172 0.113 0.115 0.085 0.143 0.171 0.143 0.314 0 0.2-0.172 0.342-0.484 0.342 -0.344 0-0.629-0.114-0.858-0.371V33.419zM42.339 33.676v-2.141h0.543v-0.344h-0.543V30.25h-0.371v0.941h-0.314v0.344h0.314v2.141H42.339zM44.224 31.105c-0.342 0-0.656 0.144-0.885 0.4 -0.229 0.228-0.371 0.543-0.371 0.914 0 0.398 0.143 0.713 0.371 0.941 0.229 0.258 0.543 0.371 0.885 0.371 0.43 0 0.717-0.171 0.857-0.428v0.371h0.373v-2.484h-0.373v0.371C44.94 31.306 44.653 31.105 44.224 31.105M44.224 33.419c-0.256 0-0.457-0.114-0.627-0.286 -0.172-0.199-0.258-0.428-0.258-0.713 0-0.257 0.086-0.515 0.258-0.687 0.17-0.171 0.371-0.284 0.627-0.284 0.258 0 0.486 0.113 0.658 0.284 0.172 0.172 0.258 0.43 0.258 0.687 0 0.285-0.086 0.514-0.258 0.713C44.71 33.305 44.481 33.419 44.224 33.419M45.911 32.705c0 0.656 0.428 1.027 1.027 1.027 0.629 0 1.029-0.371 1.029-1.056v-1.485h-0.344v1.485c0 0.456-0.256 0.713-0.686 0.713 -0.4 0-0.656-0.257-0.656-0.713v-1.485h-0.371V32.705zM48.796 33.676V32.22c0-0.4 0.285-0.685 0.686-0.685 0.086 0 0.172 0 0.229 0.027v-0.398h-0.143c-0.371 0-0.629 0.171-0.771 0.456v-0.429h-0.344v2.484H48.796zM51.052 31.105c-0.342 0-0.627 0.144-0.885 0.4 -0.229 0.228-0.342 0.543-0.342 0.914 0 0.398 0.113 0.713 0.342 0.941 0.258 0.258 0.543 0.371 0.885 0.371 0.457 0 0.744-0.171 0.887-0.428v0.371h0.371v-2.484h-0.371v0.371C51.796 31.306 51.509 31.105 51.052 31.105M51.052 33.419c-0.256 0-0.457-0.114-0.627-0.286 -0.172-0.199-0.258-0.428-0.258-0.713 0-0.257 0.086-0.515 0.258-0.687 0.17-0.171 0.371-0.284 0.627-0.284 0.287 0 0.486 0.113 0.658 0.284 0.172 0.172 0.256 0.43 0.256 0.687 0 0.285-0.084 0.514-0.256 0.713C51.538 33.305 51.339 33.419 51.052 33.419M53.138 33.676V32.19c0-0.428 0.285-0.713 0.715-0.713 0.4 0 0.629 0.285 0.629 0.686v1.513h0.371v-1.599c0-0.542-0.344-0.913-0.914-0.913 -0.371 0-0.658 0.171-0.801 0.456v-0.429h-0.342v2.484H53.138zM55.851 33.676v-2.141h0.543v-0.344h-0.543V30.25h-0.342v0.941h-0.314v0.344h0.314v2.141H55.851zM64.022 33.676c0.314 0 0.543-0.086 0.742-0.286 0.201-0.2 0.314-0.428 0.314-0.742 0-0.428-0.256-0.742-0.686-0.828 0.258-0.113 0.43-0.37 0.43-0.714 0-0.228-0.086-0.456-0.258-0.628 -0.199-0.142-0.4-0.228-0.656-0.228H62.88v3.426H64.022zM63.251 30.593h0.629c0.314 0 0.57 0.228 0.57 0.542s-0.256 0.542-0.57 0.542h-0.629V30.593zM63.251 32.02h0.742c0.201 0 0.373 0.058 0.486 0.171 0.143 0.144 0.199 0.286 0.199 0.457 0 0.4-0.285 0.657-0.686 0.657h-0.742V32.02zM65.423 32.477c0 0.371 0.113 0.686 0.342 0.942 0.229 0.228 0.516 0.342 0.887 0.342s0.686-0.085 0.914-0.285v-0.399c-0.172 0.172-0.457 0.343-0.914 0.343 -0.516 0-0.857-0.343-0.887-0.914h2v-0.143c0-0.371-0.086-0.656-0.314-0.885 -0.199-0.229-0.457-0.343-0.799-0.343 -0.371 0-0.658 0.114-0.887 0.343 -0.229 0.256-0.342 0.571-0.342 0.97V32.477zM65.794 32.19c0.029-0.199 0.113-0.371 0.256-0.514 0.172-0.142 0.373-0.199 0.602-0.199 0.199 0 0.371 0.058 0.514 0.199 0.143 0.143 0.229 0.314 0.229 0.514H65.794zM69.308 31.105c-0.344 0-0.656 0.144-0.887 0.4 -0.227 0.228-0.371 0.543-0.371 0.914 0 0.398 0.145 0.713 0.371 0.941 0.23 0.258 0.543 0.371 0.887 0.371 0.428 0 0.715-0.171 0.857-0.428v0.371h0.371v-2.484h-0.371v0.371C70.022 31.306 69.735 31.105 69.308 31.105M69.308 33.419c-0.258 0-0.457-0.114-0.629-0.286 -0.172-0.199-0.258-0.428-0.258-0.713 0-0.257 0.086-0.515 0.258-0.687 0.172-0.171 0.371-0.284 0.629-0.284s0.486 0.113 0.656 0.284c0.172 0.172 0.258 0.43 0.258 0.687 0 0.285-0.086 0.514-0.258 0.713C69.794 33.305 69.565 33.419 69.308 33.419M72.222 31.105c-0.371 0-0.656 0.144-0.914 0.4 -0.258 0.228-0.4 0.543-0.4 0.914 0 0.398 0.143 0.713 0.4 0.941 0.258 0.258 0.543 0.371 0.914 0.371 0.344 0 0.627-0.086 0.828-0.257v-0.428c-0.229 0.228-0.514 0.371-0.828 0.371 -0.258 0-0.486-0.114-0.686-0.286 -0.172-0.199-0.258-0.428-0.258-0.713 0-0.257 0.086-0.515 0.258-0.687 0.199-0.171 0.428-0.284 0.686-0.284 0.314 0 0.6 0.113 0.828 0.37v-0.428C72.821 31.221 72.565 31.105 72.222 31.105M73.792 33.676V32.19c0-0.428 0.287-0.713 0.686-0.713 0.371 0 0.602 0.285 0.602 0.686v1.513h0.371v-1.599c0-0.542-0.344-0.913-0.887-0.913 -0.371 0-0.629 0.171-0.771 0.456v-1.37H73.45v3.426H73.792zM60.138 33.248c-0.143 0.171-0.287 0.285-0.457 0.371 -0.172 0.057-0.344 0.113-0.543 0.113 -0.373 0-0.656-0.113-0.857-0.371 -0.172-0.199-0.256-0.428-0.256-0.656s0.084-0.429 0.199-0.6c0.143-0.172 0.371-0.313 0.627-0.457 -0.143-0.171-0.256-0.343-0.313-0.457 -0.057-0.113-0.086-0.199-0.086-0.313 0-0.229 0.086-0.4 0.256-0.542 0.172-0.172 0.373-0.257 0.629-0.257 0.229 0 0.428 0.085 0.572 0.228 0.172 0.144 0.229 0.314 0.229 0.542 0 0.315-0.199 0.629-0.656 0.857l0.627 0.799c0.086-0.143 0.143-0.314 0.172-0.485l0.457 0.086c-0.086 0.314-0.199 0.571-0.314 0.771 0.143 0.2 0.342 0.372 0.543 0.514l-0.287 0.343C60.509 33.646 60.308 33.476 60.138 33.248M59.251 31.42c0.201-0.114 0.314-0.199 0.371-0.285 0.059-0.086 0.086-0.171 0.086-0.286 0-0.114-0.027-0.228-0.113-0.285 -0.086-0.086-0.172-0.113-0.287-0.113 -0.113 0-0.199 0.027-0.283 0.113 -0.086 0.058-0.115 0.171-0.115 0.257 0 0.058 0 0.114 0.029 0.172 0.027 0.086 0.086 0.143 0.143 0.199L59.251 31.42zM59.851 32.904l-0.77-0.971c-0.23 0.144-0.4 0.257-0.457 0.371 -0.086 0.143-0.143 0.257-0.143 0.372 0 0.142 0.057 0.285 0.17 0.428 0.113 0.171 0.287 0.229 0.486 0.229 0.143 0 0.256-0.028 0.4-0.114C59.681 33.133 59.794 33.048 59.851 32.904M45.683 25.082c-2-0.971-1.172-6.937-1.172-8.85 0-0.885-0.029-1.085-0.514-1.599 -0.43-0.457-2.115-1.427-2.887-0.657 -0.428 0.4-0.398 2.827-0.514 3.655 -0.285 1.884-0.971 5.424-2.971 5.253 -1.629-0.144-1.4-5.311-1.342-6.881 0.027-0.599 0.199-1.341-0.258-1.627 -0.656-0.4-2.914-0.285-3.199 0.485 -0.629 1.628-0.4 5.482 0.227 7.366 0.172 0.542 0.459 0.999 0.629 1.456 -0.17 0.171-1.313 0.855-1.57 0.941 -0.344-0.685-0.143-1.056-0.973-2.568 -0.398-0.743-0.941-1.713-1.428-2.142 -0.713-0.6-1.543-0.914-2.57-0.257 -0.514 0.314-1.658 1.398-2.057 1.514 -1.172-0.571-0.514-3.341-0.059-4.283 0.771-1.484 3.516 0.143 4.572-0.371 0.256-0.571-1.201-1.427-1.629-1.684 -2.914-1.742-5.457-1.428-6.227 2.17 -0.486 2.283 0.371 5.081 2.17 6.109 0.828 0.485 1.801-0.257 2.428-0.742 0.43-0.343 0.658-0.714 0.943-0.856 1.027 1.027 1.885 3.969 1.971 5.282 -0.686 0.228-1.885 1.427-2.314 1.912 -2.799 2.997-2.885 7.451-0.17 8.621 2.455 1.058 4.656-1.256 5.285-2.883 1.371-3.74 0.371-7.309 0.514-7.68 0.229-0.285 0.771-0.686 1.086-0.942 0.371-0.313 0.686-0.685 1.086-0.941 0.713 0.371 0.914 0.57 1.914 0.741 1.686 0.286 2.742-0.456 3.627-1.713 0.43-0.599 0.572-1.142 0.887-1.77 0.457 2.37 1.484 3.883 3.998 4.197 0.486 0.086 1.4 0.057 1.572-0.344C47.024 25.367 46.081 25.282 45.683 25.082zM28.368 35.051c-0.857 0.2-1.258-0.742-1.258-1.513 -0.029-1.427 1.314-3.227 2.057-3.54l0.057 3.055C29.223 33.852 29.081 34.88 28.368 35.051zM71.878 14.548c-2.285 1.342-5.627-0.257-6.77 4.425 -0.801 3.34 1.057 6.566 3.629 7.194 3.598 0.885 5.826-1.627 6.568-4.311C76.478 17.546 72.706 14.091 71.878 14.548zM70.593 24.514c-2 2.142-2.199-4.254-1.971-5.996 0.115-1.028 0.199-1.57 1.086-1.884 0.713-0.228 1.486 0.371 1.914 0.914C72.735 18.861 71.935 23.115 70.593 24.514z"/></svg>