<svg xmlns="http://www.w3.org/2000/svg" version="1.1" x="0px" y="0px" viewBox="0 0 115.069 42.466" enable-background="new 0 0 115.069 42.466" xml:space="preserve"><path fill="#fff" d="M33.938 31.867v-1.113h0.371 0.029l0.741 1.113h1.173l-0.943-1.342c0.4-0.17 0.628-0.57 0.628-1.027 0-0.342-0.114-0.629-0.371-0.885 -0.257-0.229-0.571-0.342-0.943-0.342h-1.685v3.596H33.938zM33.938 29.156h0.657c0.2 0 0.343 0.143 0.343 0.371 0 0.285-0.172 0.428-0.429 0.428h-0.571V29.156zM40.994 31.867v-0.885h-1.771v-0.541h1.6v-0.801h-1.6v-0.484h1.714v-0.885h-2.743v3.596H40.994zM43.108 31.611c0.371 0.199 0.828 0.313 1.343 0.313 1.057 0 1.542-0.457 1.542-1.141 0-0.285-0.057-0.486-0.2-0.656 -0.113-0.143-0.371-0.287-0.742-0.4 -0.028 0-0.114-0.029-0.229-0.057l-0.286-0.086c-0.057 0-0.114-0.027-0.2-0.086 -0.171-0.057-0.228-0.143-0.228-0.229 0-0.113 0.171-0.199 0.514-0.199 0.429 0 0.771 0.113 1.058 0.285v-0.914c-0.314-0.143-0.687-0.229-1.114-0.229 -0.4 0-0.743 0.086-1 0.285 -0.286 0.201-0.428 0.457-0.428 0.801 0 0.455 0.257 0.799 0.799 0.998 0.114 0.029 0.286 0.086 0.485 0.145 0.229 0.057 0.372 0.113 0.457 0.17 0.114 0.029 0.144 0.086 0.144 0.172 0 0.17-0.2 0.256-0.601 0.256 -0.514 0-0.942-0.143-1.313-0.398V31.611zM49.679 31.867v-2.711h0.971v-0.885h-2.971v0.885h1v2.711H49.679zM52.907 31.867l0.257-0.484h1.515l0.229 0.484h1.057l-2.057-3.854 -2.057 3.854H52.907zM53.907 29.813l0.428 0.828h-0.856L53.907 29.813zM57.563 30.326c0 0.514 0.143 0.914 0.457 1.17 0.314 0.285 0.715 0.428 1.201 0.428 0.484 0 0.885-0.143 1.199-0.428 0.314-0.256 0.457-0.656 0.457-1.17v-2.055h-1v1.939c0 0.602-0.229 0.801-0.656 0.801 -0.43 0-0.658-0.199-0.658-0.801v-1.939h-1V30.326zM64.135 31.867v-1.113h0.369l0.744 1.113h1.17l-0.914-1.342c0.373-0.17 0.631-0.57 0.631-1.027 0-0.342-0.145-0.629-0.4-0.885 -0.258-0.229-0.572-0.342-0.943-0.342h-1.686v3.596H64.135zM64.135 29.156h0.627c0.199 0 0.373 0.143 0.373 0.371 0 0.285-0.174 0.428-0.457 0.428h-0.543V29.156zM68.961 31.867l0.258-0.484h1.514l0.229 0.484h1.059l-2.059-3.854 -2.057 3.854H68.961zM69.961 29.813l0.43 0.828h-0.828L69.961 29.813zM74.934 31.867v-1.826l2.457 1.969v-3.738h-0.943v1.797l-2.457-1.941v3.74H74.934zM81.389 31.867v-2.711h1v-0.885h-3v0.885h1v2.711H81.389zM8.426 12.312c-0.028 0.514-0.058 0.999-0.058 3.568v2.998c0 1.056 0.029 1.913 0.058 2.484 0.029 0.542 0.115 0.828 0.2 0.943h0.028c0.086 0.086 0.229 0.17 0.486 0.199 0.285 0.057 0.714 0.086 1.371 0.086 0.428 0 0.8 0 1.114-0.059 0.257-0.057 0.485-0.141 0.656-0.313 0.086-0.086 0.173-0.229 0.229-0.4 0.057-0.143 0.114-0.313 0.142-0.457 0-0.114 0.029-0.229 0.086-0.313 0.086-0.114 0.2-0.2 0.372-0.2 0.2 0 0.314 0.086 0.371 0.257 0.058 0.086 0.058 0.171 0.058 0.313 0 0.114-0.058 0.658-0.114 1.171 -0.058 0.313-0.086 0.656-0.144 0.855 -0.086 0.258-0.143 0.428-0.399 0.543 -0.2 0.115-0.457 0.115-0.943 0.115 -0.914 0-1.657 0-2.313-0.029H9.055c-0.743-0.029-1.343-0.057-2.057-0.057h-0.4H6.027v0.027h-0.6c-0.229 0-0.429 0.029-0.572 0.029 -0.142 0-0.285-0.029-0.371-0.086 -0.171-0.057-0.257-0.201-0.257-0.371 0-0.143 0.057-0.285 0.229-0.342 0.085-0.059 0.171-0.086 0.342-0.086 0.115 0 0.229 0 0.314-0.029 0.085 0 0.171-0.027 0.229-0.027 0.057-0.029 0.114-0.059 0.143-0.145 0.058-0.143 0.086-0.313 0.114-0.541 0.086-0.686 0.086-2.027 0.086-3.569V15.88v-2.54c0-0.514 0-0.743-0.029-1.028 0-0.229-0.027-0.4-0.113-0.514 -0.058-0.086-0.171-0.143-0.371-0.2H5.141c-0.057 0-0.114-0.028-0.2-0.028H4.655c-0.142 0-0.228-0.029-0.342-0.058 -0.143-0.085-0.229-0.199-0.229-0.399 0-0.172 0.086-0.314 0.286-0.371 0.086-0.029 0.199-0.057 0.37-0.057 0.43 0 0.972 0.028 1.457 0.028 0.344 0.029 0.629 0.029 0.857 0.029s0.543 0 0.886-0.029c0.515 0 1.085-0.028 1.428-0.028 0.144 0 0.286 0.028 0.372 0.057 0.172 0.057 0.258 0.199 0.258 0.371 0 0.2-0.058 0.314-0.229 0.399 -0.086 0.029-0.2 0.058-0.343 0.058H9.083c-0.085 0.028-0.199 0.028-0.285 0.028 -0.144 0.029-0.229 0.086-0.257 0.171C8.456 11.884 8.426 12.055 8.426 12.312M24.053 23.217l-1.114-2.796h-3.313l-0.771 1.884c-0.057 0.143-0.115 0.285-0.143 0.428 -0.029 0.143-0.058 0.256-0.058 0.342 0 0.029 0 0.059 0.028 0.059 0.029 0.027 0.115 0.057 0.286 0.057h0.229c0.171 0 0.285 0.057 0.343 0.113 0.114 0.086 0.143 0.201 0.143 0.314 0 0.17-0.057 0.314-0.2 0.371 -0.085 0.057-0.2 0.086-0.313 0.086 -0.229 0-0.543-0.029-0.857-0.029 -0.286-0.027-0.543-0.027-0.8-0.027h-0.286c-0.342 0.027-0.914 0.057-1.457 0.057 -0.114 0-0.228-0.029-0.342-0.086 -0.144-0.057-0.2-0.172-0.2-0.371 0-0.113 0.028-0.229 0.142-0.314 0.087-0.057 0.173-0.113 0.315-0.113h0.2c0.085 0 0.142-0.029 0.2-0.029 0.257-0.027 0.428-0.143 0.57-0.285 0.171-0.199 0.286-0.457 0.43-0.799l3.913-8.993c0.086-0.229 0.172-0.4 0.257-0.514 0.114-0.172 0.258-0.229 0.429-0.229 0.228 0 0.343 0.057 0.486 0.2 0.085 0.114 0.142 0.229 0.228 0.4v0.028c0.2 0.457 1 2.341 1.857 4.283 0.771 1.827 1.6 3.74 1.942 4.51 0.258 0.629 0.485 0.971 0.686 1.17 0.143 0.143 0.286 0.201 0.372 0.201 0.2 0.027 0.343 0.057 0.514 0.057 0.114 0 0.229 0.027 0.314 0.086 0.113 0.084 0.172 0.199 0.172 0.342 0 0.199-0.059 0.342-0.315 0.4 -0.143 0.027-0.313 0.057-0.628 0.057h-1.143c-0.515-0.029-1.085-0.029-1.714-0.057h-0.087c-0.399 0-0.628-0.029-0.628-0.4 0-0.113 0.028-0.201 0.114-0.285v-0.029C23.91 23.275 23.967 23.246 24.053 23.217M21.282 16.223l-1.113 2.826h2.228L21.282 16.223zM39.995 24.188c-0.572 0.086-1.229 0.115-1.829 0.115 -1.171 0-2.256-0.143-3.285-0.43 -1-0.313-1.914-0.799-2.714-1.482 -0.857-0.772-1.4-1.657-1.743-2.542 -0.342-0.914-0.457-1.827-0.457-2.684 0-0.685 0.144-1.684 0.572-2.683 0.313-0.743 0.8-1.514 1.514-2.17 0.628-0.571 1.371-1.056 2.285-1.371 0.914-0.314 1.971-0.485 3.257-0.485 0.543 0 0.972 0 1.371 0.029 0.372 0.028 0.743 0.085 1.143 0.142 0.314 0.029 0.601 0.086 0.857 0.143 0.313 0.057 0.571 0.114 0.829 0.143 0.142 0 0.257 0.057 0.313 0.114 0.144 0.114 0.2 0.229 0.2 0.371 0 0.057-0.029 0.143-0.029 0.257 -0.027 0.143-0.057 0.343-0.086 0.685v0.971c-0.027 0.343-0.027 0.685-0.027 0.857 -0.029 0.171-0.029 0.285-0.086 0.399 -0.086 0.171-0.2 0.257-0.4 0.257s-0.343-0.086-0.4-0.257c-0.057-0.114-0.057-0.228-0.057-0.399 -0.028-0.229-0.086-0.486-0.171-0.714 -0.086-0.229-0.229-0.457-0.429-0.628v-0.029c-0.258-0.257-0.686-0.485-1.258-0.685 -0.57-0.171-1.228-0.257-1.971-0.257 -0.714 0-1.285 0.086-1.771 0.257 -0.486 0.171-0.886 0.4-1.229 0.714 -0.57 0.542-0.941 1.17-1.142 1.884 -0.229 0.714-0.315 1.484-0.315 2.284 0 1.741 0.572 3.055 1.43 3.997 1.027 1.169 2.428 1.771 3.628 1.771 0.714 0 1.313-0.059 1.771-0.172 0.457-0.143 0.8-0.344 1.114-0.686 0.115-0.142 0.229-0.313 0.314-0.457 0.085-0.199 0.171-0.398 0.2-0.542 0.028-0.171 0.058-0.257 0.114-0.371 0.086-0.143 0.2-0.2 0.371-0.2 0.172 0 0.286 0.087 0.372 0.2 0.057 0.114 0.085 0.229 0.085 0.343 0 0.143-0.085 0.714-0.171 1.284 -0.058 0.4-0.144 0.801-0.229 1.059 -0.057 0.17-0.114 0.313-0.2 0.428 -0.085 0.084-0.228 0.17-0.399 0.256C40.995 24.018 40.538 24.131 39.995 24.188M55.42 22.531c-1.143 1.086-2.742 1.713-4.686 1.713 -2.027 0-3.514-0.627-4.542-1.598 -1.286-1.17-1.856-2.827-1.856-4.311 0-1.456 0.57-3.141 1.914-4.34 1.028-0.942 2.543-1.599 4.628-1.599 1.942 0 3.543 0.543 4.657 1.514 1.113 0.999 1.714 2.426 1.714 4.168C57.25 19.849 56.592 21.418 55.42 22.531M48.307 21.533c0.714 0.858 1.743 1.37 3.028 1.37 0.571 0 1.6-0.17 2.313-1.113 0.486-0.656 0.829-1.655 0.829-3.197 0-1.485-0.429-2.684-1.143-3.512 -0.714-0.856-1.743-1.342-2.914-1.342 -0.857 0-1.8 0.257-2.457 1.057 -0.514 0.628-0.857 1.598-0.857 3.083C47.107 19.334 47.537 20.62 48.307 21.533M62.991 14.025c-0.027 0.428-0.027 0.856-0.027 3.026v2.542c0 0.913 0 1.599 0.027 2.084 0.029 0.427 0.088 0.656 0.201 0.742 0.086 0.057 0.229 0.113 0.514 0.172 0.285 0.027 0.715 0.057 1.285 0.057 0.371 0 0.715 0 0.973-0.057 0.229-0.029 0.428-0.115 0.543-0.258h0.027c0.057-0.057 0.115-0.172 0.172-0.285 0.057-0.144 0.086-0.314 0.113-0.429 0-0.086 0.029-0.2 0.086-0.286 0.086-0.113 0.201-0.171 0.371-0.171 0.172 0 0.287 0.086 0.344 0.257 0.057 0.087 0.057 0.229 0.057 0.344 0 0.113-0.029 0.542-0.086 1 -0.027 0.285-0.084 0.57-0.143 0.742 -0.057 0.256-0.143 0.398-0.371 0.484 -0.172 0.086-0.4 0.115-0.828 0.115 -0.516 0-1 0-1.486-0.029 -0.457 0-0.857 0-1.227-0.029h-0.287c-0.6-0.027-1.113-0.027-1.686-0.027h-0.258c-0.17 0-0.4 0.027-0.57 0.027h-0.543c-0.201 0.029-0.371 0.029-0.514 0.029 -0.115 0-0.258-0.029-0.344-0.086 -0.143-0.086-0.229-0.199-0.229-0.371 0-0.113 0.059-0.258 0.201-0.342 0.084-0.057 0.199-0.086 0.342-0.086h0.258c0.057-0.029 0.143-0.029 0.199-0.029 0.059-0.027 0.086-0.057 0.115-0.113 0.057-0.086 0.086-0.229 0.113-0.43 0.057-0.57 0.057-1.712 0.057-3.025v-2.542 -2.17c0-0.428 0-0.628-0.027-0.856 0-0.172-0.029-0.286-0.086-0.371 -0.057-0.057-0.172-0.115-0.344-0.143 -0.057-0.029-0.113-0.029-0.17-0.029 -0.057-0.028-0.143-0.028-0.229-0.028 -0.145 0-0.258-0.029-0.344-0.086 -0.143-0.057-0.201-0.2-0.201-0.342 0-0.172 0.088-0.314 0.26-0.372 0.084-0.028 0.197-0.057 0.342-0.057 0.342 0 0.855 0.029 1.285 0.029h0.771 0.828c0.486 0 1.029-0.029 1.314-0.029 0.143 0 0.258 0.029 0.344 0.057 0.17 0.058 0.256 0.2 0.256 0.372 0 0.171-0.057 0.285-0.199 0.371 -0.086 0.028-0.201 0.057-0.344 0.057 -0.086 0-0.199 0-0.285 0.028 -0.086 0-0.172 0-0.229 0.029h-0.029c-0.113 0.028-0.199 0.057-0.227 0.114C63.02 13.682 63.02 13.825 62.991 14.025M73.276 14.025c-0.027 0.428-0.057 0.856-0.057 3.026v2.542c0 0.913 0.029 1.599 0.057 2.084 0.029 0.427 0.086 0.656 0.172 0.742 0.084 0.057 0.258 0.113 0.514 0.172 0.314 0.027 0.715 0.057 1.287 0.057 0.398 0 0.713 0 0.998-0.057 0.229-0.029 0.4-0.115 0.543-0.258 0.057-0.057 0.113-0.172 0.172-0.285 0.057-0.144 0.115-0.314 0.115-0.429 0.027-0.086 0.057-0.2 0.113-0.286 0.086-0.113 0.172-0.171 0.342-0.171 0.201 0 0.314 0.086 0.371 0.257 0.029 0.087 0.059 0.229 0.059 0.344 0 0.113-0.029 0.542-0.086 1 -0.057 0.285-0.086 0.57-0.143 0.742 -0.086 0.256-0.143 0.398-0.371 0.484 -0.172 0.086-0.43 0.115-0.857 0.115 -0.486 0-0.973 0-1.457-0.029 -0.457 0-0.857 0-1.229-0.029h-0.314c-0.57-0.027-1.086-0.027-1.656-0.027H71.59c-0.199 0-0.4 0.027-0.6 0.027h-0.514c-0.201 0.029-0.373 0.029-0.516 0.029s-0.256-0.029-0.342-0.086c-0.143-0.086-0.229-0.199-0.229-0.371 0-0.113 0.057-0.258 0.199-0.342 0.086-0.057 0.172-0.086 0.314-0.086h0.285c0.059-0.029 0.115-0.029 0.172-0.029h0.029c0.057-0.027 0.086-0.057 0.113-0.113 0.029-0.086 0.057-0.229 0.086-0.43 0.057-0.57 0.057-1.712 0.057-3.025v-2.542 -2.17 -0.856c-0.027-0.172-0.027-0.286-0.086-0.371 -0.057-0.057-0.17-0.115-0.342-0.143 -0.057-0.029-0.115-0.029-0.172-0.029 -0.086-0.028-0.17-0.028-0.256-0.028 -0.344 0-0.543-0.143-0.543-0.428 0-0.172 0.086-0.314 0.256-0.372 0.086-0.028 0.201-0.057 0.344-0.057 0.371 0 0.857 0.029 1.314 0.029h0.742 0.857c0.486 0 1.029-0.029 1.314-0.029 0.143 0 0.256 0.029 0.342 0.057 0.172 0.058 0.258 0.2 0.258 0.372 0 0.171-0.057 0.285-0.201 0.371 -0.113 0.028-0.227 0.057-0.371 0.057 -0.057 0-0.172 0-0.256 0.028 -0.086 0-0.172 0-0.258 0.029 -0.115 0.028-0.199 0.057-0.229 0.114C73.305 13.682 73.276 13.825 73.276 14.025M80.875 22.703c0.057-0.57 0.057-1.712 0.057-3.111v-2.542 -2.17 -0.856c-0.029-0.2-0.057-0.314-0.115-0.371 -0.027-0.057-0.113-0.115-0.199-0.143 -0.086-0.029-0.143-0.029-0.229-0.029 -0.057-0.028-0.143-0.028-0.229-0.028 -0.143 0-0.229 0-0.344-0.086 -0.113-0.057-0.199-0.171-0.199-0.371 0-0.171 0.115-0.285 0.285-0.343h0.029c0.086-0.028 0.201-0.057 0.342-0.057 0.258 0 0.715 0.029 1.145 0.029h0.855 0.744c0.428 0 0.885-0.029 1.17-0.029 0.115 0 0.23 0.029 0.344 0.057 0.143 0.058 0.258 0.172 0.258 0.343 0 0.2-0.086 0.314-0.201 0.371 -0.084 0.086-0.199 0.086-0.342 0.086 -0.059 0-0.115 0-0.172 0.028 -0.057 0-0.143 0-0.199 0.029 -0.145 0.028-0.201 0.057-0.258 0.114 -0.029 0.057-0.057 0.2-0.086 0.4 -0.027 0.428-0.027 0.856-0.027 3.026v2.542 1.854c0.027 0.543 0.027 0.971 0.057 1.256 0.027 0.172 0.057 0.258 0.113 0.344 0.029 0.027 0.115 0.086 0.258 0.086 0.172 0.027 0.514 0.057 0.713 0.057 0.145 0 0.23 0.029 0.316 0.086 0.141 0.084 0.199 0.229 0.199 0.342 0 0.172-0.086 0.285-0.229 0.371 -0.086 0.057-0.201 0.086-0.344 0.086 -0.57 0-1.199-0.029-1.686-0.057H82.19c-0.172 0-0.43 0-0.715 0.027 -0.428 0-0.914 0.029-1.229 0.029 -0.143 0-0.258-0.029-0.371-0.086 -0.143-0.086-0.199-0.199-0.199-0.371 0-0.113 0.027-0.258 0.17-0.342 0.086-0.057 0.201-0.086 0.344-0.086h0.256c0.086-0.029 0.145-0.029 0.201-0.029 0.057-0.027 0.113-0.057 0.143-0.086C80.817 22.988 80.846 22.875 80.875 22.703M90.389 16.908l-0.287-0.314 0.145 5.225c0.027 0.513 0.084 0.857 0.143 1.056 0.057 0.143 0.113 0.199 0.17 0.229 0.115 0.029 0.229 0.057 0.344 0.057 0.113 0.029 0.229 0.029 0.344 0.029 0.141 0 0.256 0.029 0.342 0.086 0.143 0.084 0.199 0.199 0.199 0.342 0 0.199-0.084 0.342-0.258 0.4 -0.113 0.027-0.227 0.057-0.369 0.057 -0.602 0-1.145-0.029-1.516-0.057h-0.398 -0.258c-0.314 0.027-0.828 0.057-1.373 0.057 -0.113 0-0.227-0.029-0.342-0.057 -0.172-0.059-0.256-0.172-0.256-0.4 0-0.143 0.057-0.258 0.199-0.342 0.086-0.057 0.199-0.086 0.314-0.086 0.113 0 0.229 0 0.344-0.029 0.084 0 0.17 0 0.256-0.027 0.086-0.029 0.143-0.086 0.172-0.23 0.057-0.256 0.057-0.627 0.086-1.255l0.113-8.536c0-0.171 0.057-0.342 0.113-0.485 0.088-0.171 0.258-0.286 0.43-0.286 0.287 0 0.514 0.229 0.801 0.514l0.057 0.057 0.229 0.229c0.629 0.656 2.514 2.569 4.342 4.368 0.572 0.542 1.4 1.37 2.086 2.055l0.713 0.743 -0.141-5.767c0-0.4-0.029-0.657-0.086-0.8 -0.059-0.114-0.115-0.171-0.23-0.2v-0.028c-0.17-0.057-0.484-0.057-0.684-0.057 -0.172 0-0.287-0.029-0.373-0.086 -0.113-0.114-0.143-0.228-0.143-0.342 0-0.229 0.115-0.343 0.314-0.4 0.086-0.029 0.201-0.029 0.344-0.029 0.428 0 0.941 0.029 1.342 0.029h0.543 0.285c0.285 0 0.715-0.029 1.172-0.029 0.143 0 0.258 0 0.344 0.029 0.199 0.086 0.285 0.2 0.285 0.4 0 0.142-0.059 0.257-0.201 0.342 -0.084 0.057-0.199 0.086-0.342 0.086H99.53c-0.057 0.028-0.113 0.028-0.199 0.057 -0.115 0.028-0.201 0.086-0.229 0.171 -0.057 0.143-0.086 0.371-0.115 0.742l-0.172 9.08c0 0.199-0.027 0.342-0.086 0.455 -0.084 0.201-0.256 0.285-0.428 0.285s-0.342-0.057-0.486-0.141c-0.113-0.086-0.227-0.172-0.313-0.258 -0.457-0.43-1.145-1.057-1.857-1.742 -0.801-0.742-1.686-1.598-2.514-2.398C92.102 18.707 91.073 17.622 90.389 16.908M99.331 13.511L99.331 13.511M103.844 22.617c0.086-0.57 0.086-1.712 0.086-3.025v-2.542 -2.17c0-0.428 0-0.628-0.029-0.856 0-0.172-0.027-0.286-0.086-0.371 -0.057-0.057-0.172-0.115-0.342-0.143 -0.029-0.029-0.115-0.029-0.201-0.029 -0.086-0.028-0.199-0.028-0.314-0.028 -0.143 0-0.256-0.029-0.342-0.086 -0.115-0.057-0.199-0.2-0.199-0.342 0-0.2 0.084-0.314 0.285-0.372 0.086-0.028 0.199-0.057 0.342-0.057 0.4 0 0.943 0.029 1.371 0.029h0.771 0.715c1.143 0.028 3.113 0.028 3.342 0 0.172 0 0.371-0.029 0.486-0.057h0.113c0-0.029 0.029-0.029 0.057-0.029 0.059-0.028 0.145-0.057 0.23-0.057 0.17 0 0.256 0.086 0.313 0.171 0.059 0.086 0.059 0.172 0.059 0.257 0 0.057 0 0.115-0.029 0.172 0 0.114-0.057 0.342-0.086 0.77 0 0.058 0 0.172-0.029 0.286 0 0.257-0.027 0.571-0.057 0.714 -0.027 0.171-0.113 0.456-0.457 0.456 -0.17 0-0.256-0.085-0.342-0.199 -0.029-0.086-0.059-0.172-0.059-0.286 0-0.028 0-0.143-0.027-0.228 0-0.057-0.029-0.114-0.029-0.172 -0.057-0.085-0.086-0.171-0.17-0.199 -0.086-0.086-0.258-0.115-0.602-0.143v-0.029c-0.086 0-0.428 0-0.799-0.028 -0.457 0-1-0.029-1.314-0.029v3.283h1.113c0.572 0 1.115-0.028 1.287-0.028 0.143-0.029 0.285-0.029 0.371-0.057 0.086-0.029 0.113-0.057 0.17-0.086V17.08c0.029 0 0.059-0.029 0.086-0.058 0.115-0.114 0.172-0.199 0.344-0.199 0.113 0 0.229 0.085 0.314 0.171 0.057 0.086 0.086 0.171 0.086 0.285 0 0.057 0 0.2-0.057 0.486l-0.059 0.599c-0.027 0.114-0.027 0.286-0.057 0.457v0.457c0 0.085-0.029 0.2-0.057 0.314 -0.059 0.171-0.172 0.313-0.4 0.313 -0.115 0-0.229-0.057-0.314-0.114 -0.057-0.086-0.086-0.172-0.113-0.285v-0.172c0-0.086 0-0.199-0.029-0.285 -0.029-0.085-0.057-0.171-0.143-0.229 -0.086-0.057-0.229-0.114-0.43-0.114h-0.027c-0.086-0.029-0.43-0.029-0.828-0.057 -0.43 0-0.943-0.029-1.258-0.029v1.028 0.571c-0.029 0.57-0.029 1.256 0 1.542 0 0.398 0.086 0.628 0.287 0.742 0.256 0.143 0.713 0.199 1.428 0.199 0.199 0 0.457 0 0.686-0.027 0.229-0.029 0.457-0.059 0.627-0.145 0.115-0.057 0.201-0.141 0.287-0.256 0.084-0.143 0.143-0.342 0.17-0.599 0.029-0.114 0.059-0.2 0.115-0.286 0.086-0.114 0.199-0.171 0.342-0.171 0.23 0 0.344 0.143 0.4 0.313 0.029 0.114 0.029 0.229 0.029 0.314 0 0.171-0.029 0.543-0.086 0.885 -0.029 0.314-0.086 0.627-0.143 0.799 -0.143 0.572-0.344 0.572-1.057 0.572 -0.516 0-1.029 0-1.516-0.029 -0.484 0-0.885 0-1.256-0.029h-0.457c-0.486-0.027-0.857-0.027-1.258-0.027h-0.256c-0.172 0-0.4 0.027-0.572 0.027h-0.543c-0.199 0.029-0.371 0.029-0.514 0.029s-0.258-0.029-0.342-0.086c-0.145-0.086-0.23-0.199-0.23-0.371 0-0.113 0.059-0.258 0.201-0.342 0.086-0.057 0.199-0.086 0.342-0.086h0.258c0.057-0.029 0.143-0.029 0.199-0.029 0.059-0.027 0.086-0.057 0.115-0.113C103.815 22.961 103.844 22.818 103.844 22.617"/><rect x="83.817" y="29.641" fill="#fff" width="27.168" height="0.484"/><rect x="4.141" y="29.641" fill="#fff" width="26.34" height="0.484"/></svg>