<svg class="logo" xmlns="http://www.w3.org/2000/svg" xml:space="preserve" width="100%" version="1.1" viewBox="0 0 5080 1693" style="clip-rule:evenodd;fill-rule:evenodd;image-rendering:optimizeQuality;shape-rendering:geometricPrecision;text-rendering:geometricPrecision"><path class="fil0" d="M3907 596c-1480 753-3894 569-4557-136 1400 683 2915 753 4557 136zM5554-110c-895 799-2550 1451-3957 1478-1156 22-2348-482-3036-1316 708 633 1475 1111 3081 1119 1369 6 2910-702 3912-1281zM391 1278c772 330 1808 390 2715 134 806-263 1921-822 2404-1249-1375 699-2981 1761-5119 1115z"/><path class="fil1" d="M1669 1085l0-63 33 48 34-48 0 63 10 0 0-93-44 62-43-62 0 93 10 0zm93-32c0 10 3 19 9 25 7 6 15 9 24 9 10 0 18-2 24-7l0-11c-4 5-12 9-24 9-14 0-23-9-23-24l53 0c0-1 0-2 0-4 0-9-3-17-8-23-6-6-13-9-22-9-9 0-17 3-23 9-7 7-10 15-10 25l0 1zm11-7c0-5 2-10 7-14 4-3 9-5 15-5 5 0 10 2 14 6 4 3 6 8 6 13l-42 0zm74 39l0-39c0-11 6-19 15-19 9 0 15 7 15 18l0 40 9 0 0-39c0-11 7-19 16-19 10 0 15 7 15 18l0 40 10 0 0-42c0-15-9-24-22-24-10 0-17 4-21 12-3-8-10-12-19-12-9 0-15 4-18 12l0-11-10 0 0 65 10 0zm103 0l0-10c4 7 12 12 24 12 9 0 17-3 23-10 6-7 10-15 10-25 0-10-4-18-10-24-6-7-14-10-23-10-12 0-20 5-24 11l0-34-9 0 0 90 9 0zm24-7c-7 0-13-3-18-7-4-5-7-11-7-19 0-7 3-13 7-18 5-5 11-7 18-7 6 0 12 2 16 7 5 5 7 11 7 18 0 8-2 14-7 19-4 4-10 7-16 7zm42-25c0 10 3 19 9 25 6 6 14 9 24 9 9 0 17-2 24-7l0-11c-4 5-12 9-24 9-14 0-23-9-24-24l53 0c0-1 0-2 0-4 0-9-2-17-8-23-6-6-13-9-22-9-9 0-17 3-23 9-6 7-9 15-9 25l0 1zm10-7c0-5 3-10 7-14 4-3 9-5 15-5 6 0 10 2 14 6 4 3 6 8 6 13l-42 0zm74 39l0-38c0-11 7-18 18-18 2 0 4 0 6 0l0-10c-1 0-3 0-4 0-9 0-17 4-20 12l0-11-10 0 0 65 10 0zm91-8c6 7 14 10 24 10 10 0 18-3 25-10 7-7 10-15 10-25 0-10-3-18-10-24-7-7-15-10-25-10-10 0-18 3-24 10-7 6-11 14-11 24 0 10 4 18 11 25zm6-43c5-5 11-7 18-7 7 0 13 2 18 7 5 5 7 11 7 18 0 8-2 14-7 19-5 4-11 7-18 7-7 0-13-3-18-7-5-5-7-11-7-19 0-7 2-13 7-18zm80 51l0-56 12 0 0-9-12 0 0-7c0-8 2-11 9-11 2 0 4 0 6 0l0-9c-2 0-3 0-5 0-6 0-11 1-14 3-4 4-6 10-6 18l0 6-11 0 0 9 11 0 0 56 10 0zm73-9c8 7 17 11 29 11 8 0 15-3 20-7 6-5 8-11 8-17 0-8-2-14-7-18-5-5-10-8-18-12-7-4-11-7-14-9-2-2-4-5-4-9 0-8 7-13 17-13 7 0 13 3 18 9l0-12c-4-4-10-6-18-6-16 0-27 9-27 22 0 7 2 12 7 16 2 2 5 4 7 5 2 1 5 3 9 5 8 4 13 8 16 10 3 3 4 7 4 12 0 7-7 14-19 14-11 0-20-4-28-14l0 13zm81 34l0-35c4 7 12 12 23 12 10 0 17-3 24-10 6-7 9-15 9-25 0-10-3-18-9-24-7-7-14-10-24-10-11 0-19 5-23 11l0-9-9 0 0 90 9 0zm23-32c-7 0-12-3-17-7-5-5-7-11-7-19 0-7 2-13 7-18 5-5 10-7 17-7 7 0 13 2 17 7 5 5 7 11 7 18 0 8-2 14-7 19-4 4-10 7-17 7zm42-25c0 10 3 19 10 25 6 6 14 9 23 9 10 0 18-2 24-7l0-11c-4 5-12 9-24 9-13 0-22-9-23-24l53 0c0-1 0-2 0-4 0-9-3-17-8-23-6-6-13-9-22-9-9 0-17 3-23 9-6 7-10 15-10 25l0 1zm11-7c0-5 2-10 7-14 4-3 9-5 15-5 6 0 10 2 14 6 4 3 6 8 6 13l-42 0zm74 39l0-32 28 32 12 0-31-35 28-30-11 0-26 28 0-53-10 0 0 90 10 0zm63 0l0-56 14 0 0-9-14 0 0-25-10 0 0 25-8 0 0 9 8 0 0 56 10 0zm35 0l0-38c0-11 7-18 17-18 3 0 5 0 7 0l0-10c-1 0-3 0-4 0-10 0-17 4-20 12l0-11-10 0 0 65 10 0zm99 0l0-43 50 0 0 43 10 0 0-90-10 0 0 37-50 0 0-37-10 0 0 90 10 0zm92-12c9 9 20 14 33 14 13 0 24-5 34-14 9-9 13-20 13-33 0-14-4-25-13-34-10-9-21-13-34-13-13 0-24 4-33 13-9 9-14 20-14 34 0 13 5 24 14 33zm7-60c7-7 16-11 26-11 11 0 20 4 27 11 7 7 10 16 10 27 0 11-3 20-10 27-7 7-16 10-27 10-10 0-19-3-26-10-7-7-11-16-11-27 0-11 4-20 11-27zm114 72l0-81 25 0 0-9-60 0 0 9 25 0 0 81 10 0zm92 0l0-9-41 0 0-34 38 0 0-9-38 0 0-29 41 0 0-9-52 0 0 90 52 0zm67 0l0-9-37 0 0-81-10 0 0 90 47 0zm165 0l0-38c0-11 7-18 17-18 3 0 5 0 7 0l0-10c-1 0-3 0-4 0-10 0-17 4-20 12l0-11-10 0 0 65 10 0zm38-8c7 7 15 10 25 10 10 0 18-3 24-10 7-7 11-15 11-25 0-10-4-18-11-24-6-7-14-10-24-10-10 0-18 3-25 10-7 6-10 14-10 24 0 10 3 18 10 25zm7-43c5-5 11-7 18-7 7 0 13 2 18 7 5 5 7 11 7 18 0 8-2 14-7 19-5 4-11 7-18 7-7 0-13-3-18-7-5-5-7-11-7-19 0-7 2-13 7-18zm64 26c0 17 11 26 27 26 16 0 27-10 27-27l0-39-9 0 0 39c0 12-7 18-18 18-11 0-18-6-18-18l0-39-9 0 0 40zm78 50l0-35c4 7 11 12 23 12 9 0 17-3 24-10 6-7 9-15 9-25 0-10-3-18-9-24-7-7-15-10-24-10-12 0-19 5-23 11l0-9-10 0 0 90 10 0zm23-32c-7 0-13-3-17-7-5-5-7-11-7-19 0-7 2-13 7-18 4-5 10-7 17-7 7 0 12 2 17 7 4 5 7 11 7 18 0 8-3 14-7 19-5 4-10 7-17 7zm-270-85c-13 0-24 4-34 13-9 9-13 20-13 34 0 13 4 24 13 33 10 9 21 14 34 14 14 0 26-5 35-15l0-36-38 0 0 9 28 0 0 23c-7 6-15 9-25 9-11 0-20-3-27-10-7-7-10-16-10-27 0-11 3-20 10-27 7-7 16-11 27-11 10 0 19 4 27 11l0-12c-8-5-17-8-27-8z"/><polygon class="fil1" points="1611 1056 1186 1056 1186 1048 1611 1048 "/><polygon class="fil1" points="4074 1056 3606 1056 3606 1048 4074 1048 "/><path class="fil2" d="M1402 780c6 1 10 1 13 1 3 0 6 1 8 1 8 0 16-2 22-4 5-5 7-12 7-22 0-11-3-19-8-25-6-5-14-8-26-8l-16 0 0 57zm-201 38c6 10 12 17 20 23 8 5 16 8 25 8 13 0 23-4 30-12 8-7 12-17 12-30 0-19-17-36-52-50 0 0 0 0 0 0-19-8-32-16-40-26-7-9-11-21-11-36 0-20 6-36 20-49 13-13 30-19 52-19 15 0 29 3 41 10 12 7 21 17 27 31l-16 10c-3-11-9-19-17-25-7-6-16-9-27-9-11 0-20 4-27 11-7 7-11 17-11 28 0 9 3 17 9 24 6 6 17 13 33 20 25 10 42 21 50 31 8 10 12 23 12 38 0 21-7 38-21 52-14 13-33 20-55 20-15 0-29-3-41-9-11-6-21-16-30-29l17-12zm320-80c0-11 2-18 5-22 4-3 11-5 23-5l72 0 0 13-51 0c-7 0-11 1-13 3-2 1-3 4-3 9l0 38 55 0 0 15-55 0 0 48c0 5 1 8 3 9 3 2 7 3 15 3l51 0 0 13-79 0c-9 0-15-2-18-5-4-4-5-11-5-22l0-97zm171 124l-33 0 0-247 33 0 0 173 62-77 19 0-52 64 68 87-42 0-55-71 0 71zm139 0l0-138-32 0 0-13 98 0 0 13-32 0 0 138-34 0zm134 0l-34 0 0-151 61 0c19 0 33 3 43 11 10 7 14 17 14 31 0 9-2 18-8 24-6 6-14 10-25 11l39 74-40 0-36-75c12-1 21-3 27-8 6-5 8-12 8-23 0-11-2-19-8-25-5-5-14-8-26-8l-15 0 0 139zm-501-76c-11 5-24 8-39 8-4 0-9-1-17-1-2-1-4-1-6-1l0 71-33 0 0-152 60 0c19 0 34 3 43 11 10 7 15 17 15 31 0 10-3 18-9 24-3 4-8 7-14 9zM2240 754l0 109-42 0 0-231 42 0 0 105 97 0 0-105 43 0 0 231-43 0 0-109-97 0zm257 102c12 0 21-6 29-19 7-12 11-29 11-50 0-21-4-37-11-50-8-13-17-19-29-19-13 0-22 6-30 19-8 13-11 30-11 50 0 21 3 38 11 50 8 13 17 19 30 19zm4 12c-23 0-42-8-57-24-16-16-23-35-23-59 0-23 6-42 19-57 13-14 31-21 52-21 23 0 42 7 57 23 16 16 24 35 24 59 0 23-7 42-20 57-13 14-31 22-52 22zm125-5l0-139-32 0 0-13 98 0 0 13-32 0 0 139-34 0zm100-125c0-11 2-18 6-22 3-3 11-5 22-5l73 0 0 13-52 0c-6 0-10 1-12 3-2 2-3 5-3 9l0 38 55 0 0 15-55 0 0 49c0 4 1 7 3 9 2 2 7 2 14 2l52 0 0 14-80 0c-8 0-14-2-18-6-3-3-5-11-5-22l0-97zm138-123l34 0 0 223c0 4 1 7 3 9 2 2 7 2 15 2l8 0 0 14-37 0c-8 0-14-2-18-6-3-3-5-11-5-22l0-220zM3097 748l0 99 27 0c18 0 32-3 40-10 8-7 13-19 13-34 0-18-5-32-15-41-10-9-25-14-45-14l-20 0zm0-102l0 88 21 0c18 0 31-4 39-11 8-7 13-18 13-33 0-15-5-26-14-33-9-7-23-11-42-11l-17 0zm39 216l-82 0 0-231 68 0c15 0 27 1 36 3 10 1 17 3 22 6 9 5 17 12 22 21 6 9 8 18 8 29 0 13-3 24-10 32-7 9-17 14-30 18 16 4 28 11 36 21 8 11 12 24 12 39 0 21-6 37-20 47-13 10-34 15-62 15zm188-6c12 0 21-7 29-19 7-13 11-29 11-50 0-21-4-38-11-50-8-13-17-19-29-19-12 0-22 6-30 19-7 13-11 29-11 50 0 21 4 37 11 50 8 12 18 19 30 19zm4 11c-23 0-42-8-57-23-15-16-23-36-23-59 0-24 6-42 20-57 13-14 30-22 51-22 23 0 42 8 57 24 16 15 23 35 23 59 0 23-6 42-19 56-13 15-31 22-52 22zm196-143c-4-1-7-1-11-1-3-1-5-1-8-1-16 0-29 6-37 17-8 11-12 28-12 50 0 20 4 35 13 45 9 10 22 15 41 15l15 0-1-125zm0-13l1-96 33 0 0 247-53 0c-25 0-45-7-61-21-15-14-23-33-23-56 0-24 8-42 22-56 14-13 33-20 58-20 3 0 6 0 10 1 3 0 8 0 13 1zm115 151l-34 0 0-151 61 0c19 0 33 3 43 11 10 7 15 17 15 31 0 9-3 18-9 24-6 6-14 10-25 11l40 74-41 0-36-75c13-1 21-3 27-8 6-5 9-12 9-23 0-11-3-19-9-25-5-5-14-8-26-8l-15 0 0 139zm157-151l0 98c0 12 3 21 8 28 6 7 14 10 25 10 11 0 19-4 24-10 5-7 7-19 7-35l0-91 15 0 0 102c0 16-5 30-14 39-10 10-22 15-39 15-19 0-34-5-44-15-11-10-16-24-16-44l0-97 34 0zm125 151l0-130c0-8 2-14 6-19 4-4 11-7 19-7 7 0 13 2 17 6 4 4 8 10 11 19l24 78 22-82c2-7 5-12 10-16 4-3 10-5 17-5 9 0 15 3 19 8 5 4 7 11 7 20l0 128-32 0 0-126c0-2-1-4-1-5-1 0-2-1-3-1-1 0-2 0-2 1-1 1-2 2-2 4l-33 119c-2 4-3 8-5 10-2 2-4 3-7 3-2 0-5-1-6-3-2-2-4-4-5-8l-36-119c0-1 0-1 0-3-1-3-2-4-3-4-1 0-2 1-2 2-1 1-1 2-1 4l0 126-14 0z"/></svg>