<svg xmlns="http://www.w3.org/2000/svg" viewBox="0 0 103.54 29.794"><path fill="#fff" d="M57.918 3.356l.048 3.679c-.533.169-.945.242-1.429.46-1.988.896-.849 1.646-.169 1.767.652.097 1.112-.025 1.767-.097 0 2.88-.023 6.173.316 8.979.145 1.09.192 1.334.823 1.5.871.244 1.188-.119 1.478-.773.848-1.912.241-9.609.387-10.167.702-.121 1.938-.436 2.422-.75.291-.218.583-.678.146-.944-.509-.339-2.059-.242-2.688-.218-.098-.92-.098-2.905-.194-3.485-.05-.388-.243-.558-.46-.775-.388-.411-.849-.871-1.648-.896-.799-.023-.799 1.066-.799 1.72m-3.439 4.745c-.146-1.162-2.254-.847-3.198-.509-1.091.388-1.671 1.09-1.866 2.373-.218 1.647.169 2.324.92 3.244 1.429 1.743 2.302 2.131 3.295 3.097.242.268.871.727.798 1.332-.121 1.211-3.004 1.525-4.287-.049-.437-.508-.509-.896-.194-1.598.8-1.645-.872-1.064-1.792.072-.655.801-.727 2.35-.219 3.365 1.211 2.396 8.575 2.131 8.817-.75.243-3.051-5.061-4.72-4.359-8.327.316-1.669 1.648-1.742 2.085-2.25M74.39 5.922c-1.163-.339-4.288-.193-5.161 1.501-.241.459-.483 1.404-.144 1.864.945 1.282 5.305-2.445 5.305-3.365m-8.842 1.549c.096.581 2.471 2.663 3.1 1.985.219-.241.073-.823-.048-1.065-.169-.363-.314-.509-.654-.678-.654-.338-1.598-.363-2.398-.242M37.619 26.062V24.9h.654l.654 1.162h.364l-.678-1.211a.908.908 0 0 0 .532-.822c0-.266-.072-.461-.242-.629a.802.802 0 0 0-.606-.242h-.993v2.904h.315zm0-2.614h.654c.314 0 .557.242.557.58 0 .17-.048.291-.17.412-.097.121-.243.168-.412.168h-.629v-1.16zm1.792 1.596c0 .316.097.582.291.801.193.191.46.289.776.289.29 0 .556-.072.75-.24v-.34c-.122.145-.388.291-.75.291-.461 0-.728-.291-.752-.775h1.696v-.121c0-.314-.097-.557-.267-.75-.17-.193-.412-.291-.702-.291-.291 0-.558.098-.751.291-.194.217-.291.484-.291.822v.023zm.339-.24a.55.55 0 0 1 .219-.436.697.697 0 0 1 .484-.17c.193 0 .338.049.46.17a.583.583 0 0 1 .169.436H39.75zm1.841 1.041c.17.191.412.266.727.266.241 0 .436-.074.533-.193.121-.121.194-.242.194-.387 0-.146-.073-.268-.121-.363a1.054 1.054 0 0 0-.146-.123c-.049-.047-.097-.096-.145-.119-.025 0-.097-.049-.195-.098l-.193-.098c-.17-.096-.243-.168-.243-.289 0-.17.121-.268.364-.268.169 0 .314.074.46.17v-.314a.775.775 0 0 0-.485-.146c-.193 0-.363.051-.46.172a.47.47 0 0 0-.193.387c0 .145.048.266.169.363.121.096.193.168.412.266l.194.098a.52.52 0 0 1 .145.096c.098.072.121.145.121.268 0 .168-.145.289-.411.289a.926.926 0 0 1-.727-.314v.337zm2.229.217v-1.814h.46v-.291h-.46v-.799h-.315v.799h-.266v.291h.266v1.814h.315zm1.598-2.18a.996.996 0 0 0-.75.34 1.08 1.08 0 0 0-.315.775c0 .338.122.604.315.799.194.217.46.314.75.314.364 0 .607-.145.727-.363v.314h.315v-2.105h-.315v.314c-.12-.216-.363-.388-.727-.388m0 1.963c-.218 0-.388-.098-.533-.244a.874.874 0 0 1-.218-.604c0-.217.072-.436.218-.582.145-.145.315-.242.533-.242.219 0 .412.098.557.242a.827.827 0 0 1 .219.582.877.877 0 0 1-.219.604.785.785 0 0 1-.557.244m1.43-.606c0 .557.362.871.871.871.534 0 .873-.314.873-.895v-1.26h-.291v1.26c0 .385-.218.604-.582.604-.339 0-.557-.219-.557-.604v-1.26h-.314v1.284zm2.446.823v-1.234a.56.56 0 0 1 .582-.58.49.49 0 0 1 .193.023v-.338h-.12c-.315 0-.534.145-.655.387v-.363h-.291v2.105h.291zm1.914-2.18c-.291 0-.533.123-.751.34-.194.193-.29.461-.29.775 0 .338.096.604.29.799.219.217.46.314.751.314.388 0 .629-.145.75-.363v.314h.315v-2.105h-.315v.314c-.121-.216-.362-.388-.75-.388m0 1.963c-.218 0-.388-.098-.533-.244a.875.875 0 0 1-.219-.604c0-.217.073-.436.219-.582.145-.145.314-.242.533-.242.242 0 .412.098.557.242a.827.827 0 0 1 .218.582.88.88 0 0 1-.218.604.745.745 0 0 1-.557.244m1.769.217v-1.258c0-.363.242-.605.604-.605.339 0 .533.242.533.582v1.281h.315v-1.355c0-.459-.29-.773-.775-.773-.314 0-.556.145-.677.387v-.363h-.292v2.105h.292zm2.3 0v-1.814h.461v-.291h-.461v-.799h-.289v.799h-.268v.291h.268v1.814h.289zm6.929 0c.266 0 .461-.072.63-.242s.267-.361.267-.629c0-.363-.219-.629-.583-.701.219-.098.364-.316.364-.607a.758.758 0 0 0-.217-.531.92.92 0 0 0-.559-.193h-.872v2.904h.97zm-.654-2.614h.531c.267 0 .485.191.485.459 0 .266-.219.461-.485.461h-.531v-.92zm0 1.209h.629c.169 0 .314.049.411.146a.51.51 0 0 1 .17.387c0 .34-.243.557-.581.557h-.629v-1.09zm1.84.387c0 .316.098.582.291.801.194.191.436.289.75.289.316 0 .582-.072.775-.24v-.34c-.146.145-.388.291-.775.291-.436 0-.727-.291-.75-.775h1.694v-.121c0-.314-.071-.557-.265-.75-.171-.193-.388-.291-.68-.291-.314 0-.556.098-.75.291-.193.217-.291.484-.291.822v.023zm.315-.24a.754.754 0 0 1 .219-.436.76.76 0 0 1 .508-.17c.169 0 .316.049.436.17a.606.606 0 0 1 .194.436h-1.357zm2.979-.922a.996.996 0 0 0-.75.34 1.077 1.077 0 0 0-.315.775c0 .338.121.604.315.799.193.217.46.314.75.314.364 0 .605-.145.727-.363v.314h.314v-2.105h-.314v.314c-.121-.216-.363-.388-.727-.388m0 1.963c-.217 0-.388-.098-.533-.244a.878.878 0 0 1-.217-.604.83.83 0 0 1 .217-.582c.146-.145.316-.242.533-.242.219 0 .412.098.558.242a.83.83 0 0 1 .217.582.88.88 0 0 1-.217.604.789.789 0 0 1-.558.244m2.471-1.963c-.314 0-.557.123-.775.34a1.01 1.01 0 0 0-.338.775c0 .338.121.604.338.799.219.217.461.314.775.314.291 0 .533-.074.702-.217v-.363a1.002 1.002 0 0 1-.702.314c-.217 0-.411-.098-.581-.244a.88.88 0 0 1-.218-.604c0-.217.073-.436.218-.582.17-.145.364-.242.581-.242.267 0 .51.098.702.316v-.363a1.11 1.11 0 0 0-.702-.243m1.333 2.18v-1.258c0-.363.242-.605.581-.605.314 0 .509.242.509.582v1.281h.314v-1.355c0-.459-.29-.773-.752-.773-.313 0-.531.145-.652.387v-1.162h-.291v2.904h.291zm-11.579-.364a1.146 1.146 0 0 1-.388.314c-.146.049-.29.098-.46.098-.315 0-.557-.098-.726-.314a.851.851 0 0 1-.219-.557c0-.195.073-.363.169-.51.121-.145.314-.264.533-.387-.121-.145-.219-.289-.267-.387s-.073-.17-.073-.266c0-.193.073-.34.219-.461a.712.712 0 0 1 .533-.217c.194 0 .363.072.483.191.146.123.194.268.194.461 0 .268-.169.533-.557.727l.533.678c.073-.121.121-.266.145-.412l.389.072a2.716 2.716 0 0 1-.269.654c.123.17.292.314.461.436l-.242.291a1.392 1.392 0 0 1-.458-.411m-.75-1.549c.169-.096.267-.17.314-.242s.072-.145.072-.242-.024-.193-.098-.242a.312.312 0 0 0-.241-.096.309.309 0 0 0-.242.096c-.072.049-.098.145-.098.217 0 .051 0 .098.025.146.022.072.072.121.12.17l.148.193zm.507 1.258l-.654-.822c-.193.121-.339.219-.387.314-.073.121-.121.219-.121.316a.57.57 0 0 0 .146.361c.096.145.242.195.411.195a.602.602 0 0 0 .339-.098c.121-.072.219-.143.266-.266"/><path fill="#30384C" d="M46.654 18.774c-1.696-.822-.994-5.88-.994-7.502 0-.75-.024-.92-.436-1.356-.364-.387-1.793-1.209-2.447-.557-.364.339-.339 2.396-.437 3.099-.242 1.598-.823 4.6-2.519 4.453-1.38-.121-1.187-4.501-1.138-5.833.023-.508.169-1.137-.219-1.38-.556-.339-2.471-.242-2.712.411-.533 1.38-.339 4.648.193 6.245.146.459.388.848.533 1.234-.145.146-1.114.727-1.333.799-.291-.58-.121-.895-.824-2.178-.339-.631-.798-1.452-1.21-1.815-.605-.508-1.309-.775-2.18-.218-.436.267-1.405 1.186-1.744 1.283-.993-.484-.436-2.833-.049-3.631.654-1.259 2.98.121 3.876-.315.218-.484-1.018-1.21-1.381-1.428-2.471-1.477-4.626-1.211-5.28 1.84-.412 1.936.315 4.308 1.841 5.181.702.41 1.526-.219 2.059-.631.363-.291.557-.605.8-.727.871.871 1.598 3.365 1.671 4.48-.582.191-1.599 1.209-1.962 1.621-2.374 2.541-2.446 6.318-.145 7.311 2.083.895 3.948-1.066 4.481-2.445 1.163-3.172.315-6.197.436-6.512.194-.242.654-.582.921-.801.314-.264.581-.578.921-.797.605.314.775.482 1.623.629 1.429.242 2.325-.387 3.076-1.453.364-.508.485-.969.751-1.5.387 2.01 1.258 3.293 3.391 3.559.412.074 1.187.049 1.333-.291.242-.532-.557-.603-.896-.775zm-14.681 8.454c-.727.17-1.067-.629-1.067-1.281-.024-1.211 1.115-2.736 1.745-3.004l.048 2.592c0 .675-.121 1.548-.726 1.693zM68.867 9.844c-1.938 1.138-4.772-.218-5.741 3.752-.68 2.831.896 5.567 3.077 6.101 3.052.75 4.941-1.381 5.57-3.656.994-3.655-2.204-6.585-2.906-6.197zm-1.09 8.448c-1.695 1.818-1.866-3.605-1.673-5.082.099-.872.171-1.331.921-1.597.606-.193 1.261.314 1.623.775.946 1.113.267 4.718-.871 5.904z"/></svg>