<svg xmlns="http://www.w3.org/2000/svg" viewBox="0 0 103.54 29.794"><path d="M29.411 24.974v-1.055h.379l.702 1.055h1.111l-.895-1.271c.38-.163.596-.543.596-.976 0-.324-.108-.595-.352-.839a1.298 1.298 0 0 0-.894-.323h-1.597v3.408h.95zm0-2.571h.622c.189 0 .325.135.325.352 0 .271-.163.405-.407.405h-.54v-.757zm6.685 2.571v-.838h-1.678v-.515h1.516v-.757h-1.516v-.461h1.624v-.838h-2.6v3.408h2.654zm2.003-.245c.352.191.785.298 1.272.298 1.001 0 1.461-.433 1.461-1.082 0-.271-.054-.459-.189-.622-.107-.135-.352-.271-.703-.378-.027 0-.108-.027-.217-.055l-.271-.082c-.054 0-.108-.025-.19-.081-.161-.054-.215-.134-.215-.215 0-.109.161-.19.486-.19.406 0 .731.109 1.002.271v-.866a2.507 2.507 0 0 0-1.056-.216c-.379 0-.704.079-.947.27-.271.189-.405.434-.405.757 0 .434.243.759.757.948.108.025.271.079.46.135.217.054.353.109.433.163.108.025.136.079.136.161 0 .163-.189.244-.568.244a2.11 2.11 0 0 1-1.245-.38v.92zm6.227.245v-2.57h.92v-.838h-2.814v.838h.947v2.57h.947zm3.058 0l.243-.46h1.436l.217.46h1.001l-1.948-3.651-1.949 3.651h1zm.949-1.949l.405.784h-.812l.407-.784zm3.463.487c0 .487.136.866.434 1.11.298.271.678.405 1.137.405.461 0 .84-.135 1.136-.405.299-.244.434-.623.434-1.11v-1.946h-.947v1.839c0 .568-.215.759-.622.759-.405 0-.622-.19-.622-.759v-1.839h-.948v1.946zm6.227 1.462v-1.055h.352l.703 1.055h1.111l-.866-1.271c.352-.163.596-.543.596-.976 0-.324-.136-.595-.38-.839a1.297 1.297 0 0 0-.894-.323h-1.596v3.408h.974zm0-2.571h.596c.189 0 .353.135.353.352 0 .271-.163.405-.434.405h-.515v-.757zm4.575 2.571l.244-.46h1.435l.217.46h1.001l-1.949-3.651-1.948 3.651h1zm.947-1.949l.405.784h-.784l.379-.784zm4.71 1.949v-1.731l2.329 1.867v-3.544h-.894v1.704l-2.328-1.84v3.544h.893zm6.12 0v-2.57h.947v-.838h-2.843v.838h.948v2.57h.948zM5.236 6.443c-.027.488-.055.947-.055 3.381v2.841c0 1 .028 1.812.055 2.354.027.514.108.785.189.893h.027c.081.081.217.163.461.19.27.054.676.08 1.299.08.405 0 .758 0 1.056-.054.243-.054.46-.136.622-.299a.983.983 0 0 0 .217-.377c.055-.135.108-.297.135-.434 0-.108.028-.216.082-.297a.423.423 0 0 1 .353-.19c.189 0 .297.082.352.244.054.081.054.162.054.297 0 .108-.054.622-.108 1.109-.054.298-.081.621-.136.813-.081.242-.135.405-.379.513-.188.108-.433.108-.893.108-.866 0-1.571 0-2.193-.027h-.542c-.704-.026-1.272-.054-1.949-.054h-.921v.027h-.568c-.218 0-.406.026-.542.026-.135 0-.271-.026-.352-.081-.162-.054-.243-.189-.243-.353 0-.135.054-.27.217-.323.08-.054.162-.082.323-.082.109 0 .218 0 .299-.027.08 0 .162-.025.216-.025.055-.028.108-.054.136-.136.055-.135.081-.298.108-.515.081-.649.081-1.919.081-3.381V7.417c0-.486 0-.704-.027-.974 0-.217-.026-.379-.107-.487-.055-.081-.163-.136-.353-.189h-.026c-.055 0-.108-.027-.19-.027h-.271c-.135 0-.217-.027-.324-.055a.4.4 0 0 1-.217-.378c0-.163.081-.297.271-.352.082-.027.189-.054.352-.054.406 0 .92.026 1.381.026.324.028.594.028.81.028.217 0 .516 0 .84-.027.487 0 1.028-.026 1.354-.026.135 0 .271.026.353.054.162.054.243.189.243.352 0 .19-.054.298-.217.378a1.02 1.02 0 0 1-.326.054h-.325c-.08.027-.188.027-.27.027-.135.027-.217.081-.244.162-.081.109-.108.271-.108.514m14.807 10.334l-1.056-2.651h-3.141l-.73 1.785a2.405 2.405 0 0 0-.135.405c-.027.135-.055.244-.055.326 0 .025 0 .054.027.054.027.025.108.053.271.053h.217c.162 0 .271.054.324.109a.345.345 0 0 1 .136.296c0 .163-.055.299-.189.353a.54.54 0 0 1-.298.081c-.217 0-.515-.026-.813-.026-.271-.027-.514-.027-.758-.027h-.271c-.324.027-.866.054-1.381.054a.706.706 0 0 1-.324-.081c-.136-.054-.189-.161-.189-.353 0-.106.026-.214.134-.296a.489.489 0 0 1 .3-.109h.188c.081 0 .135-.027.19-.027a.84.84 0 0 0 .54-.271c.162-.188.271-.433.407-.757l3.708-8.521c.081-.217.163-.379.243-.487a.448.448 0 0 1 .406-.217c.216 0 .325.054.461.189.08.108.135.217.216.379v.026c.189.433.947 2.219 1.76 4.059.73 1.731 1.517 3.544 1.841 4.273.244.596.46.92.649 1.11.136.136.271.189.353.189.189.025.325.053.487.053.107 0 .216.028.297.082a.384.384 0 0 1 .163.323c0 .191-.055.326-.298.38a2.77 2.77 0 0 1-.596.054h-1.083c-.487-.026-1.028-.026-1.624-.054h-.08c-.379 0-.595-.027-.595-.38a.35.35 0 0 1 .108-.27v-.026c.055-.026.108-.054.19-.08m-2.626-6.628l-1.056 2.678h2.111l-1.055-2.678zm17.732 7.548c-.542.081-1.165.107-1.733.107a11.6 11.6 0 0 1-3.112-.405 7.254 7.254 0 0 1-2.572-1.407 6.21 6.21 0 0 1-1.651-2.407c-.324-.866-.433-1.731-.433-2.543 0-.649.136-1.596.542-2.542a5.891 5.891 0 0 1 1.435-2.056 6.154 6.154 0 0 1 2.165-1.299c.866-.297 1.867-.459 3.086-.459.515 0 .921 0 1.3.027.353.026.704.081 1.082.135.298.027.569.081.813.135.297.054.542.108.786.136.134 0 .243.054.297.108.136.108.189.217.189.352 0 .054-.027.136-.027.243a6.31 6.31 0 0 0-.082.649v.92c-.025.325-.025.649-.025.812-.028.162-.028.271-.082.378-.081.162-.189.243-.379.243s-.325-.082-.38-.243c-.054-.108-.054-.216-.054-.378a3.06 3.06 0 0 0-.161-.676 1.48 1.48 0 0 0-.406-.595v-.029c-.244-.244-.65-.459-1.192-.649-.54-.162-1.163-.243-1.867-.243-.677 0-1.218.082-1.678.243-.461.162-.84.379-1.165.677a3.834 3.834 0 0 0-1.082 1.785c-.217.677-.299 1.406-.299 2.165 0 1.649.543 2.895 1.354 3.787.974 1.109 2.301 1.677 3.438 1.677.677 0 1.245-.054 1.679-.162.433-.136.758-.324 1.056-.649.109-.134.217-.297.298-.433.08-.189.162-.377.189-.514.027-.162.055-.243.108-.352.082-.135.189-.19.352-.19.163 0 .271.083.353.19a.72.72 0 0 1 .081.325c0 .135-.081.677-.162 1.218a6.305 6.305 0 0 1-.218 1.001 1.386 1.386 0 0 1-.189.405 1.514 1.514 0 0 1-.379.244c-.327.106-.76.216-1.275.269m14.617-1.569c-1.082 1.026-2.599 1.623-4.439 1.623-1.921 0-3.33-.597-4.304-1.514-1.219-1.11-1.76-2.68-1.76-4.086 0-1.38.541-2.977 1.814-4.112.974-.893 2.409-1.515 4.385-1.515 1.841 0 3.357.514 4.413 1.435 1.055.947 1.624 2.299 1.624 3.95.001 1.676-.623 3.163-1.733 4.219m-6.74-.947c.677.812 1.652 1.299 2.87 1.299.541 0 1.516-.163 2.191-1.055.461-.623.786-1.569.786-3.03 0-1.407-.406-2.543-1.083-3.328-.676-.811-1.651-1.271-2.761-1.271-.813 0-1.706.244-2.328 1.001-.487.595-.813 1.514-.813 2.921.001 1.38.407 2.597 1.138 3.463m13.915-7.115c-.028.406-.028.811-.028 2.867v2.408c0 .865 0 1.515.028 1.975.025.405.081.622.188.702.081.056.217.109.488.163.271.027.676.056 1.218.056.352 0 .678 0 .92-.056.217-.026.405-.107.515-.243h.025c.056-.055.109-.162.165-.27.054-.137.08-.298.107-.407 0-.081.027-.189.081-.271.08-.107.189-.162.353-.162.16 0 .27.081.325.243.054.083.054.217.054.326 0 .107-.027.513-.081.945a3.525 3.525 0 0 1-.138.704c-.054.244-.133.379-.35.459-.163.081-.379.108-.784.108-.489 0-.948 0-1.409-.027-.433 0-.813 0-1.164-.026h-.27c-.57-.027-1.057-.027-1.6-.027h-.242c-.163 0-.379.027-.542.027h-.515c-.189.026-.352.026-.487.026a.63.63 0 0 1-.323-.081c-.138-.08-.217-.189-.217-.353 0-.106.054-.242.188-.323a.58.58 0 0 1 .324-.082h.244c.056-.027.135-.027.19-.027a.204.204 0 0 0 .107-.107c.054-.081.081-.217.109-.405.054-.54.054-1.624.054-2.867V8.877c0-.405 0-.595-.028-.811 0-.163-.025-.271-.081-.352-.054-.054-.161-.109-.324-.136-.054-.027-.108-.027-.162-.027-.054-.026-.136-.026-.217-.026a.585.585 0 0 1-.326-.082c-.13-.053-.186-.189-.186-.323 0-.163.081-.297.244-.353a1.04 1.04 0 0 1 .324-.054c.325 0 .813.027 1.22.027h1.515c.459 0 .974-.027 1.246-.027a1 1 0 0 1 .323.054c.163.055.244.19.244.353 0 .162-.054.27-.19.352a1.028 1.028 0 0 1-.323.054c-.082 0-.191 0-.272.026-.08 0-.161 0-.215.027h-.027c-.109.027-.191.054-.217.108-.056.055-.056.189-.081.379m9.744 0c-.026.406-.054.811-.054 2.867v2.408c0 .865.027 1.515.054 1.975.027.405.081.622.162.702.082.056.244.109.489.163.296.027.675.056 1.218.056.377 0 .677 0 .947-.056a.836.836 0 0 0 .515-.243c.054-.055.107-.162.163-.27.053-.137.106-.298.106-.407.026-.081.054-.189.107-.271a.359.359 0 0 1 .326-.162c.188 0 .298.081.352.243.027.083.054.217.054.326 0 .107-.026.513-.08.945-.055.271-.081.541-.137.704-.081.244-.135.379-.352.459-.163.081-.405.108-.811.108-.461 0-.922 0-1.381-.027-.435 0-.813 0-1.166-.026h-.296c-.542-.027-1.029-.027-1.571-.027h-.242c-.19 0-.38.027-.57.027h-.486c-.189.026-.352.026-.487.026s-.244-.026-.323-.081c-.138-.08-.219-.189-.219-.353 0-.106.054-.242.19-.323a.484.484 0 0 1 .296-.082h.272c.054-.027.107-.027.161-.027h.027a.207.207 0 0 0 .109-.107 2.85 2.85 0 0 0 .082-.405c.053-.54.053-1.624.053-2.867V8.066c-.025-.163-.025-.271-.081-.352-.054-.054-.163-.109-.323-.136-.056-.027-.109-.027-.163-.027-.082-.026-.163-.026-.244-.026-.326 0-.515-.136-.515-.406 0-.163.081-.297.244-.353a1.03 1.03 0 0 1 .324-.054c.354 0 .813.027 1.245.027h1.516c.461 0 .976-.027 1.245-.027.136 0 .245.027.326.054.161.055.242.19.242.353 0 .162-.054.27-.188.352-.109.026-.217.054-.352.054-.054 0-.163 0-.244.026-.082 0-.163 0-.243.027-.108.027-.19.054-.218.108-.052.056-.079.19-.079.38m7.201 8.224c.055-.54.055-1.623.055-2.948V8.066c-.027-.19-.055-.297-.108-.352-.026-.054-.107-.109-.191-.136-.079-.027-.135-.027-.214-.027-.054-.026-.136-.026-.217-.026-.137 0-.217 0-.326-.082-.107-.054-.19-.162-.19-.352 0-.162.109-.27.272-.325h.027c.08-.026.188-.054.324-.054.244 0 .677.027 1.082.027h1.516c.407 0 .841-.027 1.111-.027.108 0 .216.027.323.054.137.055.244.164.244.325 0 .189-.079.297-.188.352-.081.082-.19.082-.325.082-.054 0-.107 0-.163.026-.054 0-.136 0-.189.027-.135.027-.188.054-.244.108a1.771 1.771 0 0 0-.081.379c-.026.406-.026.811-.026 2.867v4.165c.026.514.026.919.054 1.191.028.161.054.243.109.324a.344.344 0 0 0 .242.082c.163.025.487.053.678.053.135 0 .217.028.298.082.135.081.19.217.19.323 0 .163-.083.272-.218.353a.57.57 0 0 1-.324.081c-.542 0-1.138-.026-1.597-.054h-.678c-.163 0-.405 0-.678.027-.405 0-.866.026-1.162.026a.734.734 0 0 1-.352-.081c-.137-.08-.19-.189-.19-.353 0-.106.027-.242.163-.323a.572.572 0 0 1 .323-.082h.244c.082-.027.136-.027.189-.027a.59.59 0 0 0 .137-.079c.027-.079.054-.189.08-.35m9.015-5.492l-.271-.298.135 4.952c.026.486.082.811.136.999.054.138.109.191.163.217.106.028.216.054.323.054.109.027.217.027.326.027.135 0 .244.028.323.082a.351.351 0 0 1 .191.323c0 .191-.082.326-.245.38a1.355 1.355 0 0 1-.352.054 18.8 18.8 0 0 1-1.434-.054h-.624a15.44 15.44 0 0 1-1.299.054c-.107 0-.217-.026-.324-.054-.163-.054-.244-.161-.244-.38 0-.135.054-.242.188-.323a.548.548 0 0 1 .298-.082c.109 0 .217 0 .326-.027.081 0 .162 0 .244-.025.079-.028.133-.082.161-.217.054-.242.054-.596.081-1.19l.112-8.09c0-.162.054-.324.107-.459a.475.475 0 0 1 .407-.271c.271 0 .486.217.757.487l.054.054.217.217c.596.621 2.382 2.434 4.115 4.139.541.514 1.327 1.298 1.976 1.947l.677.704-.135-5.464c0-.379-.028-.623-.082-.758-.054-.108-.106-.162-.216-.189v-.028c-.163-.054-.459-.054-.65-.054-.162 0-.27-.028-.352-.082a.43.43 0 0 1-.137-.324c0-.217.109-.325.3-.379.08-.027.188-.027.324-.027.405 0 .894.027 1.271.027h.786c.271 0 .676-.027 1.108-.027.138 0 .245 0 .326.027.188.082.271.19.271.379a.352.352 0 0 1-.189.324.58.58 0 0 1-.325.082h-.163c-.054.026-.107.026-.188.054-.107.027-.189.082-.217.163-.054.135-.081.351-.109.703l-.161 8.604a.954.954 0 0 1-.081.433.43.43 0 0 1-.405.271.906.906 0 0 1-.461-.136 2.909 2.909 0 0 1-.298-.242c-.434-.407-1.083-1.003-1.76-1.651-.757-.703-1.596-1.515-2.382-2.272-.974-.949-1.95-1.977-2.599-2.654m12.749 5.411c.082-.54.082-1.624.082-2.867V8.877c0-.405 0-.595-.028-.811 0-.163-.025-.271-.081-.352-.054-.054-.161-.109-.324-.136-.027-.027-.108-.027-.188-.027-.081-.026-.19-.026-.298-.026a.585.585 0 0 1-.326-.082.376.376 0 0 1-.188-.324c0-.189.081-.297.271-.353.081-.026.188-.054.325-.054.378 0 .893.027 1.3.027h1.406c1.085.026 2.952.026 3.167 0 .164 0 .354-.027.46-.054h.109c0-.027.028-.027.054-.027a.521.521 0 0 1 .217-.054c.163 0 .244.082.298.162.054.082.054.164.054.244 0 .054 0 .109-.025.163 0 .108-.054.324-.082.729 0 .055 0 .163-.027.271 0 .243-.026.541-.054.676-.028.162-.109.432-.434.432-.162 0-.244-.081-.325-.189-.026-.081-.054-.163-.054-.271 0-.026 0-.135-.026-.216 0-.054-.027-.108-.027-.163-.054-.081-.082-.162-.163-.188-.081-.081-.242-.109-.568-.135v-.026c-.081 0-.407 0-.759-.026-.433 0-.947-.027-1.243-.027v3.11h1.055c.54 0 1.055-.026 1.218-.026.135-.027.271-.027.352-.054.081-.027.109-.054.163-.082v-.026c.027 0 .054-.028.081-.055.107-.108.161-.189.326-.189.107 0 .215.081.296.163a.458.458 0 0 1 .081.27c0 .054 0 .19-.054.461l-.054.567c-.027.108-.027.271-.055.433v.433c0 .081-.026.189-.054.298-.054.162-.161.297-.38.297a.566.566 0 0 1-.296-.108.764.764 0 0 1-.109-.271v-.163c0-.082 0-.189-.027-.271-.026-.081-.054-.162-.136-.216a.723.723 0 0 0-.405-.108h-.027c-.08-.028-.405-.028-.785-.054-.405 0-.894-.027-1.189-.027v1.516c-.028.54-.028 1.19 0 1.461 0 .378.081.594.27.703.245.136.678.188 1.354.188.19 0 .433 0 .649-.027.217-.025.433-.054.596-.135a.798.798 0 0 0 .271-.244c.081-.134.137-.324.163-.567a.835.835 0 0 1 .107-.271.387.387 0 0 1 .325-.162c.217 0 .326.135.38.297.027.108.027.218.027.297 0 .164-.027.515-.081.839a3.937 3.937 0 0 1-.138.759c-.135.54-.323.54-1.001.54-.486 0-.974 0-1.435-.027-.46 0-.84 0-1.191-.026h-.434c-.459-.027-.811-.027-1.189-.027h-.244c-.163 0-.38.027-.541.027h-.515c-.19.026-.353.026-.486.026a.567.567 0 0 1-.325-.081c-.136-.08-.217-.189-.217-.353 0-.106.054-.242.188-.323a.583.583 0 0 1 .326-.082h.242c.056-.027.137-.027.19-.027a.2.2 0 0 0 .107-.107c.051-.083.078-.219.078-.407m-18.975 6.655h25.743v.459H76.675zm-75.5 0h24.959v.459H1.175z" fill="#fff"/></svg>