<svg xmlns="http://www.w3.org/2000/svg" viewBox="0 0 115.069 42.466"><path fill="#fff" d="M33.938 31.867v-1.113h.4l.741 1.113h1.173l-.943-1.342c.4-.17.628-.57.628-1.027 0-.342-.114-.629-.371-.885a1.365 1.365 0 0 0-.943-.342h-1.685v3.596h1zm0-2.711h.657c.2 0 .343.143.343.371 0 .285-.172.428-.429.428h-.571v-.799zm7.056 2.711v-.885h-1.771v-.541h1.6v-.801h-1.6v-.484h1.714v-.885h-2.743v3.596h2.8zm2.114-.256c.371.199.828.313 1.343.313 1.057 0 1.542-.457 1.542-1.141 0-.285-.057-.486-.2-.656-.113-.143-.371-.287-.742-.4-.028 0-.114-.029-.229-.057l-.286-.086c-.057 0-.114-.027-.2-.086-.171-.057-.228-.143-.228-.229 0-.113.171-.199.514-.199.429 0 .771.113 1.058.285v-.914a2.67 2.67 0 0 0-1.114-.229c-.4 0-.743.086-1 .285-.286.201-.428.457-.428.801 0 .455.257.799.799.998.114.029.286.086.485.145.229.057.372.113.457.17.114.029.144.086.144.172 0 .17-.2.256-.601.256-.514 0-.942-.143-1.313-.398v.97zm6.571.256v-2.711h.971v-.885h-2.971v.885h1v2.711h1zm3.228 0l.257-.484h1.515l.229.484h1.057l-2.057-3.854-2.057 3.854h1.056zm1-2.054l.428.828h-.856l.428-.828zm3.656.513c0 .514.143.914.457 1.17.314.285.715.428 1.201.428.484 0 .885-.143 1.199-.428.314-.256.457-.656.457-1.17v-2.055h-1v1.939c0 .602-.229.801-.656.801-.43 0-.658-.199-.658-.801v-1.939h-1v2.055zm6.572 1.541v-1.113h.369l.744 1.113h1.17l-.914-1.342c.373-.17.631-.57.631-1.027 0-.342-.145-.629-.4-.885a1.369 1.369 0 0 0-.943-.342h-1.686v3.596h1.029zm0-2.711h.627c.199 0 .373.143.373.371 0 .285-.174.428-.457.428h-.543v-.799zm4.826 2.711l.258-.484h1.514l.229.484h1.059l-2.059-3.854-2.057 3.854h1.056zm1-2.054l.43.828h-.828l.398-.828zm4.973 2.054v-1.826l2.457 1.969v-3.738h-.943v1.797l-2.457-1.941v3.74h.943zm6.455 0v-2.711h1v-.885h-3v.885h1v2.711h1zM8.426 12.312c-.028.514-.058.999-.058 3.568v2.998c0 1.056.029 1.913.058 2.484.029.542.115.828.2.943h.028c.086.086.229.17.486.199.285.057.714.086 1.371.086.428 0 .8 0 1.114-.059.257-.057.485-.141.656-.313a1.04 1.04 0 0 0 .229-.4c.057-.143.114-.313.142-.457a.57.57 0 0 1 .086-.313c.086-.114.2-.2.372-.2.2 0 .314.086.371.257.058.086.058.171.058.313 0 .114-.058.658-.114 1.171-.058.313-.086.656-.144.855-.086.258-.143.428-.399.543-.2.115-.457.115-.943.115-.914 0-1.657 0-2.313-.029h-.571c-.743-.029-1.343-.057-2.057-.057h-.971v.027h-.6c-.229 0-.429.029-.572.029a.717.717 0 0 1-.371-.086c-.171-.057-.257-.201-.257-.371 0-.143.057-.285.229-.342.085-.059.171-.086.342-.086.115 0 .229 0 .314-.029.085 0 .171-.027.229-.027.057-.029.114-.059.143-.145.058-.143.086-.313.114-.541.086-.686.086-2.027.086-3.569V13.34c0-.514 0-.743-.029-1.028 0-.229-.027-.4-.113-.514-.058-.086-.171-.143-.371-.2h-.03c-.057 0-.114-.028-.2-.028h-.286c-.142 0-.228-.029-.342-.058a.422.422 0 0 1-.229-.399c0-.172.086-.314.286-.371.086-.029.199-.057.37-.057.43 0 .972.028 1.457.028.344.029.629.029.857.029s.543 0 .886-.029c.515 0 1.085-.028 1.428-.028.144 0 .286.028.372.057.172.057.258.199.258.371 0 .2-.058.314-.229.399-.086.029-.2.058-.343.058h-.343c-.085.028-.199.028-.285.028-.144.029-.229.086-.257.171-.085.115-.115.286-.115.543m15.627 10.905l-1.114-2.796h-3.313l-.771 1.884c-.057.143-.115.285-.143.428-.029.143-.058.256-.058.342 0 .029 0 .059.028.059.029.027.115.057.286.057h.229c.171 0 .285.057.343.113a.366.366 0 0 1 .143.314c0 .17-.057.314-.2.371a.574.574 0 0 1-.313.086c-.229 0-.543-.029-.857-.029-.286-.027-.543-.027-.8-.027h-.286c-.342.027-.914.057-1.457.057a.76.76 0 0 1-.342-.086c-.144-.057-.2-.172-.2-.371 0-.113.028-.229.142-.314a.528.528 0 0 1 .315-.113h.2c.085 0 .142-.029.2-.029a.903.903 0 0 0 .57-.285c.171-.199.286-.457.43-.799l3.913-8.993c.086-.229.172-.4.257-.514a.474.474 0 0 1 .429-.229.59.59 0 0 1 .486.2c.085.114.142.229.228.4v.028c.2.457 1 2.341 1.857 4.283.771 1.827 1.6 3.74 1.942 4.51.258.629.485.971.686 1.17.143.143.286.201.372.201.2.027.343.057.514.057.114 0 .229.027.314.086a.407.407 0 0 1 .172.342c0 .199-.059.342-.315.4a3.006 3.006 0 0 1-.628.057h-1.143c-.515-.029-1.085-.029-1.714-.057h-.087c-.399 0-.628-.029-.628-.4 0-.113.028-.201.114-.285v-.029c.056-.031.113-.06.199-.089m-2.771-6.994l-1.113 2.826h2.228l-1.115-2.826zm18.713 7.965c-.572.086-1.229.115-1.829.115-1.171 0-2.256-.143-3.285-.43a7.657 7.657 0 0 1-2.714-1.482 6.568 6.568 0 0 1-1.743-2.542c-.342-.914-.457-1.827-.457-2.684 0-.685.144-1.684.572-2.683.313-.743.8-1.514 1.514-2.17a6.518 6.518 0 0 1 2.285-1.371c.914-.314 1.971-.485 3.257-.485.543 0 .972 0 1.371.029.372.028.743.085 1.143.142.314.029.601.086.857.143.313.057.571.114.829.143.142 0 .257.057.313.114.144.114.2.229.2.371 0 .057-.029.143-.029.257a6.65 6.65 0 0 0-.086.685v.971c-.027.343-.027.685-.027.857-.029.171-.029.285-.086.399-.086.171-.2.257-.4.257s-.343-.086-.4-.257c-.057-.114-.057-.228-.057-.399a3.238 3.238 0 0 0-.171-.714 1.543 1.543 0 0 0-.429-.628v-.029c-.258-.257-.686-.485-1.258-.685-.57-.171-1.228-.257-1.971-.257-.714 0-1.285.086-1.771.257s-.886.4-1.229.714a4.073 4.073 0 0 0-1.142 1.884c-.229.714-.315 1.484-.315 2.284 0 1.741.572 3.055 1.43 3.997 1.027 1.169 2.428 1.771 3.628 1.771.714 0 1.313-.059 1.771-.172.457-.143.8-.344 1.114-.686.115-.142.229-.313.314-.457.085-.199.171-.398.2-.542.028-.171.058-.257.114-.371.086-.143.2-.2.371-.2a.45.45 0 0 1 .372.2.762.762 0 0 1 .085.343c0 .143-.085.714-.171 1.284a6.89 6.89 0 0 1-.229 1.059c-.057.17-.114.313-.2.428a1.66 1.66 0 0 1-.399.256 6.394 6.394 0 0 1-1.342.284m15.425-1.657c-1.143 1.086-2.742 1.713-4.686 1.713-2.027 0-3.514-.627-4.542-1.598-1.286-1.17-1.856-2.827-1.856-4.311 0-1.456.57-3.141 1.914-4.34 1.028-.942 2.543-1.599 4.628-1.599 1.942 0 3.543.543 4.657 1.514 1.113.999 1.714 2.426 1.714 4.168.001 1.771-.657 3.34-1.829 4.453m-7.113-.998c.714.858 1.743 1.37 3.028 1.37.571 0 1.6-.17 2.313-1.113.486-.656.829-1.655.829-3.197 0-1.485-.429-2.684-1.143-3.512-.714-.856-1.743-1.342-2.914-1.342-.857 0-1.8.257-2.457 1.057-.514.628-.857 1.598-.857 3.083.001 1.455.431 2.741 1.201 3.654m14.684-7.508c-.027.428-.027.856-.027 3.026v2.542c0 .913 0 1.599.027 2.084.029.427.088.656.201.742.086.057.229.113.514.172.285.027.715.057 1.285.057.371 0 .715 0 .973-.057.229-.029.428-.115.543-.258h.027c.057-.057.115-.172.172-.285.057-.144.086-.314.113-.429 0-.086.029-.2.086-.286.086-.113.201-.171.371-.171.172 0 .287.086.344.257.057.087.057.229.057.344 0 .113-.029.542-.086 1-.027.285-.084.57-.143.742-.057.256-.143.398-.371.484-.172.086-.4.115-.828.115-.516 0-1 0-1.486-.029-.457 0-.857 0-1.227-.029h-.287c-.6-.027-1.113-.027-1.686-.027h-.258c-.17 0-.4.027-.57.027h-.543c-.201.029-.371.029-.514.029a.683.683 0 0 1-.344-.086c-.143-.086-.229-.199-.229-.371 0-.113.059-.258.201-.342a.603.603 0 0 1 .342-.086h.258c.057-.029.143-.029.199-.029a.216.216 0 0 0 .115-.113c.057-.086.086-.229.113-.43.057-.57.057-1.712.057-3.025v-4.712c0-.428 0-.628-.027-.856 0-.172-.029-.286-.086-.371-.057-.057-.172-.115-.344-.143-.057-.029-.113-.029-.17-.029-.057-.028-.143-.028-.229-.028a.61.61 0 0 1-.344-.086c-.143-.057-.201-.2-.201-.342 0-.172.088-.314.26-.372.084-.028.197-.057.342-.057.342 0 .855.029 1.285.029h1.599c.486 0 1.029-.029 1.314-.029.143 0 .258.029.344.057.17.058.256.2.256.372 0 .171-.057.285-.199.371a1.09 1.09 0 0 1-.344.057c-.086 0-.199 0-.285.028-.086 0-.172 0-.229.029h-.029c-.113.028-.199.057-.227.114-.056.057-.056.2-.085.4m10.285 0c-.027.428-.057.856-.057 3.026v2.542c0 .913.029 1.599.057 2.084.029.427.086.656.172.742.084.057.258.113.514.172.314.027.715.057 1.287.057.398 0 .713 0 .998-.057a.886.886 0 0 0 .543-.258c.057-.057.113-.172.172-.285.057-.144.115-.314.115-.429.027-.086.057-.2.113-.286a.377.377 0 0 1 .342-.171c.201 0 .314.086.371.257.029.087.059.229.059.344 0 .113-.029.542-.086 1-.057.285-.086.57-.143.742-.086.256-.143.398-.371.484-.172.086-.43.115-.857.115-.486 0-.973 0-1.457-.029-.457 0-.857 0-1.229-.029h-.314c-.57-.027-1.086-.027-1.656-.027h-.259c-.199 0-.4.027-.6.027h-.514c-.201.029-.373.029-.516.029s-.256-.029-.342-.086c-.143-.086-.229-.199-.229-.371 0-.113.057-.258.199-.342a.516.516 0 0 1 .314-.086h.285c.059-.029.115-.029.172-.029h.029a.212.212 0 0 0 .113-.113 2.74 2.74 0 0 0 .086-.43c.057-.57.057-1.712.057-3.025v-5.568c-.027-.172-.027-.286-.086-.371-.057-.057-.17-.115-.342-.143-.057-.029-.115-.029-.172-.029-.086-.028-.17-.028-.256-.028-.344 0-.543-.143-.543-.428 0-.172.086-.314.256-.372a1.09 1.09 0 0 1 .344-.057c.371 0 .857.029 1.314.029h1.599c.486 0 1.029-.029 1.314-.029.143 0 .256.029.342.057.172.058.258.2.258.372 0 .171-.057.285-.201.371-.113.028-.227.057-.371.057-.057 0-.172 0-.256.028-.086 0-.172 0-.258.029-.115.028-.199.057-.229.114-.052.057-.081.2-.081.4m7.599 8.678c.057-.57.057-1.712.057-3.111v-5.568c-.029-.2-.057-.314-.115-.371-.027-.057-.113-.115-.199-.143-.086-.029-.143-.029-.229-.029-.057-.028-.143-.028-.229-.028-.143 0-.229 0-.344-.086-.113-.057-.199-.171-.199-.371 0-.171.115-.285.285-.343h.029c.086-.028.201-.057.342-.057.258 0 .715.029 1.145.029h1.599c.428 0 .885-.029 1.17-.029.115 0 .23.029.344.057.143.058.258.172.258.343 0 .2-.086.314-.201.371-.084.086-.199.086-.342.086-.059 0-.115 0-.172.028-.057 0-.143 0-.199.029-.145.028-.201.057-.258.114-.029.057-.057.2-.086.4-.027.428-.027.856-.027 3.026v4.396c.027.543.027.971.057 1.256.027.172.057.258.113.344a.383.383 0 0 0 .258.086c.172.027.514.057.713.057.145 0 .23.029.316.086a.406.406 0 0 1 .199.342c0 .172-.086.285-.229.371a.615.615 0 0 1-.344.086c-.57 0-1.199-.029-1.686-.057h-.711c-.172 0-.43 0-.715.027-.428 0-.914.029-1.229.029a.787.787 0 0 1-.371-.086c-.143-.086-.199-.199-.199-.371 0-.113.027-.258.17-.342a.615.615 0 0 1 .344-.086h.256c.086-.029.145-.029.201-.029a.591.591 0 0 0 .143-.086c.027-.085.056-.198.085-.37m9.514-5.795l-.287-.314.145 5.225c.027.513.084.857.143 1.056.057.143.113.199.17.229.115.029.229.057.344.057.113.029.229.029.344.029.141 0 .256.029.342.086a.369.369 0 0 1 .199.342c0 .199-.084.342-.258.4-.113.027-.227.057-.369.057-.602 0-1.145-.029-1.516-.057h-.656c-.314.027-.828.057-1.373.057-.113 0-.227-.029-.342-.057-.172-.059-.256-.172-.256-.4a.37.37 0 0 1 .199-.342.575.575 0 0 1 .314-.086c.113 0 .229 0 .344-.029.084 0 .17 0 .256-.027.086-.029.143-.086.172-.23.057-.256.057-.627.086-1.255l.113-8.536c0-.171.057-.342.113-.485a.506.506 0 0 1 .43-.286c.287 0 .514.229.801.514l.057.057.229.229c.629.656 2.514 2.569 4.342 4.368.572.542 1.4 1.37 2.086 2.055l.713.743-.141-5.767c0-.4-.029-.657-.086-.8-.059-.114-.115-.171-.23-.2v-.028c-.17-.057-.484-.057-.684-.057-.172 0-.287-.029-.373-.086a.456.456 0 0 1-.143-.342c0-.229.115-.343.314-.4.086-.029.201-.029.344-.029.428 0 .941.029 1.342.029H98.445c.285 0 .715-.029 1.172-.029.143 0 .258 0 .344.029.199.086.285.2.285.4a.375.375 0 0 1-.201.342.603.603 0 0 1-.342.086h-.173c-.057.028-.113.028-.199.057-.115.028-.201.086-.229.171-.057.143-.086.371-.115.742l-.172 9.08c0 .199-.027.342-.086.455-.084.201-.256.285-.428.285s-.342-.057-.486-.141c-.113-.086-.227-.172-.313-.258-.457-.43-1.145-1.057-1.857-1.742-.801-.742-1.686-1.598-2.514-2.398-1.029-1-2.058-2.085-2.742-2.799m13.455 5.709c.086-.57.086-1.712.086-3.025V14.88c0-.428 0-.628-.029-.856 0-.172-.027-.286-.086-.371-.057-.057-.172-.115-.342-.143-.029-.029-.115-.029-.201-.029-.086-.028-.199-.028-.314-.028a.608.608 0 0 1-.342-.086.394.394 0 0 1-.199-.342c0-.2.084-.314.285-.372.086-.028.199-.057.342-.057.4 0 .943.029 1.371.029h1.486c1.143.028 3.113.028 3.342 0 .172 0 .371-.029.486-.057h.113c0-.029.029-.029.057-.029a.564.564 0 0 1 .23-.057.35.35 0 0 1 .313.171c.059.086.059.172.059.257 0 .057 0 .115-.029.172 0 .114-.057.342-.086.77 0 .058 0 .172-.029.286 0 .257-.027.571-.057.714-.027.171-.113.456-.457.456-.17 0-.256-.085-.342-.199-.029-.086-.059-.172-.059-.286 0-.028 0-.143-.027-.228 0-.057-.029-.114-.029-.172-.057-.085-.086-.171-.17-.199-.086-.086-.258-.115-.602-.143v-.029c-.086 0-.428 0-.799-.028-.457 0-1-.029-1.314-.029v3.283h1.113c.572 0 1.115-.028 1.287-.028.143-.029.285-.029.371-.057.086-.029.113-.057.17-.086v-.027c.029 0 .059-.029.086-.058.115-.114.172-.199.344-.199.113 0 .229.085.314.171a.483.483 0 0 1 .086.285c0 .057 0 .2-.057.486l-.059.599c-.027.114-.027.286-.057.457v.457c0 .085-.029.2-.057.314-.059.171-.172.313-.4.313a.595.595 0 0 1-.314-.114.834.834 0 0 1-.113-.285v-.172c0-.086 0-.199-.029-.285-.029-.085-.057-.171-.143-.229a.776.776 0 0 0-.43-.114h-.027c-.086-.029-.43-.029-.828-.057-.43 0-.943-.029-1.258-.029v1.599c-.029.57-.029 1.256 0 1.542 0 .398.086.628.287.742.256.143.713.199 1.428.199.199 0 .457 0 .686-.027.229-.029.457-.059.627-.145a.799.799 0 0 0 .287-.256c.084-.143.143-.342.17-.599a.898.898 0 0 1 .115-.286.406.406 0 0 1 .342-.171c.23 0 .344.143.4.313.029.114.029.229.029.314 0 .171-.029.543-.086.885a4.122 4.122 0 0 1-.143.799c-.143.572-.344.572-1.057.572-.516 0-1.029 0-1.516-.029-.484 0-.885 0-1.256-.029h-.457c-.486-.027-.857-.027-1.258-.027h-.256c-.172 0-.4.027-.572.027h-.543c-.199.029-.371.029-.514.029s-.258-.029-.342-.086c-.145-.086-.23-.199-.23-.371 0-.113.059-.258.201-.342a.608.608 0 0 1 .342-.086h.258c.057-.029.143-.029.199-.029a.216.216 0 0 0 .115-.113c.059-.084.088-.227.088-.428M83.817 29.641h27.168v.484H83.817zM4.141 29.641h26.34v.484H4.141z"/></svg>