<svg class="logo" xmlns="http://www.w3.org/2000/svg" viewBox="0 0 5080 1693" clip-rule="evenodd" fill-rule="evenodd" image-rendering="optimizeQuality" shape-rendering="geometricPrecision" text-rendering="geometricPrecision"><path class="fil0" d="M3907 596C2427 1349 13 1165-650 460c1400 683 2915 753 4557 136zm1647-706c-895 799-2550 1451-3957 1478C441 1390-751 886-1439 52-731 685 36 1163 1642 1171c1369 6 2910-702 3912-1281zM391 1278c772 330 1808 390 2715 134 806-263 1921-822 2404-1249C4135 862 2529 1924 391 1278z"/><path class="fil1" d="M1669 1085v-63l33 48 34-48v63h10v-93l-44 62-43-62v93h10zm93-32c0 10 3 19 9 25 7 6 15 9 24 9 10 0 18-2 24-7v-11c-4 5-12 9-24 9-14 0-23-9-23-24h53v-4c0-9-3-17-8-23-6-6-13-9-22-9s-17 3-23 9c-7 7-10 15-10 25v1zm11-7c0-5 2-10 7-14 4-3 9-5 15-5 5 0 10 2 14 6 4 3 6 8 6 13h-42zm74 39v-39c0-11 6-19 15-19s15 7 15 18v40h9v-39c0-11 7-19 16-19 10 0 15 7 15 18v40h10v-42c0-15-9-24-22-24-10 0-17 4-21 12-3-8-10-12-19-12s-15 4-18 12v-11h-10v65h10zm103 0v-10c4 7 12 12 24 12 9 0 17-3 23-10s10-15 10-25-4-18-10-24c-6-7-14-10-23-10-12 0-20 5-24 11v-34h-9v90h9zm24-7c-7 0-13-3-18-7-4-5-7-11-7-19 0-7 3-13 7-18 5-5 11-7 18-7 6 0 12 2 16 7 5 5 7 11 7 18 0 8-2 14-7 19-4 4-10 7-16 7zm42-25c0 10 3 19 9 25s14 9 24 9c9 0 17-2 24-7v-11c-4 5-12 9-24 9-14 0-23-9-24-24h53v-4c0-9-2-17-8-23s-13-9-22-9-17 3-23 9c-6 7-9 15-9 25v1zm10-7c0-5 3-10 7-14 4-3 9-5 15-5s10 2 14 6c4 3 6 8 6 13h-42zm74 39v-38c0-11 7-18 18-18h6v-10h-4c-9 0-17 4-20 12v-11h-10v65h10zm91-8c6 7 14 10 24 10s18-3 25-10 10-15 10-25-3-18-10-24c-7-7-15-10-25-10s-18 3-24 10c-7 6-11 14-11 24s4 18 11 25zm6-43c5-5 11-7 18-7s13 2 18 7 7 11 7 18c0 8-2 14-7 19-5 4-11 7-18 7s-13-3-18-7c-5-5-7-11-7-19 0-7 2-13 7-18zm80 51v-56h12v-9h-12v-7c0-8 2-11 9-11h6v-9h-5c-6 0-11 1-14 3-4 4-6 10-6 18v6h-11v9h11v56h10zm73-9c8 7 17 11 29 11 8 0 15-3 20-7 6-5 8-11 8-17 0-8-2-14-7-18-5-5-10-8-18-12-7-4-11-7-14-9-2-2-4-5-4-9 0-8 7-13 17-13 7 0 13 3 18 9v-12c-4-4-10-6-18-6-16 0-27 9-27 22 0 7 2 12 7 16 2 2 5 4 7 5s5 3 9 5c8 4 13 8 16 10 3 3 4 7 4 12 0 7-7 14-19 14-11 0-20-4-28-14v13zm81 34v-35c4 7 12 12 23 12 10 0 17-3 24-10 6-7 9-15 9-25s-3-18-9-24c-7-7-14-10-24-10-11 0-19 5-23 11v-9h-9v90h9zm23-32c-7 0-12-3-17-7-5-5-7-11-7-19 0-7 2-13 7-18s10-7 17-7 13 2 17 7c5 5 7 11 7 18 0 8-2 14-7 19-4 4-10 7-17 7zm42-25c0 10 3 19 10 25 6 6 14 9 23 9 10 0 18-2 24-7v-11c-4 5-12 9-24 9-13 0-22-9-23-24h53v-4c0-9-3-17-8-23-6-6-13-9-22-9s-17 3-23 9c-6 7-10 15-10 25v1zm11-7c0-5 2-10 7-14 4-3 9-5 15-5s10 2 14 6c4 3 6 8 6 13h-42zm74 39v-32l28 32h12l-31-35 28-30h-11l-26 28v-53h-10v90h10zm63 0v-56h14v-9h-14v-25h-10v25h-8v9h8v56h10zm35 0v-38c0-11 7-18 17-18h7v-10h-4c-10 0-17 4-20 12v-11h-10v65h10zm99 0v-43h50v43h10v-90h-10v37h-50v-37h-10v90h10zm92-12c9 9 20 14 33 14s24-5 34-14c9-9 13-20 13-33 0-14-4-25-13-34-10-9-21-13-34-13s-24 4-33 13-14 20-14 34c0 13 5 24 14 33zm7-60c7-7 16-11 26-11 11 0 20 4 27 11s10 16 10 27-3 20-10 27-16 10-27 10c-10 0-19-3-26-10s-11-16-11-27 4-20 11-27zm114 72v-81h25v-9h-60v9h25v81h10zm92 0v-9h-41v-34h38v-9h-38v-29h41v-9h-52v90h52zm67 0v-9h-37v-81h-10v90h47zm165 0v-38c0-11 7-18 17-18h7v-10h-4c-10 0-17 4-20 12v-11h-10v65h10zm38-8c7 7 15 10 25 10s18-3 24-10c7-7 11-15 11-25s-4-18-11-24c-6-7-14-10-24-10s-18 3-25 10c-7 6-10 14-10 24s3 18 10 25zm7-43c5-5 11-7 18-7s13 2 18 7 7 11 7 18c0 8-2 14-7 19-5 4-11 7-18 7s-13-3-18-7c-5-5-7-11-7-19 0-7 2-13 7-18zm64 26c0 17 11 26 27 26s27-10 27-27v-39h-9v39c0 12-7 18-18 18s-18-6-18-18v-39h-9v40zm78 50v-35c4 7 11 12 23 12 9 0 17-3 24-10 6-7 9-15 9-25s-3-18-9-24c-7-7-15-10-24-10-12 0-19 5-23 11v-9h-10v90h10zm23-32c-7 0-13-3-17-7-5-5-7-11-7-19 0-7 2-13 7-18 4-5 10-7 17-7s12 2 17 7c4 5 7 11 7 18 0 8-3 14-7 19-5 4-10 7-17 7zm-270-85c-13 0-24 4-34 13-9 9-13 20-13 34 0 13 4 24 13 33 10 9 21 14 34 14 14 0 26-5 35-15v-36h-38v9h28v23c-7 6-15 9-25 9-11 0-20-3-27-10s-10-16-10-27 3-20 10-27 16-11 27-11c10 0 19 4 27 11v-12c-8-5-17-8-27-8zM1611 1056h-425v-8h425zM4074 1056h-468v-8h468z"/><path class="fil2" d="M1402 780c6 1 10 1 13 1s6 1 8 1c8 0 16-2 22-4 5-5 7-12 7-22 0-11-3-19-8-25-6-5-14-8-26-8h-16v57zm-201 38c6 10 12 17 20 23 8 5 16 8 25 8 13 0 23-4 30-12 8-7 12-17 12-30 0-19-17-36-52-50-19-8-32-16-40-26-7-9-11-21-11-36 0-20 6-36 20-49 13-13 30-19 52-19 15 0 29 3 41 10s21 17 27 31l-16 10c-3-11-9-19-17-25-7-6-16-9-27-9s-20 4-27 11-11 17-11 28c0 9 3 17 9 24 6 6 17 13 33 20 25 10 42 21 50 31s12 23 12 38c0 21-7 38-21 52-14 13-33 20-55 20-15 0-29-3-41-9-11-6-21-16-30-29l17-12zm320-80c0-11 2-18 5-22 4-3 11-5 23-5h72v13h-51c-7 0-11 1-13 3-2 1-3 4-3 9v38h55v15h-55v48c0 5 1 8 3 9 3 2 7 3 15 3h51v13h-79c-9 0-15-2-18-5-4-4-5-11-5-22v-97zm171 124h-33V615h33v173l62-77h19l-52 64 68 87h-42l-55-71v71zm139 0V724h-32v-13h98v13h-32v138h-34zm134 0h-34V711h61c19 0 33 3 43 11 10 7 14 17 14 31 0 9-2 18-8 24s-14 10-25 11l39 74h-40l-36-75c12-1 21-3 27-8s8-12 8-23-2-19-8-25c-5-5-14-8-26-8h-15v139zm-501-76c-11 5-24 8-39 8-4 0-9-1-17-1-2-1-4-1-6-1v71h-33V711h60c19 0 34 3 43 11 10 7 15 17 15 31 0 10-3 18-9 24-3 4-8 7-14 9zm776-32v109h-42V632h42v105h97V632h43v231h-43V754h-97zm257 102c12 0 21-6 29-19 7-12 11-29 11-50s-4-37-11-50c-8-13-17-19-29-19-13 0-22 6-30 19s-11 30-11 50c0 21 3 38 11 50 8 13 17 19 30 19zm4 12c-23 0-42-8-57-24-16-16-23-35-23-59 0-23 6-42 19-57 13-14 31-21 52-21 23 0 42 7 57 23 16 16 24 35 24 59 0 23-7 42-20 57-13 14-31 22-52 22zm125-5V724h-32v-13h98v13h-32v139h-34zm100-125c0-11 2-18 6-22 3-3 11-5 22-5h73v13h-52c-6 0-10 1-12 3s-3 5-3 9v38h55v15h-55v49c0 4 1 7 3 9s7 2 14 2h52v14h-80c-8 0-14-2-18-6-3-3-5-11-5-22v-97zm138-123h34v223c0 4 1 7 3 9s7 2 15 2h8v14h-37c-8 0-14-2-18-6-3-3-5-11-5-22V615zm233 133v99h27c18 0 32-3 40-10s13-19 13-34c0-18-5-32-15-41s-25-14-45-14h-20zm0-102v88h21c18 0 31-4 39-11s13-18 13-33-5-26-14-33-23-11-42-11h-17zm39 216h-82V631h68c15 0 27 1 36 3 10 1 17 3 22 6 9 5 17 12 22 21 6 9 8 18 8 29 0 13-3 24-10 32-7 9-17 14-30 18 16 4 28 11 36 21 8 11 12 24 12 39 0 21-6 37-20 47-13 10-34 15-62 15zm188-6c12 0 21-7 29-19 7-13 11-29 11-50s-4-38-11-50c-8-13-17-19-29-19s-22 6-30 19c-7 13-11 29-11 50s4 37 11 50c8 12 18 19 30 19zm4 11c-23 0-42-8-57-23-15-16-23-36-23-59 0-24 6-42 20-57 13-14 30-22 51-22 23 0 42 8 57 24 16 15 23 35 23 59 0 23-6 42-19 56-13 15-31 22-52 22zm196-143c-4-1-7-1-11-1-3-1-5-1-8-1-16 0-29 6-37 17s-12 28-12 50c0 20 4 35 13 45s22 15 41 15h15l-1-125zm0-13l1-96h33v247h-53c-25 0-45-7-61-21-15-14-23-33-23-56 0-24 8-42 22-56 14-13 33-20 58-20 3 0 6 0 10 1 3 0 8 0 13 1zm115 151h-34V711h61c19 0 33 3 43 11 10 7 15 17 15 31 0 9-3 18-9 24s-14 10-25 11l40 74h-41l-36-75c13-1 21-3 27-8s9-12 9-23-3-19-9-25c-5-5-14-8-26-8h-15v139zm157-151v98c0 12 3 21 8 28 6 7 14 10 25 10s19-4 24-10c5-7 7-19 7-35v-91h15v102c0 16-5 30-14 39-10 10-22 15-39 15-19 0-34-5-44-15-11-10-16-24-16-44v-97h34zm125 151V732c0-8 2-14 6-19 4-4 11-7 19-7 7 0 13 2 17 6s8 10 11 19l24 78 22-82c2-7 5-12 10-16 4-3 10-5 17-5 9 0 15 3 19 8 5 4 7 11 7 20v128h-32V736c0-2-1-4-1-5-1 0-2-1-3-1s-2 0-2 1c-1 1-2 2-2 4l-33 119c-2 4-3 8-5 10s-4 3-7 3c-2 0-5-1-6-3-2-2-4-4-5-8l-36-119v-3c-1-3-2-4-3-4s-2 1-2 2c-1 1-1 2-1 4v126h-14z"/></svg>