<svg xmlns="http://www.w3.org/2000/svg" viewBox="0 0 103.54 29.794"><g fill="#fff"><path d="M11.247 10.758a15.114 15.114 0 0 0 1.885-.257c.543-.144 1-.343 1.371-.601a2.54 2.54 0 0 0 .857-.97c.172-.372.286-.856.286-1.398 0-.486-.114-.942-.286-1.314a3 3 0 0 0-.828-.97c-.343-.257-.771-.457-1.257-.601-.486-.113-1-.199-1.6-.199-.4 0-.685.028-.885.058-.229.057-.315.199-.315.428V16.41c0 .172-.114.285-.314.313-.171.029-.314.029-.514.059-.172 0-.372.029-.543.029-.171.027-.314.027-.486.027h-.314c-.228 0-.314-.086-.314-.256V5.505c0-.371-.114-.628-.286-.743-.2-.114-.457-.171-.771-.171-.172 0-.371 0-.6.029l-.086-.628c.8-.115 1.657-.2 2.571-.314a32.9 32.9 0 0 1 3.086-.143c.543 0 1.057.027 1.571.086.543.027 1.028.085 1.514.199s.914.257 1.343.399c.4.171.771.4 1.057.657.314.285.543.599.714.941.2.371.286.8.286 1.284 0 .771-.2 1.429-.6 1.942-.4.542-.914.97-1.572 1.313-.628.344-1.399.571-2.228.742a15.73 15.73 0 0 1-2.628.286l-.114-.626zM28.93 3.535c1.171 0 2.2.171 3.114.457.943.284 1.714.713 2.371 1.283a5.224 5.224 0 0 1 1.514 2.057c.372.799.543 1.713.543 2.741 0 1.112-.2 2.111-.6 2.997a5.979 5.979 0 0 1-1.685 2.17 8.189 8.189 0 0 1-2.629 1.342 12.998 12.998 0 0 1-3.456.457 10.66 10.66 0 0 1-3.114-.457c-.914-.314-1.714-.744-2.371-1.314a5.727 5.727 0 0 1-1.514-2.084c-.343-.827-.515-1.741-.515-2.797 0-1.114.2-2.084.572-2.94.4-.856.971-1.57 1.714-2.142.714-.571 1.6-1.028 2.628-1.313a12.733 12.733 0 0 1 3.428-.457m-.658.942c-.885 0-1.628.144-2.257.429a4.557 4.557 0 0 0-1.514 1.198c-.4.486-.685 1.058-.885 1.713a7.654 7.654 0 0 0-.286 1.999c0 .771.114 1.541.314 2.284.2.771.514 1.428.943 2.027.457.571 1 1.055 1.714 1.426.686.371 1.514.543 2.514.543.857 0 1.6-.143 2.228-.457.629-.313 1.143-.713 1.543-1.227.4-.485.686-1.085.857-1.713a6.96 6.96 0 0 0 .286-2.027c0-.771-.086-1.542-.286-2.284a5.8 5.8 0 0 0-.971-1.97c-.429-.6-1-1.056-1.686-1.399-.685-.372-1.542-.542-2.514-.542m12.514 12.246c-.2 0-.314-.113-.314-.283V5.505c0-.371-.086-.628-.286-.743-.2-.114-.457-.171-.771-.171-.172 0-.372 0-.572.029l-.086-.6a50.751 50.751 0 0 1 3.028-.342 36.337 36.337 0 0 1 3.057-.143c.857 0 1.685.057 2.514.143.799.085 1.571.199 2.285.399.714.199 1.371.457 1.971.771.6.314 1.114.714 1.543 1.171a5.52 5.52 0 0 1 1.027 1.685c.229.628.344 1.37.344 2.227 0 1.113-.229 2.084-.715 2.97-.457.855-1.143 1.599-1.971 2.196-.857.602-1.886 1.059-3.057 1.344a14.672 14.672 0 0 1-3.828.484c-.4 0-.743-.027-1.057-.027-.286-.029-.6-.059-.914-.086a9.744 9.744 0 0 0-.972-.059c-.342-.03-.741-.03-1.226-.03m2.171-.912c.343.057.686.113 1.028.143.372.029.715.029 1.086.029 1.086 0 2.028-.145 2.857-.4a5.754 5.754 0 0 0 2.114-1.141c.571-.515 1-1.114 1.314-1.828a6.548 6.548 0 0 0 .457-2.427 5.48 5.48 0 0 0-.486-2.313 4.388 4.388 0 0 0-1.342-1.798c-.572-.515-1.286-.914-2.143-1.171-.857-.285-1.828-.429-2.942-.429h-.686c-.4 0-.714.029-.914.086-.229.058-.343.199-.343.456v10.793zM68.154 4.22c.086-.171.228-.285.457-.343.113-.028.257-.057.399-.057.144-.028.286-.028.4-.058h.628c.115 0 .172 0 .199.029.029.028.059.057.059.085 0 .029-.029.086-.086.2l-6.314 12.562c-.084.113-.143.199-.228.199-.058 0-.144 0-.229.029h-.313c-.114.029-.229.029-.343.029h-.2c-.058 0-.085 0-.144-.029-.057-.029-.084-.086-.142-.145L57.041 5.476c-.143-.342-.344-.57-.543-.685a1.7 1.7 0 0 0-.771-.171h-.257c-.086 0-.2.027-.313.027l-.087-.598a8.94 8.94 0 0 1 1.17-.172c.4-.057.771-.114 1.087-.143.313-.028.6-.057.827-.057.229-.029.373-.029.43-.029.113 0 .229.029.285.086.058.086.115.172.172.314l4.771 10.307h.057L68.154 4.22zm4.998 7.88l-2.027 4.566c-.057.086-.114.115-.257.145-.144 0-.343.027-.543.027h-.687c-.142 0-.228-.027-.228-.086 0-.029 0-.057.028-.057l6.084-12.161-.256-.628c-.029-.058-.029-.086-.029-.114 0-.114.087-.171.258-.2.143-.029.285-.057.486-.057.199-.029.371-.029.541-.058.201-.028.344-.028.516-.028.143 0 .257-.028.314-.028.199 0 .313.085.399.257l5.97 12.703a.218.218 0 0 1 .029.115c0 .113-.086.199-.257.227-.171.029-.343.029-.543.059-.2 0-.4.029-.571.029-.199.027-.372.027-.543.027h-.343c-.144 0-.257-.057-.313-.143l-2.172-4.682-5.856.087zm.43-.971h5.027l-2.543-5.481-2.484 5.481zm16.254 3.853c0 .172.028.314.028.428.029.086.058.172.115.229.057.059.143.086.285.086.143.029.314.029.571.029h1.313c.715 0 1.287 0 1.744-.029a3.17 3.17 0 0 0 1.142-.285c.315-.143.571-.4.829-.713.228-.314.514-.742.8-1.313l.657.114c0 .057-.029.2-.086.399-.028.229-.086.485-.144.771-.085.284-.143.569-.228.884-.086.314-.172.572-.229.799-.143.229-.343.371-.657.371-.686 0-1.514-.029-2.514-.029h-5.799c-.114 0-.2-.027-.229-.113-.058-.057-.086-.113-.086-.17V5.619c0-.2-.029-.371-.058-.485a.64.64 0 0 0-.228-.313c-.086-.087-.201-.115-.314-.144a2.195 2.195 0 0 0-.457-.057c-.172 0-.372.027-.572.027l-.084-.599c.484-.086.941-.143 1.37-.2.429-.057.828-.086 1.142-.114.344-.028.629-.057.83-.086h.428c.285 0 .429.114.429.344v10.99zM24.987 23.09c0-.057.057-.084.086-.084.028-.029.057-.029.086-.029h.114c.028 0 .057-.029.086-.029h.057c.028 0 .028.029.028.029v.057l-1.228 3.197c-.029.029-.029.029-.029.059h-.2c-.028 0-.057.027-.085.027h-.058c-.028 0-.028-.027-.028-.027-.029 0-.029 0-.029-.029l-.714-2.055-.771 2.025c0 .029-.029.029-.029.059h-.171c-.029 0-.057.027-.086.027h-.086s0-.027-.028-.027c0 0-.029 0-.029-.029l-.971-2.855a.297.297 0 0 0-.143-.172.248.248 0 0 0-.171-.057h-.057c-.029 0-.029 0-.058.029l-.028-.172c.086-.027.171-.027.257-.057.114 0 .171 0 .257-.029h.2c.057-.027.086-.027.086-.027.028 0 .057.027.085.027 0 .029.029.059.029.086l.886 2.598h.028l.657-1.855-.257-.713v-.057c.029-.029.029-.029.057-.029.057-.029.143-.029.229-.029.057 0 .143-.027.2-.027.028 0 .028.027.057.027 0 0 .028.029.028.059l.915 2.654.828-2.572zm1.201-.057c.114-.027.229-.027.314-.057.114 0 .2-.029.257-.029h.2c.057-.027.086-.027.086-.027.086 0 .114.027.114.113v3.141c0 .057-.028.086-.085.086-.029 0-.058 0-.115.029h-.315c-.029 0-.057-.029-.057-.059v-2.797c0-.057 0-.086-.029-.115 0-.027-.028-.057-.028-.086-.029-.027-.057-.027-.086-.027-.028-.029-.057-.029-.086-.029-.057 0-.085 0-.142.029l-.028-.172zm2.741-.142h.029l.057.057 2.086 2.57-.086-2.512c0-.029.029-.029.057-.029.029 0 .086-.029.143-.029h.171c.029 0 .057 0 .057.029l-.085 2.74v.514c0 .029 0 .059-.029.059h-.314l-.029-.029-2.114-2.598.086 2.568c0 .029-.029.059-.057.059h-.314c-.029 0-.029 0-.029-.029l.057-2.941-.228-.313c-.029 0-.029-.029-.029-.029 0-.029.029-.029.057-.057h.115c.057-.029.114-.029.171-.029h.228zm4.486 2.941v.086c0 .027 0 .057.028.057 0 .027.029.027.057.027h.915a.8.8 0 0 0 .257-.057c.057-.027.142-.086.171-.172.057-.086.114-.199.2-.342l.143.029s0 .057-.029.113c0 .029 0 .113-.028.172 0 .086-.029.143-.029.229-.028.084-.057.141-.057.199-.029.057-.086.086-.171.086h-1.943c-.029 0-.057 0-.057-.029-.029 0-.029-.027-.029-.057V23.49c0-.086-.028-.172-.057-.199-.057-.029-.114-.029-.171-.029h-.143l-.029-.172c.057 0 .115 0 .2-.027.086 0 .172 0 .257-.029.086 0 .172 0 .258-.027H34.9c.029 0 .057 0 .057.027v.258c.029.027.029.086.029.143v.315l-.143.027a.807.807 0 0 0-.114-.314.372.372 0 0 0-.114-.17.536.536 0 0 0-.229-.059h-.914c-.029 0-.029 0-.057.029v1.227c.171-.027.314-.027.457-.027.114 0 .257-.029.343-.029h.371c.057 0 .086.029.086.086v.115c-.029.027-.029.057-.029.113l-1.228-.057v1.141zm5.428-2.799c.171-.027.371-.057.571-.086.2-.027.457-.027.714-.027h.286c.114 0 .228.027.314.027.114.029.2.059.314.086.086.057.172.086.229.143a.438.438 0 0 1 .171.229c.058.085.058.171.058.284 0 .086 0 .172-.028.258-.029.084-.086.143-.143.229a1.55 1.55 0 0 1-.229.199c-.085.057-.171.086-.285.143.028 0 .085.029.114.029.057.027.143.027.2.057.057.029.114.057.171.115.086.027.143.084.2.141.029.059.086.115.115.201.028.086.057.17.057.285 0 .029-.029.086-.029.143s-.028.143-.057.199c-.028.086-.086.145-.143.23a.999.999 0 0 1-.257.17 1.11 1.11 0 0 1-.371.143c-.143.059-.343.059-.543.059h-.486c-.057-.029-.143-.029-.2-.029H39.3c-.057 0-.057-.029-.057-.057v-2.799a.256.256 0 0 0-.086-.199c-.029-.029-.086-.029-.172-.029h-.114l-.028-.144zm.942 2.998h.229c.028.027.086.027.114.027h.143c.143 0 .257-.027.371-.057.086-.057.172-.084.229-.17a.469.469 0 0 0 .114-.201.403.403 0 0 0 .057-.199.786.786 0 0 0-.085-.371c-.058-.086-.115-.172-.229-.229a.94.94 0 0 0-.343-.113c-.114-.029-.257-.029-.428-.029h-.172v1.342zm0-1.57h.115c.171 0 .314-.029.457-.029.114-.027.228-.086.314-.113a.438.438 0 0 0 .171-.229c.057-.059.057-.172.057-.285 0-.115-.028-.229-.057-.314-.028-.086-.114-.143-.171-.199a.834.834 0 0 0-.286-.115c-.114-.029-.228-.029-.343-.029h-.2c-.028.029-.057.059-.057.115v1.198zm3.371.629l-.457 1.141c0 .029-.028.059-.057.059h-.286c-.028 0-.028 0-.028-.029l1.371-3.084-.057-.17v-.029c0-.029 0-.057.057-.057.029 0 .057 0 .114-.029h.315c.028 0 .057 0 .085.057l1.343 3.227v.029c0 .027-.029.057-.057.057-.029 0-.086 0-.114.029h-.343c-.029 0-.057 0-.057-.029l-.485-1.201-1.344.029zm.115-.258h1.114l-.572-1.398-.542 1.398zm4.171-.258c.142-.027.285-.027.399-.057a.816.816 0 0 0 .315-.143.444.444 0 0 0 .171-.229c.057-.115.057-.229.057-.342 0-.115 0-.229-.057-.285a1.567 1.567 0 0 0-.171-.229c-.086-.029-.172-.086-.286-.115-.114-.029-.229-.029-.343-.029-.085 0-.143 0-.2.029-.028 0-.057.029-.057.086v2.912c0 .057 0 .086-.057.086-.029 0-.086 0-.114.029h-.315c-.057 0-.057-.029-.057-.059v-2.826a.255.255 0 0 0-.085-.199c-.029-.029-.086-.029-.172-.029h-.114l-.029-.143c.2-.057.4-.057.629-.086.228-.027.428-.027.657-.027h.314c.114 0 .2.027.314.027.086.029.2.059.286.086.086.057.171.086.257.172.057.057.114.113.143.199a.485.485 0 0 1 .086.285.668.668 0 0 1-.086.342.608.608 0 0 1-.143.23c-.086.084-.143.143-.257.199a.824.824 0 0 1-.286.113v.029c.058 0 .086.029.172.029.057.027.114.057.171.086.029.057.086.084.143.141a.592.592 0 0 1 .114.23l.229.627c.028.086.057.172.086.229 0 .029.028.086.057.113.028.029.085.029.114.057h.143v.145c-.029 0-.086.029-.143.029h-.114c-.057.027-.086.027-.115.027h-.085c-.057 0-.115 0-.172-.027a.214.214 0 0 1-.143-.059c-.028-.057-.085-.086-.114-.143a1.959 1.959 0 0 1-.085-.229l-.2-.686c-.029-.084-.086-.17-.115-.229-.057-.057-.085-.113-.171-.143-.057-.027-.143-.027-.229-.057-.085 0-.2 0-.314-.027l-.028-.139zm7.884-.086l.457-.256c.115.113.201.229.258.342.029.115.058.229.058.344 0 .143-.028.285-.086.428a1.814 1.814 0 0 1-.286.371c.086.057.143.143.258.201.086.084.172.17.256.256.029 0 .029 0 .029.029 0 .027 0 .027-.029.027 0 .029-.027.029-.027.029-.114.029-.2.029-.286.029-.086.027-.144.027-.171.027-.029 0-.029 0-.057-.027-.029 0-.059 0-.059-.029-.057-.029-.113-.086-.171-.115-.028-.057-.086-.086-.144-.113-.057.027-.143.084-.228.113-.086.059-.2.086-.286.115-.113.029-.199.029-.314.057-.113 0-.229.029-.313.029-.172 0-.315-.029-.458-.057-.142-.029-.285-.086-.371-.174a.81.81 0 0 1-.285-.256.89.89 0 0 1-.085-.398 1 1 0 0 1 .057-.314c.028-.086.086-.143.143-.229.085-.059.142-.143.228-.199.115-.059.201-.115.314-.201a2.307 2.307 0 0 1-.257-.371 1.704 1.704 0 0 1-.058-.371c0-.143.029-.285.086-.371a.836.836 0 0 1 .258-.285c.113-.057.229-.113.371-.143.115-.057.258-.057.4-.057h.285c.114.027.2.057.286.086a.439.439 0 0 1 .228.141.367.367 0 0 1 .115.258c0 .086-.058.172-.115.229a.818.818 0 0 1-.284.057h-.144v-.086a.608.608 0 0 0-.086-.342c-.086-.086-.171-.115-.343-.115-.085 0-.144 0-.228.029-.058.029-.115.086-.172.115l-.086.17c-.029.086-.029.143-.029.229s0 .145.029.229c0 .057.058.143.086.229.057.086.114.172.199.258.086.084.172.199.286.285.114.113.257.256.429.4.143.141.342.285.543.455.086-.143.143-.256.143-.398 0-.201-.114-.428-.344-.629v-.031zm-.2 1.371a12.572 12.572 0 0 0-.771-.656l-.514-.514c-.086.086-.172.17-.2.256a.516.516 0 0 0-.086.314c0 .115.029.229.086.314a.423.423 0 0 0 .171.258.58.58 0 0 0 .286.17c.086.029.228.057.343.057.114 0 .258-.027.371-.057a.94.94 0 0 0 .314-.142m5.714-.027v.086c.028.027.028.057.028.057.029.027.058.027.086.027h.799c.114 0 .2-.027.257-.057a.655.655 0 0 0 .2-.199c.057-.059.114-.172.172-.344l.142.059v.084c0 .059-.027.115-.027.201-.029.086-.057.143-.057.229-.029.084-.029.141-.058.199a.158.158 0 0 1-.144.086h-1.885c-.029 0-.029 0-.058-.029v-2.797c0-.057-.029-.086-.029-.115 0-.027-.028-.057-.057-.086 0-.027-.028-.027-.058-.027-.027-.029-.057-.029-.113-.029-.029 0-.086 0-.114.029l-.028-.172c.113-.027.199-.027.313-.057.086 0 .172-.029.257-.029h.2c.028-.027.058-.027.086-.027.057 0 .086.027.086.113v2.798zm4.285-2.912c.257 0 .485.027.686.113.228.057.4.172.542.314.143.143.258.314.344.514s.114.457.114.713c0 .285-.028.543-.114.742-.115.229-.229.43-.4.572a1.73 1.73 0 0 1-.6.342 3.04 3.04 0 0 1-.771.115c-.257 0-.486-.057-.686-.115-.229-.086-.4-.199-.543-.342s-.256-.314-.342-.543c-.087-.199-.115-.428-.115-.686 0-.285.028-.541.115-.77.086-.201.227-.4.399-.543a1.2 1.2 0 0 1 .601-.314c.227-.085.484-.112.77-.112m-.17.226a.935.935 0 0 0-.486.115.849.849 0 0 0-.343.285.952.952 0 0 0-.2.457 1.334 1.334 0 0 0-.086.484c0 .201.029.4.086.602.029.199.113.371.2.514.114.143.229.256.399.371.144.084.344.113.571.113.2 0 .343-.029.485-.113.144-.057.258-.172.373-.287.084-.143.142-.285.171-.457.057-.17.086-.342.086-.512 0-.201-.029-.4-.086-.572a1.392 1.392 0 0 0-.2-.514 1.164 1.164 0 0 0-.4-.342c-.143-.114-.343-.144-.57-.144m3.656 2.084c0 .145 0 .258.057.344.029.113.086.172.172.258a.554.554 0 0 0 .229.113c.114.029.229.029.314.029.171 0 .314 0 .428-.057.143-.059.286-.086.43-.172v-2.684c0-.029.027-.057.084-.057.029-.029.059-.029.086-.029h.258c.029-.029.057-.029.057-.029.057 0 .086.029.086.086v3.141c0 .057-.029.086-.086.086-.027 0-.057 0-.113.029h-.289c-.027 0-.057-.029-.057-.059L70.24 26c-.201.086-.4.172-.601.229a2.16 2.16 0 0 1-.629.115c-.144 0-.257-.029-.371-.057a.659.659 0 0 1-.313-.174.602.602 0 0 1-.2-.256.778.778 0 0 1-.087-.371v-2.055c0-.057 0-.086-.028-.115 0-.027-.028-.057-.028-.086-.029-.027-.057-.027-.086-.027-.027-.029-.057-.029-.086-.029-.057 0-.085 0-.142.029l-.029-.172c.114-.027.229-.027.313-.057.115 0 .201-.029.258-.029h.199c.058-.027.086-.027.086-.027.086 0 .115.027.115.113v2.199zm3.971-2.339h.057c0 .029 0 .029.029.057l2.085 2.57-.085-2.512c0-.029.027-.029.057-.029.028 0 .086-.029.143-.029h.172c.029 0 .057 0 .057.029l-.085 2.74v.514c0 .029 0 .059-.028.059h-.315s0-.029-.029-.029l-2.085-2.598.058 2.568c0 .029 0 .059-.058.059h-.317c-.027 0-.027 0-.027-.029l.057-2.941-.229-.313c-.028 0-.028-.029-.028-.029 0-.029.028-.029.058-.057h.113c.057-.029.115-.029.172-.029h.228zm6.828 3.254c0 .029-.029.059-.058.059a3.18 3.18 0 0 1-.514.113c-.172 0-.372.029-.543.029a3.59 3.59 0 0 1-.829-.115 1.882 1.882 0 0 1-.628-.342c-.2-.143-.313-.314-.429-.543a1.86 1.86 0 0 1-.143-.713c0-.287.057-.543.143-.742.115-.229.257-.4.457-.543.172-.143.399-.258.658-.342.256-.059.514-.086.827-.086.171 0 .314 0 .486.027.142 0 .284.029.428.059.029 0 .029.027.058.027v.029c0 .027.028.057.028.113v.401c.028.057.028.086.028.113v.059l-.171.027a.433.433 0 0 0-.114-.314c-.057-.057-.143-.143-.229-.17-.086-.059-.2-.086-.314-.115-.113-.029-.229-.029-.343-.029-.2 0-.4.029-.571.086a1.15 1.15 0 0 0-.429.287c-.114.113-.2.256-.257.428a1.543 1.543 0 0 0-.086.541c0 .23.058.457.115.658.084.17.17.342.313.484s.313.258.514.344c.229.084.457.113.743.113h.143c.028 0 .086 0 .144-.029v-.998c-.029-.057-.029-.086-.058-.086 0-.029-.028-.029-.058-.029-.028-.027-.085-.027-.114-.027h-.114v-.143c.113 0 .199-.029.285-.029h.515c.057 0 .114.029.114.086v1.312z"/><path d="M24.958 23.063c0-.029.029-.029.029-.057l.057.057c-.029 0-.029 0-.029.027l-.057-.027zm.03-.057l.028.027-.028-.027zm0 0c.028-.029.057-.029.085-.029l.029.057c-.029 0-.057 0-.057.029l-.057-.057zm.085-.029v.029-.029zm0 0l.029-.029.029.059-.029.027-.029-.057zm.029-.03h.029v.029l-.029-.029zm.028 0h.028l.029.059h-.057v-.059zm.029 0v.029-.029zm0 0h.057v.059h-.028l-.029-.059zm.056 0v.029-.029zm0 0h.057v.059h-.057v-.059zm.057 0v.029-.029zm0 0l.086-.027v.086h-.086v-.059zm.086-.027v.027-.027zm0 0h.057v.057l-.057.029v-.086zm.058 0v.027-.027zm0 0s.029 0 .029.027l-.029.059v-.086zm.028.027h.028l-.028.029v-.029zm.029 0l.029.029h-.086s.029.029 0 .029l.057-.058zm.028.03c0 .029 0 .029-.029.029h-.057v-.029h.086zm-.085.029h.029-.029zm.057 0v.057l-.057-.029v-.027h.057zm-.057.027h.029-.029zm.057.03l-1.228 3.197-.057-.029 1.228-3.197.057.029zm-1.228 3.197l-.029-.029.029.029zm0 0h-.086l.029-.029.057.029zm-.03 0v.027l-.028-.027h.028zm0 .027l-.057-.027v-.03l.057.057zm0 0h-.028.028zm0 0l-.028.029-.029-.057.057.028zm-.027.029l-.029-.029.029.029zm0 0h-.029l-.029-.056h.028l.03.056zm-.029 0v-.029.029zm0 0h-.086v-.056h.086v.056zm-.085 0v-.029.029zm0 0h-.086v-.056h.086v.056zm-.086 0v-.029.029zm0 0l-.086.029v-.085h.086v.056zm-.087.03v-.029.029zm0 0h-.057v-.059l.057-.027v.086zm-.056 0v-.029.029zm0 0h-.029v-.086l.029.027v.059zm-.03 0v-.059.059zm0 0l-.028-.029.028-.057h.029l-.029.086zm-.027-.03l.028-.029-.028.029zm0 0s-.029 0-.029-.029l.057-.027-.028.056zm-.029-.029h.029-.029zm0 0v-.027h.057l-.057.027zm.056-.027h-.028.028zm-.056 0l-.714-2.057h.057l.714 2.057h-.057zm-.715-2.084l.029-.086.028.113h-.028l-.029-.027zm.058.027l-.771 2.057-.057-.029.771-2.055.057.027zm-.771 2.057l-.029-.029.029.029zm0 0l-.029.027-.057-.027c.029 0 .029-.029.029-.029l.057.029zm-.029.027h-.028.028zm0 0l-.028.029-.029-.057h.029l.028.028zm-.029.029v-.029.029zm0 0l-.029-.057.029.057zm0 0h-.029v-.029l.029.029zm-.028 0h-.057v-.056h.057v.056zm-.057 0v-.029.029zm0 0h-.086v-.056h.086v.056zm-.086 0v-.029.029zm0 0l-.085.029v-.085h.085v.056zm-.085.03v-.029.029zm0 0h-.086v-.059l.086-.027v.086zm-.086 0v-.029.029zm0 0v-.086.086zm0 0h-.029v-.029l.029-.029v.058zm-.03-.03l.029-.057-.029.057zm0 0v-.029.029zm0 0c-.028 0-.028 0-.028-.029l.028-.027h.029l-.029.056zm-.027-.029h.028-.028zm0 0c-.029 0-.029 0-.029-.027h.057l-.028.027zm.027-.027h-.028.028zm-.056 0l-.971-2.855h.057l.971 2.855h-.057zm-.914-2.856h-.028.028zm-.057 0c-.029-.027-.029-.057-.057-.086l.057-.057c.029.027.029.086.057.143h-.057zm-.058-.086c-.029-.029-.029-.057-.057-.057l.028-.057c.029 0 .057.027.086.057l-.057.057zm-.056-.056v-.029.029zm0 0c-.029-.029-.057-.029-.086-.029l.029-.084c.028.027.057.027.085.057l-.028.056zm-.057-.114v.027-.027zm-.03.084c-.029-.027-.057-.027-.086-.027v-.057h.115l-.029.084zm-.086-.084v.027-.027zm0 .057h-.029v-.057h.029v.057zm-.027-.057v.027-.027zm0 .057h-.029v-.057h.029v.057zm-.029-.057v.027-.027zm0 .057h-.029v-.057h.029v.057zm-.029-.057v.027-.027zm0 .057l-.029.027v-.084h.029v.057zm-.028.027h-.029v-.029h.029v.029zm-.03-.027l-.028-.172h.057l.029.143-.058.029zm-.027-.199h.029v.027h-.029v-.027zm.027 0l.143-.029v.057l-.143.029v-.057zm.143-.029v.029-.029zm0 0l.115-.029.028.086h-.143v-.057zm.116-.03v.029-.029zm0 0h.142v.059l-.114.027-.028-.086zm.142 0v.029-.029zm0 0l.115-.027v.057l-.115.029v-.059zm.114-.027v.027-.027zm0 0h.2v.057h-.2v-.057zm.201 0v.027-.027zm0 0l.057-.029v.086h-.057v-.057zm.057-.029v.029-.029zm0 0h.028v.057l-.028.029v-.086zm.028 0v.029-.029zm0 0c.029 0 .058 0 .058.029l-.029.057s0-.029-.029-.029v-.057zm.028.086l.029-.029-.029.029zm.03-.057c.028 0 .028 0 .057.027l-.057.029h-.029l.029-.056zm0 .057l.028-.029-.028.029zm.028-.03c.029 0 .029 0 .029.029l-.057.029v-.029l.028-.029zm.028.03h-.029.029zm0 0c.028 0 .028.029.028.057h-.057s0-.027-.028-.027l.057-.03zm-.028.056h.029-.029zm.057 0l.886 2.598h-.057l-.886-2.598h.057zm.857 2.627h-.029v-.029h.029v.029zm0-.056h.029v.057h-.029v-.057zm.057.027l-.028.029v-.029h.028zm-.085 0l.685-1.885.057.029-.657 1.855h-.085zm.741-1.885v.029h-.028l.028-.029zm-.057.029l-.257-.713.057-.029.257.713-.057.029zm-.199-.742l-.028.029.028-.029zm-.057.03v-.029h.057l-.057.029zm.057-.03h-.028.028zm-.057 0v-.057l.057.029v.027h-.057zm0-.056l.029.029-.029-.029zm0 0c.029 0 .029 0 .029-.029l.057.059c-.029 0-.029 0-.029.027l-.057-.057zm.085.029l-.029-.029.029.029zm-.057-.059h.028l.029.059-.057-.059zm.029 0l.029.029-.029-.029zm0 0c.057 0 .086-.027.115-.027l.028.057c-.057.029-.086.029-.114.029l-.029-.059zm.114-.027v.027-.027zm0 0h.114l.028.057h-.114l-.028-.057zm.115 0h.028v.027l-.028-.027zm.027 0l.086-.029.029.086h-.115v-.057zm.086-.029l.029.057-.029-.057zm0 0h.114v.057l-.085.029-.029-.086zm.115 0s.029 0 .029.029v.057l-.029-.029v-.057zm.029.086v-.029.029zm0-.057h.057l-.057.057v-.057zm0 .057l.029-.029-.029.029zm.057-.057v.027l-.057.029.057-.056zm0 .027c.029 0 .029.029.029.029l-.057.029s0-.029-.029-.029l.057-.029zm.028.03l-.029.029.029-.029zm0 0l.914 2.684h-.057l-.914-2.654.057-.03zm.886 2.711h-.029v-.029h.029v.029zm0-.057v.057-.057zm.056.029l-.028.027h-.029v-.027h.057zm-.085 0l.828-2.598.057.027-.8 2.57h-.085zm.828-2.597l.029.027-.029-.027zm1.23-.057l.171-.029v.057l-.143.029-.028-.057zm.17-.029v.029-.029zm0 0l.143-.029v.059l-.143.027v-.057zm.143-.03v.029-.029zm0 0c.086 0 .2-.027.257-.027v.057c-.057.029-.143.029-.257.029v-.059zm.258-.027h.114v.057h-.114v-.057zm.114 0v.027-.027zm0 0h.086v.057h-.086v-.057zm.085 0v.027-.027zm0 0l.057-.029v.086h-.057v-.057zm.058-.029v.029-.029zm0 0h.029v.057l-.029.029v-.086zm.028 0v.029-.029zm0 0c.057 0 .085.029.114.029l-.057.057s-.029-.029-.057-.029v-.057zm.115.029c0 .027.028.057.028.113h-.085v-.057l.057-.056zm.028 3.254h-.086v-3.141h.086v3.141zm0 0c0 .027-.028.057-.028.086l-.057-.059v-.027h.085zm-.028.086c-.029 0-.057.027-.086.027v-.057c.029 0 .029 0 .029-.029l.057.059zm-.086.027v-.027.027zm0 0h-.057v-.057h.057v.057zm-.057 0v-.027.027zm0 0l-.057.029v-.086h.057v.057zm-.058.029v-.029.029zm0 0h-.057v-.056l.057-.029v.085zm-.057 0v-.029.029zm0 0h-.057v-.056h.057v.056zm-.056 0v-.029.029zm0 0h-.115v-.056h.114v.056zm-.116 0v-.029.029zm0 0h-.086v-.056h.086v.056zm-.084 0v-.029.029zm0 0c-.029 0-.057 0-.057-.029l.028-.027h.029v.056zm-.058-.029c-.029 0-.029-.027-.029-.057h.057v.029l-.028.028zm-.028-2.853h.057v2.797h-.057v-2.797zm0-.057h.057v.057h-.057v-.057zm0 0h.029-.029zm0 0c0-.029-.029-.029-.029-.059l.058-.029c.028.029.028.059.028.088h-.057zm.028-.088l-.029.029.029-.029zm-.057.029v-.029l.058-.027v.027l-.058.029zm.057-.056h-.029.029zm-.057.027l-.028-.027.028-.057c.029.027.029.027.058.057l-.058.027zm-.029-.027l.028-.029-.028.029zm0 0c0-.029-.029-.029-.029-.029l.029-.057c.028 0 .028.029.028.029l-.028.057zm-.028-.03v-.027.027zm0 0h-.028v-.057h.057l-.029.057zm-.029-.056v.029-.029zm0 .056c-.029 0-.029-.027-.057-.027l.028-.057s.029 0 .029.027v.057zm-.028-.084l-.028.027.028-.027zm-.028.057h-.029v-.057h.057l-.028.057zm-.03 0c-.057 0-.086 0-.143.027v-.084h.143v.057zm-.143.027h-.029v-.029h.029v.029zm-.027-.027l-.029-.172h.057l.029.143-.057.029zm-.029-.199h.029v.027h-.029v-.027zm2.771-.145c.029 0 .057 0 .057.029l-.028.029h-.029v-.058zm.057.03h-.028.028zm0 0l.057.029-.057.057-.028-.057.028-.029zm.056.029l-.028.027.028-.027zm0 0l2.086 2.598-.057.029-2.086-2.57.057-.057zm2.086 2.598v.113l-.057-.084.028-.029h.029zm-.056 0l-.086-2.512h.057l.086 2.512h-.057zm-.086-2.512h.029-.029zm0 0c0-.029 0-.029.029-.059l.028.059h-.057zm.086 0h-.029v-.029l.029.029zm-.057-.059h.057v.059l-.057-.059zm.057.059v-.029.029zm0-.059l.057-.027v.057l-.057.029v-.059zm.056-.027v.027-.027zm0 0h.086v.057h-.086v-.057zm.086 0v.027-.027zm0 0h.086v.057h-.086v-.057zm.086 0v.027-.027zm0 0h.086v.057h-.086v-.057zm.086 0v.027-.027zm0 0h.057l-.028.057h-.029v-.057zm.056 0c.029.027.029.027.029.057h-.057l.028-.057zm.03.057h-.029.029zm0 0l-.086 2.74h-.057l.086-2.74h.057zm-.143 2.74h.028-.028zm.057.513h-.057v-.514h.057v.514zm0 0v.057l-.057-.027v-.03h.057zm0 .057c-.029.029-.029.029-.057.029v-.056l.057.027zm-.057-.027v.027-.027zm0 .056h-.057v-.056h.057v.056zm-.058 0v-.029.029zm0 0h-.086v-.056h.086v.056zm-.085 0v-.029.029zm0 0h-.057v-.056h.057v.056zm-.058 0v-.029.029zm0 0h-.057v-.056h.057v.056zm-.056 0v-.029.029zm0 0h-.057l.028-.057h.029v.057zm-.03-.056v.027-.027zm-.027.056h-.029l.057-.057-.028.057zm.027-.056l-.028.027.028-.027zm-.056.056c0-.029-.029-.029-.029-.057l.058-.029c0 .029.028.029.028.029l-.057.057zm.029-.086l-.029.029.029-.029zm-.058.03l-2.114-2.6.058-.027 2.114 2.598-.058.029zm-2.114-2.6v-.113l.058.086-.029.027h-.029zm.086 0l.057 2.57h-.057l-.086-2.57h.086zm.057 2.57h-.028.028zm0 0c0 .029 0 .057-.028.057l-.029-.057h.057zm-.029.057v-.027.027zm0 0s-.029.029-.057.029v-.056c.028 0 .028 0 .028-.029l.029.056zm-.057-.027v.027-.027zm.029.056h-.086v-.056h.058l.028.056zm-.086 0v-.029.029zm0 0h-.086v-.056h.086v.056zm-.085 0v-.029.029zm0 0h-.086v-.056h.086v.056zm-.087 0v-.029.029zm0 0h-.086v-.056h.086v.056zm-.086 0v-.029.029zm0 0h-.056l.057-.057v.057zm-.056 0c0-.029-.028-.029-.028-.057h.085l-.057.057zm-.029-.056h.057-.057zm0 0l.085-2.941h.057l-.057 2.941h-.085zm.143-2.971v.029h-.028l.028-.029zm-.058.059l-.228-.314.028-.057.257.313-.057.058zm-.199-.371v.029-.029zm-.029.056c-.029 0-.029-.027-.029-.027l.057-.029-.028.056zm-.028-.027v-.029h.057l-.057.029zm0-.029c0-.029 0-.029.029-.057l.028.057h-.057zm.057 0v-.029.029zm-.029-.057s.028-.029.057-.029v.057l-.029.029-.028-.057zm.058-.029v.029-.029zm0 0h.057v.057h-.057v-.057zm.057 0v.029-.029zm0 0h.057v.057h-.057v-.057zm.057 0v.029-.029zm0 0l.172-.029v.059l-.172.027v-.057zm.172-.03v.029-.029zm0 0h.143v.059h-.143v-.059zm.142 0v.029-.029zm0 0h.086v.059h-.086v-.059zm.086 0v.029-.029zm4.513 3.028h-.057v-.059h.057v.059zm-.056 0h.028-.028zm.056.027h-.057v-.027h.057v.027zm-.056 0h.028-.028zm.056 0v.029l-.057.029v-.059h.057zm-.056.059l.028-.029-.028.029zm.056-.03s.028 0 .028.029l-.057.027-.028-.027.057-.029zm.029.03h-.028.028zm0 0l-.028.057-.029-.029.057-.028zm0 0v.027-.027zm0 0h.028v.057h-.057l.029-.057zm.028.056v-.029.029zm0-.056h.057v.057H33.5v-.057zm.058.056v-.029.029zm0-.056h.086l-.029.086-.057-.029v-.057zm.086.086h-.029l.029-.059v.059zm0-.086h.371v.086h-.371v-.086zm.371.086v-.059.059zm0-.086h.229v.057l-.229.029v-.086zm.229.056v-.029.029zm0-.056h.171v.057h-.171v-.057zm.171 0c.057 0 .086 0 .143-.029v.057c-.029.029-.086.029-.143.029v-.057zm.143.027v-.027.027zm0-.057c.029 0 .057-.029.086-.029l.028.059c-.028 0-.057.027-.114.027v-.057zm.086-.029l.028.029-.028-.029zm0 0c.028-.027.085-.027.114-.057l.029.029c-.029.027-.058.057-.115.086l-.028-.058zm.114-.057c.029-.029.057-.057.057-.113l.057.027c-.028.057-.057.086-.085.115l-.029-.029zm.056-.113l.029.027-.029-.027zm0 0c.029-.029.057-.086.086-.143l.057.027c-.029.057-.057.115-.086.143l-.057-.027zm.086-.142c.028-.057.086-.115.114-.201l.057.029c-.028.086-.085.143-.114.199l-.057-.027zm.115-.202h.029v.029l-.029-.029zm.028 0l.143.029v.057l-.172-.027.029-.059zm.144.03h.029v.029h-.029v-.029zm.027.056h-.057v-.027h.057v.027zm0 0h-.028.028zm0 0v.086l-.086-.027.029-.059h.057zm0 .086h-.057.057zm0 0l-.028.086-.058-.029v-.084l.086.027zm-.027.086h-.029.029zm0 0l-.029.086h-.057l.028-.115.058.029zm-.029.086h-.029.029zm0 0v.113h-.086l.029-.113h.057zm0 .113h-.057.057zm0 0l-.029.115h-.085l.028-.115h.086zm-.115.116h.057-.057zm.085 0c-.028.057-.028.086-.028.113l-.086-.027c.029-.029.029-.059.029-.086h.085zm-.027.113c-.029.029-.029.057-.029.086h-.057v-.113l.086.027zm-.029.086h-.028.028zm0 0c-.028.057-.057.086-.085.086l-.029-.029c.029-.029.029-.057.057-.057h.057zm-.085.086v-.03.03zm0 0c-.029.027-.058.027-.115.027v-.057h.086l.029.03zm-.115.027v-.027.027zm0 0h-.257v-.057h.257v.057zm-.257 0h-.343v-.057h.343v.057zm-.344 0h-.4v-.057h.4v.057zm-.399-.057v.029-.029zm0 .057h-.457v-.057h.457v.057zm-.457 0h-.486v-.057h.486v.057zm-.485 0h-.057l.027-.057h.029v.057zm-.057 0v-.027.027zm0 0l-.029-.027.056-.03-.027.057zm.027-.057h-.028.028zm-.056.03l-.029-.029.058-.029.027.028-.056.03zm-.03-.03l.029-.029-.029.029zm0 0v-.057h.058v.027l-.058.03zm0-2.74h.057v2.684h-.057V23.49zm0 0c0-.057 0-.086-.028-.113l.086-.029v.143h-.058zm-.027-.113h.057-.057zm0 0c0-.029 0-.029-.029-.059l.029-.057.086.086-.086.03zm0-.115v.027-.027zm-.029.056c-.028 0-.028-.029-.057-.029v-.057c.029 0 .057.029.086.029l-.029.057zm-.057-.086v.029-.029zm0 .057h-.086v-.057h.086v.057zm-.086 0h-.143v-.057h.143v.057zm-.142 0h-.029v-.027h.029v.027zm-.03-.027l-.029-.143.086-.029v.172h-.057zm-.028-.143v-.029l.029-.027v.027l-.029.029zm.028-.056h.086v.057l-.057.029-.029-.086zm.087 0v.027-.027zm0 0l.114-.029v.086h-.114v-.057zm.114-.03v.029-.029zm0 0l.257-.027v.057l-.257.057v-.087zm.256-.027v.027-.027zm0 0h.114v.057H32.9v-.057zm.115 0v.027-.027zm0 0l.143-.029v.057l-.143.029v-.057zm.143-.029v.029-.029zm0 0h.086l.028.057h-.114v-.057zm.086 0v.029-.029zm0 0h.086v.057h-.086v-.057zm.086 0h1.114v.057H33.33v-.057zm1.113 0h.2v.057h-.2v-.057zm.201.056v-.027.027zm0-.056h.256v.057h-.257v-.057zm.256 0v.029-.029zm0 0h.057l-.029.057H34.9v-.057zm.058 0l-.029.029.029-.029zm0 0c.029.029.029.029.029.057h-.058l.029-.057zm.029.056h-.029.029zm0 .115h-.057v-.115h.057v.115zm0 .057h-.057v-.057h.057v.057zm0 0h-.029.029zm0 0l.028.084h-.086v-.084h.058zm-.058.084h.029-.029zm.086 0v.145h-.057l-.029-.145h.086zm0 .287h-.057v-.143h.057v.143zm0 0h-.028.028zm0 .113h-.057v-.113h.057v.113zm0 0h-.028.028zm0 .057h-.057v-.057h.057v.057zm0 .029h-.029v-.029h.029v.029zm-.028 0l-.143.029v-.059l.143-.027v.057zm-.143.03h-.029v-.029h.029v.029zm-.03-.03c-.028-.057-.028-.115-.057-.172l.057-.027a.403.403 0 0 1 .057.199h-.057zm-.056-.171c0-.057-.029-.084-.057-.141h.057a.203.203 0 0 1 .057.113l-.057.028zm-.057-.141c0-.029-.029-.059-.057-.086l.057-.029c.028.029.057.057.057.115h-.057zm-.057-.086l-.057-.059.028-.057c.029.027.057.057.086.086l-.057.03zm-.029-.115v.027-.027zm-.029.056c-.029 0-.058-.029-.086-.029l.028-.057c.029 0 .058.029.086.029l-.028.057zm-.057-.086l-.029.03.029-.03zm-.029.057c-.029 0-.057-.027-.114-.027v-.057c.057 0 .085.027.142.027l-.028.057zm-.113-.084v.027-.027zm0 .057h-.143v-.057h.143v.057zm-.143-.057v.027-.027zm0 .057h-.171v-.057h.171v.057zm-.172-.057v.027-.027zm0 .057h-.543v-.057h.543v.057zm-.542-.057v.027-.027zm0 .057h-.03v-.057h.029v.057zm-.03-.057v.027-.027zm0 .057h-.029v-.057h.029v.057zm-.057-.057h.028v.027l-.028-.027zm.029.057h-.028l-.029-.057h.029l.028.057zm-.029 0v-.029.029zm0 0l-.029-.029v-.027l.029.056zm0 0h-.029.029zm0 0h-.057c0-.029 0-.029.028-.029l.029.029zm-.056 0h.028-.028zm.056.027h-.057v-.027h.057v.027zm-.056 0h.028-.028zm.056 0v.029l-.057-.029h.057zm-.056.029v-.029l.028.029h-.028zm.056.03h-.057v-.029h.057v.029zm-.056 0h.028-.028zm.056 1.14h-.057v-1.141h.057v1.141zm-.028.03h-.029v-.029h.029v.029zm0-.057l.457-.029v.057l-.457.029v-.057zm.457.027v-.027.027zm0-.056l.343-.027v.057l-.343.027v-.057zm.342-.028h.257v.057h-.257v-.057zm.258 0v.027-.027zm0 0h.114v.057h-.114v-.057zm.114 0v.027-.027zm0 0c.028 0 .057 0 .085.027l-.057.029h-.028v-.056zm.085.028c.029 0 .029.029.029.086h-.057c0-.029-.029-.057-.029-.057l.057-.029zm.03.086v.115l-.086-.029c0-.029.029-.057.029-.086h.057zm0 .115h-.029.029zm0 0l-.029.113h-.057v-.143l.086.03zm-.03.142h-.029v-.029h.029v.029zm-.027 0l-1.229-.029v-.086l1.229.059v.056zm-1.257-.115h.029v.029h-.029v-.029zm.056 1.17h-.057v-1.141h.057v1.141zm-.056 0h.028-.028zm5.456-2.824l.257-.059.029.059-.286.057v-.057zm.257-.059l.029.029-.029-.029zm0 0l.315-.027v.057l-.286.029-.029-.059zm.315-.027v.027-.027zm0 0c.114-.029.228-.029.342-.029v.057c-.114 0-.228.029-.342.029v-.057zm.341-.029h.371v.057h-.371v-.057zm.372 0h.143v.057h-.143v-.057zm.143 0v.029-.029zm0 0h.143v.057h-.143v-.057zm.143 0h.029l-.029.029v-.029zm.028 0c.029 0 .086 0 .143.029v.057c-.057-.029-.114-.029-.172-.029l.029-.057zm.143.086v-.029.029zm0-.057h.171l-.028.057h-.143v-.057zm.171 0l-.028.027.028-.027zm0 0c.057.027.086.027.143.057l-.028.057c-.029-.027-.086-.027-.143-.057l.028-.057zm.143.057c.057 0 .086.029.143.029l-.029.057c-.028 0-.085-.029-.142-.029l.028-.057zm.143.029c.057.027.086.057.143.084l-.029.029c-.057 0-.085-.029-.143-.057l.029-.056zm.144.084c.028.029.085.059.114.086l-.029.029a.4.4 0 0 1-.114-.086l.029-.029zm.085.115v-.029.029zm.029-.029c.029.029.086.057.114.086l-.057.027-.086-.084.029-.029zm.114.086l-.028.027.028-.027zm0 0a.209.209 0 0 1 .057.115l-.057.027c0-.027-.028-.057-.057-.115l.057-.027zm.057.115c.029.057.058.113.058.143l-.058.027c-.028-.057-.028-.084-.057-.143l.057-.027zm.058.143c0 .057.028.113.028.17h-.086v-.143l.058-.027zm.028.169c0 .057-.028.086-.028.143l-.058-.027v-.115h.086zm-.086.116h.029-.029zm.058.027c0 .029-.029.086-.029.115l-.057-.029c0-.027.028-.057.028-.113l.058.027zm-.029.115c-.029.057-.029.086-.057.113l-.057-.027c.028-.029.028-.059.057-.115l.057.029zm-.058.114a.408.408 0 0 1-.086.115l-.056-.03c.029-.029.057-.057.086-.113l.056.028zm-.086.115a.214.214 0 0 1-.114.113l-.029-.027c.029-.029.057-.086.086-.115l.057.029zm-.113.113v-.027.027zm0 0c-.029.029-.057.086-.114.115l-.029-.056c.029-.029.086-.059.114-.086l.029.027zm-.115.115c-.057.027-.086.057-.143.057l-.029-.057c.057 0 .086-.029.143-.057l.029.057zm-.171 0v.027-.027zm.028.057c-.057.027-.114.057-.172.086l-.028-.059.171-.084.029.057zm-.199.057v-.029l.028.029h-.028zm.057 0h-.057.057zm-.057.029v-.029h.028l-.028.029zm.027-.059h.058v.086l-.086-.027.028-.059zm.059 0v.029-.029zm0 0l.085.029-.028.057-.057-.027v-.059zm.085.03l-.028.029.028-.029zm0 0c.029 0 .057.029.086.029l-.029.057c-.028 0-.057-.029-.085-.029l.028-.057zm.085.029c.029 0 .057.027.086.027l-.028.059c-.028 0-.057-.029-.086-.029l.028-.057zm.086.027v.029-.029zm0 0c.028.029.085.029.114.059l-.029.057c-.057-.029-.085-.029-.114-.057l.029-.059zm.115.059c.028.027.057.027.086.057l-.029.056c-.029-.027-.057-.057-.086-.057l.029-.056zm.086.056l-.029.03.029-.03zm0 0c.028.029.057.057.114.057l-.057.057c-.029-.027-.057-.057-.086-.057l.029-.057zm.113.057c.028.029.057.057.057.086l-.029.057a3.467 3.467 0 0 1-.085-.086l.057-.057zm.029.143l.029-.027-.029.027zm.029-.057c.029.029.057.086.086.113l-.057.029c-.029-.029-.029-.057-.058-.086l.029-.056zm.085.113c.028.029.028.059.057.115l-.057.029c-.029-.059-.029-.086-.057-.115l.057-.029zm.058.116c.028.029.028.086.028.115l-.057.027c0-.057-.028-.086-.028-.113l.057-.029zm.027.115l-.028.027.028-.027zm0 0c.029.057.029.113.029.17h-.086v-.143l.057-.027zm.03.17c0 .027 0 .086-.029.143h-.057v-.143h.086zm-.086.142h.029-.029zm.056 0c0 .029 0 .086-.028.115l-.057-.029c.028-.027.028-.057.028-.086h.057zm-.027.116c0 .027 0 .057-.029.084h-.057c0-.057.029-.084.029-.113l.057.029zm-.086.084h.029-.029zm.057 0c-.028.059-.028.086-.057.115l-.057-.03c0-.027.029-.057.057-.086h.057zm-.114.085l.029.029-.029-.029zm.057.03a.353.353 0 0 1-.086.113l-.057-.027c.029-.029.057-.086.086-.115l.057.029zm-.086.113c-.028.059-.085.086-.114.115l-.057-.056c.057-.029.086-.059.114-.086l.057.027zm-.115.115c-.057.029-.086.057-.143.086l-.028-.029.114-.113.057.056zm-.143.086l-.171.084-.029-.057c.058-.027.115-.027.172-.057l.028.03zm-.171.084c-.086.029-.143.059-.229.059v-.059a.5.5 0 0 0 .2-.057l.029.057zm-.229.059c-.085.027-.171.057-.257.057v-.057a.792.792 0 0 0 .257-.059v.059zm-.256.056h-.286v-.056h.286v.056zm-.286 0v-.029.029zm0 0h-.143v-.056h.143v.056zm-.143 0v-.029.029zm0 0h-.114v-.056h.114v.056zm-.114 0v-.029.029zm0 0h-.228l.029-.057h.199v.057zm-.228 0v-.029.029zm0 0l-.086-.029v-.057l.115.029-.029.057zm-.086-.086v.029-.029zm0 .057h-.114v-.057h.114v.057zm-.115-.057v.029-.029zm0 .057h-.143v-.057h.143v.057zm-.143-.057v.029-.029zm0 .057H39.3v-.057h.143v.057zm-.142-.057v.029-.029zm0 .057c-.028 0-.057 0-.085-.027l.057-.029h.028v.056zm-.029-.057h-.029.029zm-.057.03s-.029-.029-.029-.059h.086v.029l-.057.03zm-.028-2.856h.086v2.799h-.086v-2.799zm0 0v-.115h.057c.029.029.029.059.029.115h-.086zm.057-.115h-.028.028zm-.057 0c0-.027-.029-.027-.029-.057l.029-.027c.029 0 .057.027.057.084h-.057zm-.029-.057v-.027.027zm0 0c-.028 0-.057-.027-.085-.027l.028-.057c.029 0 .057.027.086.057l-.029.027zm-.057-.084v.027-.027zm-.028.057h-.086v-.057h.114l-.028.057zm-.087 0h-.114l-.029-.057h.143v.057zm-.113 0h-.029l-.028-.029h.057v.029zm-.058-.029v-.143h.057l.028.143h-.085zm0-.17h.029v.027h-.029v-.027zm1 2.969l.028.027-.028.059h-.029l.029-.086zm.029.086h-.028l.028-.029v.029zm0-.059h.057l-.028.059h-.029v-.059zm.029.059v-.029.029zm.027-.059h.114v.086l-.142-.027.028-.059zm.115.086v-.057.057zm0-.086l.058.029v.057h-.058v-.086zm.058.086v-.027.027zm0-.057h.057v.057h-.057v-.057zm.056.057v-.027.027zm0-.057h.086v.057h-.086v-.057zm.085.057v-.027.027zm0-.057h.057v.057h-.057v-.057zm.058.057v-.027.027zm0-.057c.057 0 .142 0 .2-.029v.059c-.058.027-.143.027-.2.027v-.057zm.201-.029c.057 0 .114-.027.142-.027l.029.057c-.057 0-.114.029-.171.029v-.059zm.142-.027l.029.027-.029-.027zm0 0c.058-.029.086-.059.143-.086l.029.057c-.029.029-.086.057-.143.086l-.029-.057zm.142-.086c.029 0 .057-.029.086-.059l.057.029c-.028.029-.086.057-.114.086l-.029-.056zm.143-.03l-.028-.029.028.029zm-.056-.029l.086-.084.057.027-.086.086-.057-.029zm.086-.084c0-.059.028-.086.028-.115l.057.029c0 .027-.028.057-.028.113l-.057-.027zm.085-.086l-.028-.029.028.029zm-.057-.029c.029-.027.029-.057.029-.084h.057c0 .027 0 .057-.029.113l-.057-.029zm.028-.084v-.115h.086c0 .029 0 .086-.029.115h-.057zm0-.115v-.199h.057c0 .057.029.141.029.199h-.086zm0-.2c-.029-.057-.029-.115-.057-.143l.057-.029c.028.057.057.115.057.172h-.057zm-.056-.142c-.029-.059-.057-.086-.086-.145l.029-.027c.057.027.085.086.114.143l-.057.029zm-.086-.145h.029-.029zm0 0c-.029-.027-.086-.057-.114-.084l.028-.059a.234.234 0 0 1 .115.115l-.029.028zm-.114-.084c-.057-.029-.115-.059-.172-.059l.029-.057c.057 0 .114.029.171.057l-.028.059zm-.172-.058c-.057-.027-.114-.057-.171-.057l.028-.057c.058 0 .115.029.172.057l-.029.057zm-.171-.057v-.027.027zm0 0c-.057 0-.143-.027-.2-.027v-.059c.086 0 .143.029.228.029l-.028.057zm-.2-.027h-.229v-.059h.229v.059zm-.229 0h-.086v-.059h.086v.059zm-.085 0h-.029v-.059h.029v.059zm-.029-.059v.029-.029zm0 .059h-.029v-.059h.029v.059zm-.029-.059v.029-.029zm0 .059h-.029v-.059h.029v.059zm-.058-.059h.029v.029h-.029v-.029zm.058 1.371h-.057v-1.342h.057v1.342zm-.028.03l-.029-.029h.029v.029zm0-1.629h.057v.057h-.057v-.057zm.057.056v-.027.027zm0-.056h.057v.057h-.057v-.057zm.056.056v-.027.027zm0-.056h.229l.028.057h-.257v-.057zm.229 0c.085-.027.143-.027.228-.027v.057c-.057 0-.143 0-.2.027l-.028-.057zm.228-.028c.057-.029.115-.029.143-.057l.029.057c-.057.027-.115.027-.172.057v-.057zm.144-.056c.057-.029.114-.029.143-.059l.029.029c-.029.029-.086.057-.143.086l-.029-.056zm.143-.059l.029.029-.029-.029zm0 0c.029-.027.086-.057.114-.086l.029.029c-.029.029-.057.086-.114.115l-.029-.058zm.143-.057l-.029-.029.029.029zm-.03-.029c.029-.027.029-.086.057-.113l.058.027c-.029.029-.058.086-.086.115l-.029-.029zm.057-.113c.029-.029.029-.086.058-.143l.057.027c-.029.059-.029.086-.057.143l-.058-.027zm.059-.143l.028.027-.028-.027zm0 0v-.143h.057v.17l-.057-.027zm0-.314h.057v.172h-.057v-.172zm0 0h.028-.028zm0 0c-.029-.029-.029-.086-.058-.113l.058-.029c.028.029.028.086.057.143h-.057zm-.059-.113c-.028-.057-.057-.086-.085-.115l.057-.027a.398.398 0 0 1 .086.113l-.058.029zm-.027-.143h-.029.029zm-.057.027c-.029-.027-.057-.057-.086-.086l.029-.057a.217.217 0 0 1 .114.115l-.057.028zm-.086-.086a.216.216 0 0 0-.114-.057l.028-.057c.057 0 .086.027.115.057l-.029.057zm-.114-.056c-.057-.029-.086-.057-.143-.057v-.057c.057 0 .114.027.171.057l-.028.057zm-.143-.057c-.057 0-.114-.029-.172-.029v-.057c.058 0 .143 0 .172.029v.057zm-.173-.029h-.171v-.057h.171v.057zm-.171 0h-.114v-.057h.114v.057zm-.113 0v-.027.027zm0 0h-.057l-.029-.057h.086v.057zm-.057 0l-.029-.027.029.027zm0 0c-.029 0-.029.029-.029.029l-.057-.029c0-.027.029-.027.057-.057l.029.057zm-.029.029s-.028.027-.028.057h-.058c0-.029 0-.057.029-.086l.057.029zm-.029 1.256h-.057v-1.199h.057v1.199zm-.028.027h-.029v-.027h.029v.027zm3.4.602l-.458 1.17-.058-.03.457-1.17.059.03zm-.516 1.14h.03-.03zm.058.03s0 .027-.028.027l-.03-.057.058.03zm-.028.027l-.03-.027.03.027zm0 0c0 .029-.029.029-.057.029v-.056s.028 0 .028-.029l.029.056zm-.057.029v-.029.029zm0 0h-.057v-.056h.057v.056zm-.058 0v-.029.029zm0 0h-.057v-.056h.057v.056zm-.058 0v-.029.029zm0 0h-.086v-.056h.086v.056zm-.085 0v-.029.029zm0 0h-.086v-.056h.086v.056zm-.086 0H42.3l.057-.057v.057zm0-.056l-.029.027.029-.027zm-.056.056c0-.029-.029-.029-.029-.057h.086l-.057.057zm-.029-.056l.029-.03.057.029h-.086zm.085 0h-.029.029zm-.056-.03l1.371-3.082.057.027-1.371 3.084-.057-.029zm1.428-3.082v.027H43.7l.028-.027zm-.058.028l-.057-.17.057-.029.057.172-.057.027zm-.056-.17h.029-.029zm0-.029h.057v.029h-.057v-.029zm0 0h.029-.029zm0 0h-.029.086-.057zm-.03 0h.058-.058zm0 0c0-.029.029-.057.029-.057l.057.027v.029h-.086zm.086-.03h-.028.028zm-.056-.027c.029-.029.057-.029.057-.029l.029.057h-.03l-.056-.028zm.056-.029h.057l.029.057H43.7l-.03-.057zm.058 0v.029-.029zm0 0l.057-.029.029.059-.057.027-.029-.057zm.057-.03h.029v.029l-.029-.029zm.028 0h.114v.059l-.114.027v-.086zm.115 0v.029-.029zm0 0h.114v.059h-.114v-.059zm.114 0v.029-.029zm0 0h.086v.059h-.086v-.059zm.085 0v.029-.029zm0 0h.057l-.028.059h-.029v-.059zm.058 0c.029.029.029.059.058.059l-.058.027c-.028 0-.028-.027-.028-.027l.028-.059zm.058.059l-.029.027.029-.027zm0 0l1.342 3.254h-.057l-1.343-3.227.058-.027zm1.341 3.254h-.028.028zm0 0l-.057.027v-.027h.057zm0 0l-.028.027.028-.027zm0 0v.027h-.057l.057-.027zm0 .027h-.028.028zm0 0c0 .029 0 .059-.028.059l-.029-.029v-.029h.057zm-.057.029h.029-.029zm.03.03c0 .027-.029.027-.057.027v-.057h.028l.029.03zm-.057.027h-.057v-.057h.057v.057zm-.059 0v-.027.027zm0 0l-.057.029v-.086h.057v.057zm-.056.029v-.029.029zm0 0h-.057l-.028-.056.085-.029v.085zm-.057 0l-.028-.029.028.029zm0 0h-.086v-.056h.058l.028.056zm-.086 0v-.029.029zm0 0h-.114v-.056h.114v.056zm-.115 0v-.029.029zm0 0h-.086v-.056h.086v.056zm-.085 0v-.029.029zm0 0h-.057l.029-.057h.028v.057zm-.058 0l.029-.029-.029.029zm0 0c-.028-.029-.028-.029-.028-.057l.057-.029v.029l-.029.057zm-.027-.056l-.514-1.199h.085l.486 1.17-.057.029zm-.457-1.229l.028.029H44.5v-.029zm0 .059l-1.343.027v-.057l1.343-.029v.059zm-1.373-.029h.029v.029l-.029-.029zm.144-.258h1.114v.057h-1.114v-.057zm1.143.029l.029.029h-.058v-.029h.029zm-.058.029l-.572-1.398.058-.029.571 1.398-.057.029zm-.571-1.427l.029-.086.029.086h-.058zm.058.029l-.543 1.398-.057-.029.542-1.398.058.029zm-.572 1.398h-.057l.029-.029h.028v.029zm4.17-.314c.086 0 .143-.029.2-.029l.029.057c-.086 0-.143.029-.229.029v-.057zm.201-.029l.029.029-.029-.029zm0 0c.086 0 .143-.029.2-.029l.029.059c-.057 0-.143.027-.2.027l-.029-.057zm.229.029l-.029-.029.029.029zm-.029-.059c.057-.027.114-.057.172-.057l.028.057a.39.39 0 0 0-.171.059l-.029-.059zm.172-.056c.028-.027.085-.057.114-.084l.057.057a.642.642 0 0 0-.143.084l-.028-.057zm.113-.084c.028-.029.085-.059.114-.115l.029.057a.403.403 0 0 0-.086.115l-.057-.057zm.115-.116v.029-.029zm0 0c.029-.029.029-.057.057-.115l.057.029c-.028.057-.028.086-.085.143l-.029-.057zm.113-.086h-.028.028zm-.057-.029c.029-.027.029-.084.057-.143h.057a.394.394 0 0 1-.057.172l-.057-.029zm.057-.312h.057v.17h-.057v-.17zm0-.172h.057v.172h-.057v-.172zm0 0c-.028-.029-.028-.086-.057-.113l.057-.029c.029.057.029.086.057.143h-.057zm-.057-.113h.029-.029zm0 0c-.028-.029-.057-.086-.086-.115l.058-.027c.028.027.057.086.085.113l-.057.029zm-.086-.116a3.467 3.467 0 0 1-.085-.086l.028-.029c.057.029.086.059.115.088l-.058.027zm-.085-.086c-.029-.029-.086-.029-.114-.057l.028-.057c.029.027.086.057.114.084l-.028.03zm-.113-.056c-.058-.029-.115-.029-.143-.057v-.057c.057.027.114.027.171.057l-.028.057zm-.143-.057c-.057 0-.115 0-.172-.029v-.057c.057 0 .115.029.172.029v.057zm-.172-.029h-.171v-.057h.171v.057zm-.172 0h-.114v-.057h.114v.057zm-.113 0v-.027.027zm0 0c-.029 0-.058 0-.058.029l-.028-.057c.028-.029.057-.029.086-.029v.057zm-.059.029h-.028l-.057-.029c0-.027.028-.027.057-.027l.028.056zm-.027 0h-.029.029zm0 0v.057h-.086c0-.029 0-.057.029-.086l.057.029zm0 2.969h-.086v-2.912h.086v2.912zm0 0c0 .027-.029.057-.029.086l-.057-.059v-.027h.086zm-.03.086l-.028-.029.028.029zm0 0c-.028 0-.057.027-.085.027v-.057s.028 0 .028-.029l.057.059zm-.085.027v-.027.027zm0 0h-.057v-.057h.057v.057zm-.057 0v-.027.027zm0 0l-.057.029v-.086h.057v.057zm-.057.029v-.029.029zm0 0h-.114l-.029-.057.143-.029v.086zm-.115 0v-.029.029zm0 0h-.114v-.056h.114v.056zm-.113 0v-.029.029zm0 0h-.086v-.056h.086v.056zm-.086 0v-.029.029zm0 0c-.028 0-.057 0-.086-.029l.058-.027h.028v.056zm-.086-.029v-.057h.058v.029l-.058.028zm0-2.883h.057v2.826h-.057v-2.826zm0 0c0-.057-.028-.086-.028-.115h.057c.029.029.029.059.029.115h-.058zm.029-.115h-.029.029zm-.058 0c0-.027-.029-.027-.029-.057l.029-.027c.028 0 .057.027.057.084h-.057zm0-.084h-.029.029zm-.028.027c-.028 0-.057-.027-.085-.027l.028-.057c.029 0 .057.027.086.057l-.029.027zm-.058-.084v.027-.027zm-.027.057h-.086v-.057h.114l-.028.057zm-.086 0h-.114v-.057h.114v.057zm-.115 0h-.029v-.029h.029v.029zm-.028-.029l-.029-.143h.058l.028.143h-.057zm-.03-.17h.029v.027h-.029v-.027zm.03 0c.086-.029.2-.059.314-.059v.059c-.114.027-.2.027-.314.057v-.057zm.314-.059c.086-.027.2-.027.314-.027v.057c-.114 0-.228.029-.314.029v-.059zm.314-.027v.027-.027zm0 0c.115-.029.2-.029.315-.029v.057c-.086 0-.2 0-.315.029v-.057zm.315-.029h.343v.057h-.343v-.057zm.343 0h.143v.057h-.143v-.057zm.141 0v.029-.029zm0 0h.171v.057h-.171v-.057zm.173 0v.029-.029zm0 0c.057 0 .114 0 .171.029l-.028.057c-.057-.029-.086-.029-.143-.029v-.057zm.171.029l-.028.027.028-.027zm0 0h.143v.086c-.057-.029-.114-.029-.171-.029l.028-.057zm.143.086v-.059.059zm0-.086c.057.027.114.027.143.057v.057c-.057-.027-.114-.027-.143-.027v-.087zm.143.057c.057 0 .114.029.143.029v.057c-.057 0-.115-.029-.143-.029v-.057zm.142.029a.642.642 0 0 1 .143.084l-.029.059c-.029-.029-.086-.059-.114-.086v-.057zm.143.084c.057.029.085.059.114.086l-.029.029a.21.21 0 0 0-.114-.057l.029-.058zm.115.086v.029-.029zm0 0a.387.387 0 0 1 .114.086l-.057.057a.368.368 0 0 0-.086-.113l.029-.03zm.113.086c.029.057.057.086.057.143h-.057c0-.027-.028-.057-.057-.086l.057-.057zm.058.142a.218.218 0 0 1 .057.143h-.057c-.028-.057-.028-.084-.057-.143h.057zm.057.143h-.028.028zm0 0c0 .029.029.086.029.143h-.086v-.143h.057zm.029.142c0 .086 0 .143-.029.201l-.057-.029v-.172h.086zm-.029.202c0 .057-.028.084-.028.143l-.086-.029a.218.218 0 0 0 .057-.143l.057.029zm-.115.113l.029.029-.029-.029zm.086.029c-.029.057-.057.084-.086.143l-.057-.029c.029-.057.057-.086.057-.143l.086.029zm-.086.143c-.028.027-.057.086-.086.113l-.057-.027c.029-.059.057-.086.086-.115l.057.029zm-.085.113c-.057.029-.085.086-.114.115l-.057-.057c.029-.029.086-.059.114-.086l.057.028zm-.171.059l.029.027-.029-.027zm.057.056a.642.642 0 0 0-.143.084l-.028-.057c.028-.027.085-.057.114-.084l.057.057zm-.172.028v.029-.029zm.029.056c-.057.029-.114.029-.143.059l-.028-.059c.028-.027.086-.027.143-.057l.028.057zm-.143.059c-.057.027-.114.057-.171.057l-.029-.057a.389.389 0 0 0 .172-.059l.028.059zm-.201.027v-.027l.029.027h-.029zm.059.03h-.057v-.029h.057v.029zm-.029.029h-.029v-.029h.029v.029zm0-.059h.086l-.029.086c-.028-.027-.057-.027-.057-.027v-.059zm.086 0c.028.029.057.029.085.029l-.028.057h-.086l.029-.086zm.057.086l.028-.027-.028.027zm.028-.056c.029.029.058.029.086.057l-.028.059c-.029-.029-.058-.029-.086-.059l.028-.057zm.058.115l.028-.029-.028.029zm.028-.059c.029 0 .057.029.086.029l-.029.057c-.028 0-.057-.027-.085-.027l.028-.059zm.085.029v.029-.029zm0 0l.086.086-.029.027c-.029 0-.057-.027-.086-.057l.029-.056zm.086.086l.085.086-.057.027c-.028-.027-.057-.057-.057-.086l.029-.027zm.085.086c.029.027.029.057.057.084l-.057.029c-.028-.029-.028-.057-.057-.086l.057-.027zm.058.084c.029.029.029.086.058.115l-.058.029c-.028-.059-.028-.086-.057-.115l.057-.029zm0 .145h.029-.029zm.058-.029l.228.656-.057.029-.229-.656.058-.029zm.228.656h-.028.028zm0 0c0 .029.029.086.029.113l-.057.029c0-.029-.029-.086-.029-.143h.057zm.028.113c.028.029.028.059.057.086l-.057.029c-.029-.029-.029-.057-.057-.086l.057-.029zm.058.086l-.029.029.029-.029zm0 0c0 .029.028.059.028.059l-.057.057c-.028-.029-.028-.057-.028-.086l.057-.03zm.027.059l-.028.027.028-.027zm0 0c0 .027.029.057.029.057l-.029.057-.057-.057.057-.057zm0 .113v-.027.027zm.03-.057c.029 0 .029.029.057.029l-.057.057-.029-.029.029-.057zm.056.03l-.028.027.028-.027zm0 0l.029.027-.029.057s-.028-.027-.057-.027l.057-.057zm.03.027v.029-.029zm0 0h.057v.057h-.086l.029-.057zm.057 0v.029-.029zm0 0h.086v.057h-.086v-.057zm.085 0h.029v.029h-.029v-.029zm.029.029v.143h-.057l-.029-.143h.086zm0 .17h-.029v-.027h.029v.027zm-.029 0h-.03v-.057h.029v.057zm-.029 0c-.029.029-.057.029-.086.029l-.028-.057c.028 0 .085 0 .114-.029v.057zm-.086.029h-.085v-.056h.057l.028.056zm-.084 0v-.029.029zm0 0l-.058.029v-.085h.058v.056zm-.059.03v-.059.059zm0 0h-.114l-.028-.059.142-.027v.086zm-.113 0v-.029.029zm0 0h-.057v-.059h.057v.059zm-.057 0v-.029.029zm0 0h-.029v-.059h.029v.059zm-.029 0v-.029.029zm0 0h-.114l.029-.059h.085v.059zm-.085-.059v.029-.029zm-.03.059c-.028 0-.057 0-.086-.029l.029-.057c.029 0 .057.027.086.027l-.029.059zm-.085-.03c-.028 0-.028 0-.057-.029l.029-.057c.028.029.028.029.057.029l-.029.057zm-.058-.029v-.027.027zm0 0c-.028 0-.057-.027-.085-.057l.057-.029s.028.029.057.029l-.029.057zm-.085-.057h.028-.028zm0 0c-.029 0-.029-.029-.058-.057l.058-.029.057.057-.057.029zm-.057-.056c-.028-.029-.028-.057-.057-.086l.057-.027c.029.027.029.057.058.084l-.058.029zm-.057-.086h.029-.029zm0 0c0-.027-.028-.057-.028-.086l.057-.027c0 .027.028.057.028.086l-.057.027zm.028-.113h-.029.029zm-.057.027c-.029-.027-.029-.086-.057-.113l.057-.029c.028.029.028.086.057.115l-.057.027zm0-.143h-.029.029zm-.056.03l-.2-.686.057-.027.2.684-.057.029zm-.2-.686l.028-.027-.028.027zm0 0c-.029-.057-.029-.113-.058-.143l.058-.029c.028.059.028.086.057.145l-.057.027zm-.059-.142c-.028-.029-.028-.057-.057-.086l.057-.057c.029.027.029.086.058.113l-.058.03zm-.056-.086l.029-.029-.029.029zm0 0c-.028-.029-.057-.057-.057-.086l.029-.027c.028 0 .057.027.085.057l-.057.056zm-.029-.114h-.029.029zm-.028.028c-.028-.027-.057-.027-.085-.057l.028-.057c.029.027.057.057.086.086l-.029.028zm-.057-.114l-.028.027.028-.027zm-.028.057c-.029 0-.058-.029-.115-.029l.029-.057c.028 0 .086.029.114.029l-.028.057zm-.086-.086v.029-.029zm-.03.057c-.028 0-.057-.027-.114-.027v-.057c.057 0 .114.027.143.027l-.029.057zm-.113-.084v.027-.027zm0 .056h-.143v-.057h.143v.057zm-.143 0c-.057 0-.114 0-.171-.029v-.057c.057 0 .114.029.171.029v.057zm-.171-.029h-.029l.029-.027v.027zm-.03 0l-.028-.172h.057l.028.145-.057.027zm-.027-.199h.029v.027h-.029v-.027zm7.883-.086l.486-.229.028.029-.485.256-.029-.056zm.487-.229v-.029l.028.029h-.028zm.028 0a.34.34 0 0 1 .143.143l-.057.029-.144-.143.058-.029zm.143.143c.029.057.086.113.115.172l-.086.027c0-.057-.057-.113-.086-.17l.057-.029zm.115.172c0 .057.027.113.057.199h-.086a.397.397 0 0 0-.057-.172l.086-.027zm-.029.199h.029-.029zm.085 0v.172h-.056c0-.057 0-.115-.029-.172h.085zm0 .172c0 .086 0 .143-.029.229h-.057c.029-.086.029-.172.029-.229h.057zm-.029.228c0 .086-.027.143-.057.227l-.086-.027c.059-.086.086-.143.086-.199h.057zm-.056.227c-.057.059-.086.115-.143.174l-.058-.029a.552.552 0 0 0 .114-.172l.087.027zm-.143.174c-.028.084-.086.141-.144.199l-.057-.059c.057-.057.114-.113.143-.17l.058.03zm-.2.199l-.028-.029.028-.029.028.029-.028.029zm.056-.058l.115.115-.058.027-.114-.084.057-.058zm.058.142h.028-.028zm.058-.027l.114.113-.029.029-.143-.115.058-.027zm.114.113l.143.115-.029.029-.143-.115.029-.029zm.142.115h-.029.029zm0 0l.143.113-.057.029-.115-.113.029-.029zm.143.114l-.028.029.028-.029zm0 0s.028 0 .028.029l-.057.027s0-.027-.028-.027l.057-.029zm.028.029h-.028.028zm0 0v.027h-.057l.057-.027zm0 .027v.029l-.057-.029h.057zm-.056 0l.028.029-.028-.029zm.056.029c0 .029-.028.029-.028.029l-.028-.059.056.03zm-.028.03l-.028-.029.028.029zm0 0l-.028.027-.028-.057.028-.029.028.059zm-.028.027v-.027.027zm0 0h-.028l-.029-.057h.029l.028.057zm-.029 0v-.027.027zm0 0c-.058 0-.115.029-.143.029l-.029-.057c.057 0 .114-.029.143-.029l.029.057zm-.142.029h-.143v-.056h.113l.03.056zm-.143 0v-.029.029zm0 0l-.115.029v-.085h.115v.056zm-.115.03v-.029.029zm0 0h-.058v-.059l.058-.027v.086zm-.058 0v-.029.029zm0 0h-.028v-.086l.028.027v.059zm-.028 0v-.029.029zm0 0c-.028 0-.028-.029-.028-.029v-.057h.028v.086zm-.028-.086v.027-.027zm0 .056h-.058l.029-.057h.028v.057zm-.058 0l-.027-.029.027-.057.029.029-.029.057zm0-.086v.029-.029zm-.027.057l-.143-.113.027-.057.143.113-.027.057zm-.143-.113l-.144-.113.028-.059.143.115-.027.057zm-.143-.172v-.027l.028.027-.028.029v-.029zm.028.059c-.028.027-.086.027-.114.057l-.028-.057c.028-.029.057-.029.114-.059l.028.059zm-.143 0v.027-.027zm.029.056c-.058.027-.086.057-.144.057l-.027-.057c.057 0 .085-.029.143-.057l.028.057zm-.144.057v-.029.029zm0 0a.218.218 0 0 1-.142.057v-.057a.223.223 0 0 0 .114-.057l.028.057zm-.141 0v.027-.027zm0 .056c-.028.029-.086.029-.144.057v-.057c.028-.029.086-.029.144-.057v.057zm-.144.057c-.057 0-.086.029-.143.029l-.029-.056c.058 0 .115-.029.172-.029v.056zm-.143.029c-.057 0-.113.029-.172.029v-.059c.059 0 .086-.027.143-.027l.029.057zm-.171-.029v.029-.029zm0 .059h-.171v-.059h.171v.059zm-.171 0v-.029.029zm0 0c-.058.027-.086.027-.144.027v-.057c.058 0 .114-.029.144-.029v.059zm-.144.027c-.086 0-.17 0-.256-.027l.028-.059c.058 0 .142.029.228.029v.057zm-.256-.027c-.058 0-.144-.029-.201-.029v-.057c.086 0 .144.027.229.027l-.028.059zm-.201-.03a.856.856 0 0 0-.228-.057l.028-.059a.5.5 0 0 1 .199.059v.057zm-.227-.056l.028-.029-.028.029zm0 0c-.058-.029-.114-.086-.172-.115l.028-.057a.578.578 0 0 0 .172.113l-.028.059zm-.172-.115l.028-.027-.028.027zm0 0c-.058-.027-.114-.084-.144-.113l.029-.057a.472.472 0 0 0 .143.113l-.028.057zm-.144-.114c-.057-.057-.084-.115-.143-.172l.059-.029c.057.059.084.115.113.145l-.029.056zm-.084-.201l-.029.029.029-.029zm-.058.029c-.028-.057-.057-.113-.057-.172l.057-.027c.029.057.029.113.059.17l-.059.029zm-.058-.171c-.028-.084-.028-.141-.028-.227h.057c0 .057.028.143.028.199l-.057.028zm-.027-.227c0-.115.028-.229.057-.314l.057.029a.819.819 0 0 0-.057.285h-.057zm.057-.315c.028-.057.028-.086.057-.115l.057.029c-.027.029-.027.057-.057.115l-.057-.029zm.057-.115h.029-.029zm0 0c.029-.057.057-.086.086-.143l.057.057a.423.423 0 0 0-.086.115l-.057-.029zm.086-.142l.027.029-.027-.029zm0 0c.057-.027.085-.057.113-.086l.058.029a6.046 6.046 0 0 1-.114.113l-.057-.056zm.113-.086h.029-.029zm0 0c.058-.027.086-.084.144-.113l.028.057c-.028.029-.086.057-.114.086l-.058-.03zm.144-.114l.144-.086.027.057-.143.086-.028-.057zm.143-.085v.029-.029zm0 0l.143-.115.027.059-.143.113-.027-.057zm.199-.086l-.029.029v-.029h.029zm-.056.029c-.059-.086-.115-.143-.143-.199l.057-.029c.027.057.086.113.143.199l-.057.029zm-.143-.199c-.058-.086-.086-.145-.115-.201l.086-.029c0 .059.029.115.086.201l-.057.029zm-.115-.202c0-.057-.028-.113-.057-.172l.086-.027c0 .057.028.113.057.17l-.086.029zm-.057-.171v-.199h.057c0 .057 0 .115.029.172l-.086.027zm0-.2c0-.057 0-.143.028-.199h.058c-.029.057-.029.143-.029.199h-.057zm.029-.199a.39.39 0 0 1 .058-.199l.057.027c-.028.059-.057.115-.057.172h-.058zm.114-.172h-.028.028zm-.057-.027c.028-.059.086-.115.113-.145l.057.029a.647.647 0 0 0-.113.143l-.057-.027zm.17-.115l-.027-.029.027.029zm-.057-.03c.057-.057.086-.113.143-.143l.058.059c-.058.027-.114.057-.144.113l-.057-.029zm.143-.142l.029.029-.029-.029zm0 0c.058-.027.114-.057.172-.084l.029.057a.562.562 0 0 0-.144.086l-.057-.059zm.172-.084c.086-.029.143-.059.199-.059l.029.059c-.057 0-.113.027-.199.057l-.029-.057zm.199-.059c.086-.027.144-.057.229-.057v.057c-.058.029-.144.029-.2.059l-.029-.059zm.23-.056h.2v.057h-.2v-.057zm.2 0h.143v.057h-.143v-.057zm.142 0v.029-.029zm0 0h.143v.086c-.057-.029-.114-.029-.143-.029v-.057zm.143 0v.029-.029zm0 0c.058.029.115.029.172.029l-.028.086c-.058-.029-.086-.029-.144-.029v-.086zm.172.029c.029.027.086.027.143.057l-.029.057c-.057-.027-.084-.027-.142-.027l.028-.087zm.113.113v-.027.027zm.029-.056a.637.637 0 0 1 .229.143l-.058.057a.526.526 0 0 0-.2-.143l.029-.057zm.229.142v.029h-.028l.028-.029zm0 .029a.365.365 0 0 1 .086.113h-.057l-.087-.086.058-.027zm.029.114h.028-.028zm.057 0c0 .027.029.086.029.143h-.086v-.143h.057zm.029.142c0 .059-.029.086-.029.143l-.057-.027v-.115h.086zm-.029.143c-.028.029-.057.086-.114.113l-.029-.057.087-.084.056.028zm-.144.057l.029.029-.029-.029zm.058.056c-.058 0-.086.029-.143.059l-.029-.086c.058 0 .086-.029.114-.029l.058.056zm-.172-.027l.029.027-.029-.027zm.029.086h-.172v-.059c.057 0 .114 0 .143-.027l.029.086zm-.171 0h-.143l.029-.059h.113v.059zm-.143 0h-.029v-.029h.029v.029zm-.028-.115h.086v.086h-.086v-.086zm0 0c0-.084 0-.141-.029-.17l.087-.029c0 .059.028.115.028.199h-.086zm.057-.2h-.057.057zm-.087.03a.225.225 0 0 0-.057-.145l.057-.027c.029.027.058.086.087.143l-.087.029zm-.056-.145c-.028-.027-.086-.057-.114-.084l.028-.057c.058.027.086.057.143.113l-.057.028zm-.115-.084c-.057-.029-.113-.029-.199-.029v-.057c.086 0 .143 0 .228.029l-.029.057zm-.199-.029h-.115v-.057h.115v.057zm-.115 0v-.027.027zm0 0c-.028.029-.058.029-.086.029l-.028-.057c.028 0 .057-.029.114-.029v.057zm-.086.029c-.028.027-.057.027-.086.057l-.057-.057c.029-.029.086-.029.114-.057l.029.057zm-.086.057c-.027.027-.057.027-.086.057l-.027-.029c0-.027.027-.057.057-.084l.056.056zm-.086.056c0 .029-.027.059-.057.086l-.057-.027.086-.088.028.029zm-.056.086l-.027-.027.027.027zm0 0c0 .029-.027.059-.027.086l-.058-.027c0-.029.028-.059.028-.086l.057.027zm-.028.086l-.029-.027.029.027zm0 0c0 .029-.029.057-.029.086h-.057c0-.029 0-.086.028-.113l.058.027zm-.086.086h.028-.028zm.057 0v.113h-.086c0-.029.029-.086.029-.113h.057zm0 .113v.115h-.057c0-.029-.029-.086-.029-.115h.086zm-.057.116h.028-.028zm.057 0c0 .027 0 .057.029.113h-.058c-.028-.027-.028-.086-.028-.113h.057zm.029.113h-.029.029zm0 0c0 .029.027.057.027.086l-.057.029c-.028-.029-.028-.086-.028-.115h.058zm.028.086c.029.057.057.086.057.113l-.057.029c0-.029-.027-.057-.057-.113l.057-.029zm.056.113l-.027.029.027-.029zm0 0c.029.059.059.086.086.145l-.057.027c-.029-.057-.057-.086-.086-.143l.057-.029zm.086.145c.029.027.086.086.114.113l-.057.057c-.028-.057-.058-.113-.114-.143l.057-.027zm.058.17l.028-.027-.028.027zm.056-.057a.36.36 0 0 0 .144.143l-.057.057c-.058-.057-.087-.113-.144-.143l.057-.057zm.144.143a.776.776 0 0 0 .143.172l-.027.029c-.086-.059-.115-.115-.172-.145l.056-.056zm.142.171h-.027.027zm0 0c.057.057.114.113.2.172l-.058.027-.17-.17.028-.029zm.201.172c.057.057.144.143.229.199l-.058.029a1.478 1.478 0 0 1-.229-.201l.058-.027zm.229.2l.256.229-.057.027-.257-.227.058-.029zm.199.255l.028-.027-.028.027zm.057-.027l.285.229-.057.057-.285-.258.057-.028zm.285.285l-.027.029-.029-.029.029-.027.027.027zm-.056-.027c.057-.086.086-.145.115-.201h.057a.848.848 0 0 1-.115.229l-.057-.028zm.115-.201h.027-.027zm0 0c.027-.086.027-.143.027-.199h.058c0 .057 0 .143-.028.199h-.057zm.027-.2a.528.528 0 0 0-.086-.285l.059-.029a.575.575 0 0 1 .085.314h-.058zm-.086-.285c-.057-.115-.142-.201-.257-.314l.029-.059c.144.115.228.23.286.344l-.058.029zm-.257-.314h-.028l.028-.029h.029l-.029.029zm0-.059h.058v.029h-.058v-.029zm0 0v-.027l.029.027h-.029zm-.171 1.401c-.171-.143-.314-.258-.429-.371l.058-.029c.114.115.258.229.399.342l-.028.058zm-.428-.371a1.864 1.864 0 0 1-.343-.314l.029-.027c.113.084.229.197.371.313l-.057.028zm-.343-.315c-.114-.086-.199-.172-.285-.258l.027-.027c.086.057.2.172.287.258l-.029.027zm-.285-.258v-.027.027zm0 0c-.114-.084-.172-.17-.258-.256l.058-.029c.086.086.144.172.228.258l-.028.027zm-.258-.285l.028-.027.029.027-.029.029-.028-.029zm.058.029a.477.477 0 0 0-.114.143l-.057-.057c.027-.029.085-.086.113-.115l.058.029zm-.171.086l.027.027-.027-.027zm.056.057c-.057.029-.086.086-.086.113l-.057-.027c0-.029.057-.086.086-.143l.057.057zm-.086.113c-.029.059-.057.086-.057.145h-.057c0-.059.027-.115.057-.172l.057.027zm-.113.145h.027-.027zm.057 0v.17h-.086c0-.084 0-.143.029-.17h.057zm0 .17v.172h-.057c-.029-.059-.029-.115-.029-.172h.086zm0 .172a.44.44 0 0 0 .057.143l-.057.029a.402.402 0 0 1-.057-.172h.057zm.056.142c0 .057.029.086.057.143l-.057.029c-.029-.059-.057-.086-.057-.143l.057-.029zm.057.143a.416.416 0 0 0 .114.086l-.057.057a4.043 4.043 0 0 0-.114-.113l.057-.03zm.058.142l.028-.029-.028.029zm.056-.056a.219.219 0 0 0 .115.113l-.028.029c-.058-.029-.087-.057-.144-.086l.057-.056zm.116.113c.058 0 .085.029.142.059l-.027.057c-.057-.029-.114-.057-.143-.086l.028-.03zm.141.059v.027-.027zm0 0a.388.388 0 0 0 .172.027l-.028.059c-.058 0-.114 0-.171-.029l.027-.057zm.172.027c.058.029.115.029.172.029v.057c-.057 0-.114 0-.2-.027l.028-.059zm.172.029c.057 0 .115 0 .172-.029l.027.086h-.199v-.057zm.172-.029v.029-.029zm0 0c.057 0 .113 0 .171-.027l.028.057c-.057.029-.114.029-.172.057l-.027-.087zm.171-.027l.028.027-.028-.027zm0 0a.397.397 0 0 0 .172-.059l.028.059c-.057.027-.114.057-.172.057l-.028-.057zm.172-.059l.028.029-.028-.029zm0 0l.171-.086.028.059c-.058.027-.114.057-.171.086l-.028-.059zm.199-.086l.028.029-.028.029-.028-.029.028-.029zm5.714 0l.029.059h-.086v-.059h.057zm-.057.059h.027-.027zm.086.027h-.086v-.027h.086v.027zm-.086 0h.027-.027zm.086 0v.029l-.059.029c0-.029-.027-.029-.027-.059h.086zm-.059.059l.029-.029-.029.029zm.059-.03v.029l-.029.027c-.029 0-.029-.027-.029-.027l.058-.029zm0 .03h-.029.029zm0 0h.027l-.027.057c-.029 0-.029-.029-.059-.029l.059-.028zm.027 0l-.027.027.027-.027zm0 0h.029l-.029.057h-.027l.027-.057zm.03.056h-.029l.029-.029v.029zm0-.056h.057l-.029.057h-.027v-.057zm.056.056h-.029l.029-.029v.029zm0-.056h.057v.086l-.057-.029v-.057zm.057.086v-.059.059zm0-.086h.314v.086h-.314v-.086zm.314 0h.2v.057c-.058.029-.144.029-.2.029v-.086zm.201 0h.171v.057h-.171v-.057zm.171 0v.027-.027zm0 0c.058 0 .085 0 .144-.029l.027.057c-.057.029-.113.029-.171.029v-.057zm.144-.03c.027 0 .084-.029.113-.029l.028.059c-.028 0-.085.027-.114.027l-.027-.057zm.113-.029v.029-.029zm0 0l.086-.086.058.059c-.029.027-.087.057-.115.086l-.029-.059zm.086-.086l.086-.084.057.027c-.028.029-.057.086-.085.115l-.058-.058zm.086-.084c.028-.059.057-.086.086-.143l.057.027c-.029.057-.057.086-.086.143l-.057-.027zm.086-.142c.027-.057.057-.143.086-.201l.057.029c-.029.057-.057.143-.086.199l-.057-.027zm.086-.202l.027-.029v.029h-.027zm.027-.029l.172.029-.029.086-.143-.027v-.088zm.172.029l.028.029v.029h-.058l.03-.058zm.029.059s-.028.027-.028.086h-.058v-.086h.086zm-.086.086h.028-.028zm.057 0c0 .057-.029.084-.029.141h-.057c0-.057.028-.084.028-.141h.058zm-.086.141h.028-.028zm.057 0v.059h-.086l.029-.059h.057zm0 .058h-.028.028zm0 0l-.028.113h-.058v-.113h.086zm-.028.113h-.028.028zm0 0l-.028.115h-.057l.027-.115h.058zm-.029.116h-.029.029zm0 0l-.029.113-.057-.027.029-.086h.057zm-.029.113l-.027-.027.027.027zm0 0l-.027.086h-.057l.027-.113.057.027zm-.027.086h-.029.029zm0 0c-.029.057-.029.086-.057.086l-.059-.029c.029-.029.029-.057.059-.057h.057zm-.057.086c-.029.027-.086.027-.115.027v-.057h.057l.058.03zm-.115.027v-.027.027zm0 0h-.571v-.057h.571v.057zm-.572-.057v.029-.029zm0 .057h-.371v-.057h.371v.057zm-.371 0h-.429v-.057h.429v.057zm-.428 0h-.514v-.057h.514v.057zm-.514 0h-.058l.028-.057h.029v.057zm-.058 0l.028-.027-.028.027zm0 0c0-.027-.028-.027-.028-.027l.057-.029-.029.056zm.029-.057h-.028.028zm-.057.03v-.03l.057-.029v.029l-.057.03zm0-.03l.028-.029-.028.029zm0 0c0-.029-.028-.029-.028-.057h.085v.027l-.057.03zm-.028-2.796h.086v2.74h-.086v-2.74zm0-.057h.086v.057h-.086v-.057zm0 0h.057-.057zm0 0v-.059l.057-.029c0 .029.028.059.028.088h-.085zm.056-.088l-.028.029.028-.029zm-.056.029s0-.029-.029-.029l.058-.027c.028 0 .028.027.028.027l-.057.029zm.028-.056h-.028.028zm-.058.027v-.027l.029-.057c.028.027.028.027.028.057l-.057.027zm0-.027v-.029.029zm0 0l-.028-.029.028-.057.029.029-.029.057zm0-.086l-.028.029.028-.029zm-.028.056h-.058l.029-.057h.057l-.028.057zm-.028-.056v.029-.029zm-.03.056l-.028-.027v-.057c.028 0 .058 0 .058.027l-.03.057zm-.028-.084v.027-.027zm0 .057h-.057v-.057h.057v.057zm-.056-.057v.027-.027zm0 .057h-.057v-.057h.057v.057zm-.059-.057v.027-.027zm0 .057l-.057.027v-.084h.057v.057zm-.057.027h-.029v-.029h.029v.029zm-.027-.027l-.029-.172h.057l.029.143-.057.029zm-.029-.199h.029v.027h-.029v-.027zm.029 0l.143-.029.027.057-.17.029v-.057zm.143-.029l.027.029-.027-.029zm0 0l.171-.029v.059l-.144.027-.027-.057zm.17-.03v.029-.029zm0 0h.144v.059h-.144v-.059zm.144 0v.029-.029zm0 0l.113-.027v.057l-.113.029v-.059zm.113-.027v.027-.027zm0 0h.172l.028.057h-.2v-.057zm.172 0l.086-.029v.086h-.058l-.028-.057zm.086-.029v.029-.029zm0 0h.028v.057l-.028.029v-.086zm.028 0v.029-.029zm0 0c.028 0 .085.029.085.029l-.027.057c-.029 0-.029-.029-.058-.029v-.057zm.085.029c.029.027.059.057.059.113h-.086v-.057l.027-.056zm.059 2.91h-.086v-2.797h.086v2.797zm-.086 0h.027-.027zm4.313-2.939c.114 0 .257 0 .371.029v.057c-.114-.029-.257-.029-.371-.029v-.057zm.372.029c.114 0 .229.027.343.086l-.029.057a.646.646 0 0 0-.313-.086v-.057zm.342.086c.086.027.2.084.286.113l-.028.057c-.086-.057-.201-.086-.287-.113l.029-.057zm.286.113c.085.057.171.143.257.199l-.057.059a.747.747 0 0 0-.229-.201l.029-.057zm.201.258l.027-.029-.027.029zm.056-.059c.086.086.143.172.2.258l-.058.027c-.057-.084-.114-.17-.199-.227l.057-.058zm.201.258c.058.084.114.17.142.285l-.057.029a.85.85 0 0 0-.143-.287l.058-.027zm.141.285h-.027.027zm0 0a.654.654 0 0 1 .086.342h-.057c-.029-.113-.057-.229-.086-.313l.057-.029zm.086.342c.029.115.029.229.029.371h-.057c0-.143 0-.256-.029-.371h.057zm.029.371c0 .145 0 .287-.029.4h-.057c.029-.143.029-.256.029-.4h.057zm-.029.401c0 .143-.057.258-.086.371l-.057-.029.086-.342h.057zm-.086.371c-.057.115-.113.201-.17.314l-.058-.057c.058-.086.114-.172.171-.287l.057.03zm-.17.314c-.058.086-.144.17-.229.256l-.059-.057c.086-.086.172-.143.229-.256l.059.057zm-.228.256c-.086.059-.172.145-.286.201l-.028-.057c.086-.059.199-.115.256-.201l.058.057zm-.315.145l.028.027-.028-.027zm.029.056c-.086.057-.2.084-.313.143l-.029-.059c.113-.057.229-.084.314-.141l.028.057zm-.314.143c-.115.027-.258.057-.373.086l-.027-.059c.143-.027.257-.057.371-.086l.029.059zm-.373.086c-.143.027-.285.027-.428.027v-.057c.143 0 .285-.029.4-.029l.028.059zm-.428.027c-.115 0-.257 0-.371-.027v-.059c.114 0 .256.029.371.029v.057zm-.371-.027c-.115-.029-.229-.059-.343-.086l.028-.059c.113.029.199.059.314.086v.059zm-.343-.086c-.114-.059-.2-.086-.286-.143l.028-.057c.086.057.172.084.286.141l-.028.059zm-.286-.143a1.02 1.02 0 0 1-.257-.201l.058-.057c.057.086.143.143.228.201l-.029.057zm-.257-.201a1.49 1.49 0 0 1-.2-.256l.057-.029c.058.086.115.172.201.229l-.058.056zm-.2-.256c-.057-.086-.115-.172-.143-.287l.057-.027a.877.877 0 0 0 .143.285l-.057.029zm-.142-.287a1.544 1.544 0 0 1-.114-.342h.085c0 .115.029.201.086.314l-.057.028zm-.03-.342h-.027.027zm-.085 0c0-.113-.028-.256-.028-.371h.086c0 .115 0 .258.027.371h-.085zm-.028-.371c0-.143.028-.285.057-.428l.057.029c-.027.113-.027.256-.027.398h-.087zm.057-.428c0-.115.057-.229.086-.342l.057.027a2.889 2.889 0 0 0-.086.344l-.057-.029zm.086-.341c.057-.115.113-.23.171-.314l.058.027c-.058.115-.115.201-.172.314l-.057-.027zm.171-.315c.058-.086.144-.172.229-.258l.027.059a1.706 1.706 0 0 0-.199.227l-.057-.028zm.229-.258c.086-.057.17-.143.285-.199l.028.057a.99.99 0 0 0-.286.201l-.027-.059zm.285-.199c.086-.029.2-.086.314-.113l.027.057a1.009 1.009 0 0 0-.313.113l-.028-.057zm.342-.056v-.029.029zm-.027-.057a.848.848 0 0 1 .371-.086l.029.057a.798.798 0 0 0-.373.086l-.027-.057zm.4-.029l-.029-.029.029.029zm-.029-.057c.143-.029.285-.029.429-.029v.057c-.144 0-.286 0-.399.029l-.03-.057zm.257.256c-.085 0-.171 0-.257.029v-.057c.086-.029.172-.029.257-.029v.057zm-.257-.028v.027-.027zm0 .057c-.086.027-.143.027-.229.084l-.029-.057.258-.084v.057zm-.229.084c-.058.029-.115.088-.172.115l-.057-.027a.886.886 0 0 1 .199-.145l.03.057zm-.172.115c-.057.059-.113.115-.143.172l-.057-.029c.028-.057.086-.143.143-.17l.057.027zm-.142.172l-.028-.029.028.029zm0 0a.45.45 0 0 0-.114.199l-.086-.029c.058-.057.086-.143.144-.199l.056.029zm-.114.199c-.058.057-.058.143-.086.229l-.058-.029c0-.084.029-.143.058-.229l.086.029zm-.086.229c-.028.086-.028.172-.058.258l-.057-.029c0-.086.029-.172.057-.258l.058.029zm-.115.228h.029-.029zm.057 0v.256h-.084c0-.084 0-.17.027-.256h.057zm0 .256v.314h-.057c-.027-.113-.027-.199-.027-.314h.084zm0 .315c.029.086.029.172.058.287h-.058a1.082 1.082 0 0 1-.057-.287h.057zm.058.287l.086.256-.058.027c-.028-.084-.086-.17-.086-.283h.058zm.086.256c.028.086.086.172.114.229l-.057.029c-.029-.057-.086-.143-.115-.23l.058-.028zm.114.228c.058.086.115.143.172.199l-.057.057c-.058-.057-.115-.143-.172-.227l.057-.029zm.172.199c.057.057.143.115.199.172l-.028.057c-.086-.057-.144-.113-.228-.172l.057-.057zm.199.172l.258.086v.057c-.114-.027-.2-.057-.286-.086l.028-.057zm.258.086c.086.029.199.029.314.029v.084a.977.977 0 0 1-.314-.057v-.056zm.314.03c.086 0 .172 0 .256-.029l.029.086c-.086 0-.199.027-.285.027v-.084zm.256-.03c.086 0 .144-.029.229-.086l.028.057a.82.82 0 0 1-.229.115l-.028-.086zm.23-.086v.029-.029zm0 0c.058-.029.114-.057.171-.115l.057.029c-.057.057-.113.115-.199.143l-.029-.057zm.17-.115l.172-.17.057.027c-.057.059-.114.143-.172.172l-.057-.029zm.172-.17c.028-.057.057-.143.114-.199l.058.027c-.029.059-.086.143-.115.199l-.057-.027zm.115-.199c.028-.088.058-.145.058-.229h.086l-.086.256-.058-.027zm.057-.229c.028-.086.057-.172.057-.258h.057c0 .086-.027.172-.027.258h-.087zm.057-.257c0-.086.029-.172.029-.256h.057c0 .084 0 .17-.029.256h-.057zm.029-.256c0-.086-.029-.201-.029-.287h.057c.029.086.029.201.029.287h-.057zm-.029-.287h.029-.029zm0 0c0-.084-.028-.199-.057-.285h.057a.839.839 0 0 1 .057.285h-.057zm-.057-.286a78.156 78.156 0 0 1-.086-.256l.057-.029a.478.478 0 0 1 .086.285h-.057zm-.086-.255c-.029-.086-.086-.172-.115-.23l.058-.027c.028.057.086.143.114.229l-.057.028zm-.057-.258h-.028.028zm-.058.027a1.233 1.233 0 0 0-.17-.197l.057-.059c.057.086.113.143.171.229l-.058.027zm-.17-.197a.917.917 0 0 0-.201-.145l.029-.057c.086.027.143.086.229.143l-.057.059zm-.201-.145v-.029.029zm0 0a.984.984 0 0 0-.256-.113l.027-.057a1 1 0 0 1 .258.113l-.029.057zm-.256-.113c-.086-.029-.201-.029-.315-.029v-.057c.114 0 .229 0 .343.029l-.028.057zm3.371 2.227h-.058v-.202h.058v.202zm0 0c.027.057.027.086.057.143l-.057.029c-.029-.057-.059-.115-.059-.172h.059zm0 .172l.027-.029-.027.029zm.057-.03c0 .057.027.086.057.113l-.057.029a.217.217 0 0 1-.057-.113l.057-.029zm.056.114c.028.059.057.086.086.115l-.029.027c-.028-.027-.086-.057-.113-.113l.056-.029zm.086.115c.057.027.086.057.114.057l-.028.057c-.029-.027-.086-.057-.115-.086l.029-.028zm.086.113l.028-.027-.028.027zm.029-.057c.058.029.085.029.144.057l-.029.059c-.057 0-.086-.029-.143-.059l.028-.057zm.143.057l-.029.029.029-.029zm0 0c.027 0 .084.029.142.029v.057c-.058 0-.114-.027-.171-.027l.029-.059zm.142.029h.143v.057h-.143v-.057zm.142 0h.229v.057h-.229v-.057zm.23.057v-.027.027zm0-.057c.057-.029.143-.029.199-.057l.028.057c-.085.029-.142.029-.228.057v-.057zm.199-.056c.058-.029.144-.059.201-.086l.027.057c-.057.029-.143.057-.2.086l-.028-.057zm.201-.086c.086 0 .143-.029.228-.086l.028.057c-.086.029-.143.086-.229.086l-.027-.057zm.256-.057v.027l-.028-.027h.028zm-.057-2.683h.057v2.684h-.057v-2.684zm0 0c0-.029 0-.057.028-.057l.057.027c-.028 0-.028.029-.028.029h-.057zm.029-.057l.028.027-.028-.027zm0 0c0-.029.028-.029.057-.029l.029.057h-.029l-.057-.028zm.056-.029l.029.029-.029-.029zm0 0l.058-.029.028.059-.057.027-.029-.057zm.058-.03v.029-.029zm0 0h.058l.028.059h-.058l-.028-.059zm.058 0v.029-.029zm0 0h.144v.059h-.115l-.029-.059zm.143 0v.029-.029zm0 0l.113-.027v.086h-.113v-.059zm.113-.027v.057-.057zm0 0h.057v.057l-.057.029v-.086zm.057 0v.027-.027zm0 0c.029 0 .058.027.086.027l-.057.059s0-.029-.029-.029v-.057zm.086.027c.028.029.028.059.028.086h-.057c0-.027-.028-.027-.028-.027l.057-.059zm.028 3.227h-.057v-3.141h.057v3.141zm0 0c0 .027 0 .057-.028.086l-.057-.059s.028 0 .028-.027h.057zm-.028.086l-.028-.029.028.029zm0 0c-.028 0-.028.027-.086.027v-.057c.029 0 .029 0 .029-.029l.057.059zm-.086.027v-.027.027zm0 0l-.113.029v-.086h.113v.057zm-.113.029v-.029.029zm0 0h-.115v-.056l.115-.029v.085zm-.115 0v-.029.029zm0 0h-.086v-.056h.086v.056zm-.085 0v-.029.029zm0 0h-.086v-.056h.086v.056zm-.086 0v-.029.029zm0 0c-.029 0-.058 0-.058-.029l.028-.027h.029v.056zm-.058-.029c-.028 0-.028-.027-.028-.057h.057v.029l-.029.028zm.028-.057h-.028.028zm-.056 0l-.028-.229.057-.027.028.256h-.057zm-.029-.255l.057-.029v.029l-.028.027-.029-.027zm.057.056c-.113.029-.199.086-.313.113l-.028-.057c.113-.027.199-.086.285-.113l.056.057zm-.313.114c-.086.057-.2.086-.286.115l-.029-.059c.086-.027.2-.057.287-.113l.028.057zm-.287.115l-.343.086v-.059c.114-.027.2-.057.313-.086l.03.059zm-.342.086c-.086 0-.2.027-.313.027v-.057c.113 0 .199-.029.313-.029v.059zm-.314.027c-.058 0-.144 0-.201-.027v-.059c.086 0 .144.029.201.029v.057zm-.201-.086v.029-.029zm0 .059c-.057 0-.113-.029-.199-.029l.029-.057c.057 0 .113.027.17.027v.059zm-.199-.03a.398.398 0 0 0-.172-.057l.058-.059c.028 0 .085.029.144.059l-.03.057zm-.114-.115l-.028.029.028-.029zm-.058.059a.616.616 0 0 0-.143-.115l.057-.027a.607.607 0 0 0 .144.084l-.058.058zm-.143-.115c-.029-.027-.086-.084-.115-.113l.059-.029c.027.029.057.059.113.115l-.057.027zm-.115-.114l.029-.029-.029.029zm0 0a.619.619 0 0 0-.084-.143l.057-.029a.723.723 0 0 1 .086.143l-.059.029zm-.084-.142a.533.533 0 0 1-.058-.201h.058c0 .059.027.115.057.172l-.057.029zm-.057-.201c-.028-.057-.028-.141-.028-.199h.057c0 .059 0 .143.029.199h-.058zm-.029-2.254h.057v2.055h-.057v-2.055zm0-.057h.057v.057h-.057v-.057zm0 0h.028-.028zm0 0c0-.029-.029-.059-.029-.059l.086-.029v.088h-.057zm-.029-.059v-.029l.058-.027s0 .027.028.027l-.086.029zm0-.029l.029-.027-.029.027zm0 0c0-.027-.028-.027-.028-.027l.028-.057c.029.027.029.027.058.057l-.058.027zm-.028-.027l.028-.029-.028.029zm0 0c0-.029-.028-.029-.028-.029l.028-.057c.028 0 .028.029.058.029l-.058.057zm-.029-.03l.028-.027-.028.027zm0 0h-.029v-.057h.058l-.029.057zm-.029-.056v.029-.029zm0 .056c-.028 0-.028-.027-.057-.027l.028-.057s.028 0 .028.027v.057zm-.028-.084l-.028.027.028-.027zm-.029.057h-.029v-.057h.058l-.029.057zm-.029-.057v.027-.027zm0 .057h-.086v-.057h.086v.057zm-.086-.057v.027-.027zm.029.057l-.086.027v-.084h.057l.029.057zm-.086.027h-.029v-.029h.029v.029zm-.027-.027l-.029-.172h.086v.143l-.057.029zm-.029-.199h.029v.027h-.029v-.027zm.029 0l.17-.029v.057l-.143.029-.027-.057zm.17-.029v.029-.029zm0 0l.144-.029v.059l-.144.027v-.057zm.144-.03v.029-.029zm0 0c.114 0 .2-.027.257-.027v.057c-.057.029-.143.029-.257.029v-.059zm.256-.027h.114v.057h-.114v-.057zm.115 0v.027-.027zm0 0h.086v.057h-.086v-.057zm.086 0v.027-.027zm0 0l.058-.029v.086h-.058v-.057zm.057-.029v.029-.029zm0 0h.028v.057l-.028.029v-.086zm.029 0v.029-.029zm0 0c.058 0 .085.029.114.029l-.057.057s-.029-.029-.058-.029v-.057zm.057.086l.027-.029-.027.029zm.057-.057c0 .027.029.057.029.113h-.059c0-.027-.027-.057-.027-.057l.057-.056zm.029 2.312h-.058v-2.199h.058v2.199zm0 0h-.029.029zm3.942-2.371h.027l-.027.059v-.059zm.027 0c.029 0 .029 0 .029.029l-.029.029h-.027l.027-.058zm.029.03l.058.029-.058.057-.029-.057.029-.029zm.058.029l-.028.027.028-.027zm0 0l2.086 2.598-.058.029-2.086-2.57.058-.057zm2.086 2.598v.113l-.058-.084.028-.029h.03zm-.058 0l-.086-2.512h.086l.058 2.512h-.058zm-.086-2.512h.028-.028zm0 0c0-.029.028-.029.028-.059l.058.059h-.086zm.086 0l-.028-.029.028.029zm-.057-.059h.058v.059l-.058-.059zm.057.059v-.029.029zm0-.059l.058-.027v.057l-.058.029v-.059zm.058-.027v.027-.027zm0 0h.086v.057h-.086v-.057zm.085 0v.027-.027zm0 0h.086v.057h-.086v-.057zm.086 0v.027-.027zm0 0h.086v.057h-.086v-.057zm.086 0v.027-.027zm0 0h.057l-.029.057h-.027v-.057zm.027.057l.029-.029-.029.029zm.029-.057c.028.027.028.027.028.057h-.058l.03-.057zm.029.057h-.028.028zm0 0l-.058 2.74h-.084l.084-2.74h.058zm-.142 2.74h.027-.027zm.084.513h-.086v-.514h.086v.514zm0 0c0 .029-.027.057-.027.057l-.057-.027v-.03h.084zm-.027.057c-.029.029-.029.029-.057.029v-.056l.057.027zm-.057-.027v.027-.027zm0 .056h-.057v-.056h.057v.056zm-.059 0v-.029.029zm0 0h-.057l-.028-.057h.085v.057zm-.056 0l-.028-.029.028.029zm0 0h-.085v-.056h.057l.028.056zm-.085 0v-.029.029zm0 0h-.058v-.056h.058v.056zm-.058 0v-.029.029zm0 0h-.028v-.056h.028v.056zm-.028-.056v.027-.027zm0 .056h-.029l.029-.057v.057zm0-.056l-.029.027.029-.027zm-.029.056c-.028-.029-.028-.029-.058-.057l.058-.029c0 .029.029.029.029.029l-.029.057zm0-.086l-.028.029.028-.029zm-.058.03l-2.084-2.6.027-.027 2.114 2.598-.057.029zm-2.113-2.6v-.113l.057.086v.027h-.057zm.086 0l.057 2.57h-.057l-.086-2.57h.086zm.056 2.57h-.029.029zm0 0c0 .029 0 .057-.029.057l-.027-.057h.056zm-.029.057v-.027.027zm0 0l-.027.029-.029-.057c.029 0 .029 0 .029-.029l.027.057zm-.057-.027v.027-.027zm.03.056h-.086v-.056h.057l.029.056zm-.086 0v-.029.029zm0 0h-.086v-.056h.086v.056zm-.085 0v-.029.029zm0 0h-.086v-.056h.086v.056zm-.086 0v-.029.029zm0 0h-.086v-.056h.086v.056zm-.086 0v-.029.029zm0 0h-.058l.058-.057v.057zm-.058 0v-.056h.058l-.058.056zm0-.056h.029-.029zm0 0l.058-2.941h.057l-.057 2.941h-.058zm.114-2.971v.029h-.028l.028-.029zm-.056.059l-.228-.314.057-.057.228.313-.057.058zm-.2-.371h.029l-.029.029v-.029zm-.028.056l-.029-.027.057-.029-.028.056zm-.029-.027v-.029h.057l-.057.029zm0-.029c0-.029 0-.029.029-.057l.057.057h-.086zm.086 0l-.029-.029.029.029zm-.057-.057s.027-.029.057-.029v.086l-.057-.057zm.057-.029v.029-.029zm0 0h.057v.057h-.057v-.057zm.057 0v.029-.029zm0 0h.057l.029.057h-.086v-.057zm.056 0v.029-.029zm0 0l.172-.029v.059l-.143.027-.029-.057zm.172-.03v.029-.029zm0 0h.143v.059h-.143v-.059zm.143 0v.029-.029zm0 0h.086v.059h-.086v-.059zm.086 0v.029-.029zm6.855 3.284c0 .029-.027.029-.027.057l-.057-.027v-.029h.084zm-.027.056l-.029-.027.029.027zm0 0l-.03.029-.027-.057.057.028zm-.03.029l-.027-.029.027.029zm0 0a.834.834 0 0 1-.285.057v-.057c.086 0 .172-.029.258-.057l.027.057zm-.285.057c-.086.029-.172.029-.258.059v-.059c.086-.027.172-.027.258-.057v.057zm-.258 0v.029-.029zm0 .059c-.085 0-.171 0-.257.027v-.086h.257v.059zm-.256-.059v.029-.029zm0 .086h-.285v-.057c.085 0 .171 0 .285-.029v.086zm-.286 0c-.144 0-.286 0-.429-.027v-.059c.143 0 .285.029.429.029v.057zm-.428-.027a13.44 13.44 0 0 1-.4-.086v-.059c.143.029.258.059.4.086v.059zm-.401-.086c-.143-.059-.257-.086-.371-.143l.057-.057c.086.057.201.084.314.141v.059zm-.371-.143c-.086-.057-.199-.115-.285-.201l.028-.057c.085.086.2.143.313.201l-.056.057zm-.285-.201l-.258-.256.057-.029c.087.086.144.172.229.229l-.028.056zm-.258-.256a2.822 2.822 0 0 1-.172-.287l.059-.027c.057.115.113.201.17.285l-.057.029zm-.172-.287a1.54 1.54 0 0 1-.113-.342l.057-.027c.029.113.057.229.115.342l-.059.027zm-.113-.342c-.028-.143-.028-.256-.028-.398h.057c0 .113 0 .256.028.371l-.057.027zm-.028-.398c0-.145 0-.285.028-.4h.057c-.028.115-.028.256-.028.4h-.057zm.028-.401c.028-.143.057-.258.113-.371l.059.029c-.029.113-.086.227-.115.342h-.057zm.113-.371a1.04 1.04 0 0 1 .2-.285l.058.027a.995.995 0 0 0-.199.287l-.059-.029zm.201-.285c.086-.113.172-.172.258-.258l.028.059a.898.898 0 0 0-.229.227l-.057-.028zm.286-.199v-.029.029zm-.029-.059c.085-.086.2-.143.313-.199l.029.057a1.708 1.708 0 0 0-.314.201l-.028-.059zm.314-.199c.115-.057.229-.086.344-.143l.027.057c-.113.057-.228.086-.342.143l-.029-.057zm.344-.142c.143-.029.285-.057.428-.057v.057c-.143 0-.257.029-.4.057l-.028-.057zm.427-.057c.114-.029.286-.029.43-.029v.057c-.144 0-.287 0-.43.029v-.057zm.43-.029h.256l-.028.057h-.228v-.057zm.256 0c.058 0 .144 0 .229.029l-.027.057c-.058-.029-.144-.029-.229-.029l.027-.057zm.228.029v.027-.027zm0 0c.086 0 .143 0 .229.027l-.028.059c-.058-.029-.144-.029-.228-.029l.027-.057zm.229.027c.058 0 .144.029.201.029v.057c-.086 0-.144-.027-.229-.027l.028-.059zm.201.086v-.027.027zm0-.056c.027 0 .027 0 .057.029l-.029.027h-.027v-.056zm.027.056v-.027.027zm.03-.056c0 .029 0 .029.029.029l-.059.057v-.029l.03-.057zm.029.029l-.029.027.029-.027zm0 0c0 .027 0 .057.027.057h-.086l.059-.057zm.027.057h-.057.057zm0 .113h-.086v-.113h.086v.113zm0 0v.057h-.057l-.029-.057h.086zm0 .056h-.027.027zm0 0v.057l-.057.029v-.086h.057zm-.056.086h.029-.029zm.056-.029v.174h-.057v-.145l.057-.029zm0 .174l.029.113h-.086v-.113h.057zm.03.226h-.086v-.113h.086v.113zm0 0h-.03.03zm0 .057h-.086v-.057h.086v.057zm0 .029h-.03v-.029h.029v.029zm-.03 0l-.143.029-.028-.059.171-.027v.057zm-.142.03h-.057v-.029h.028l.029.029zm-.057-.03c0-.057 0-.115-.029-.172h.058c.028.029.028.086.058.172h-.087zm.028-.171h-.028.028zm-.057 0c-.028-.027-.057-.084-.086-.113l.058-.027a.577.577 0 0 1 .086.141h-.058zm-.086-.114c-.028-.027-.057-.086-.086-.113l.029-.029a.22.22 0 0 1 .114.115l-.057.027zm-.086-.113a.369.369 0 0 1-.113-.088l.027-.027c.029 0 .086.057.115.086l-.029.029zm-.113-.088a.213.213 0 0 1-.143-.057v-.057l.17.086-.027.028zm-.143-.113v.029-.029zm0 .056c-.058 0-.115-.027-.172-.027l.028-.057c.058 0 .114.027.144.027v.057zm-.143-.084l-.028.027.028-.027zm-.029.057c-.058-.029-.115-.029-.172-.029v-.057c.057 0 .114 0 .2.029l-.028.057zm-.172-.029h-.171v-.057h.171v.057zm-.171 0c-.086 0-.2 0-.286.029l-.027-.086h.313v.057zm-.286.029a.815.815 0 0 0-.285.057v-.057l.258-.086.027.086zm-.285.057c-.058.027-.143.086-.201.115l-.057-.059c.086-.029.172-.086.258-.113v.057zm-.258.056l.029.029-.029-.029zm.057.059c-.084.057-.142.086-.199.143l-.057-.029c.057-.057.143-.113.199-.172l.057.058zm-.256.113l.028.029-.028-.029zm.057.03c-.057.057-.086.141-.143.199l-.057-.029c.057-.086.085-.143.143-.199l.057.029zm-.143.199c-.029.057-.086.143-.115.229l-.057-.029c.029-.086.086-.143.115-.229l.057.029zm-.115.228c0 .086-.027.17-.057.256h-.057c.029-.113.029-.199.057-.285l.057.029zm-.057.256v.285h-.085c0-.113.028-.199.028-.285h.057zm0 .285c0 .115 0 .23.029.344h-.086c0-.113-.028-.229-.028-.344h.085zm.03.344c0 .086.027.199.057.285l-.057.029c-.029-.115-.057-.201-.086-.314h.086zm.056.285c.029.115.086.199.143.285l-.057.029a1.311 1.311 0 0 1-.143-.285l.057-.029zm.143.285c.058.086.115.145.172.229l-.057.029a1.5 1.5 0 0 1-.172-.229l.057-.029zm.172.229c.057.057.143.115.229.172l-.029.057a1.532 1.532 0 0 1-.256-.199l.056-.03zm.228.172c.086.057.172.086.285.143l-.027.057c-.114-.057-.201-.086-.287-.143l.029-.057zm.285.142c.086.029.2.057.314.086v.057c-.114-.027-.229-.057-.342-.086l.028-.057zm.315.086c.115 0 .258.029.4.029v.057c-.143 0-.285 0-.4-.029v-.057zm.4.086v-.029.029zm0-.056h.057v.057h-.057v-.057zm.057.056v-.029.029zm0-.056h.087v.057h-.087v-.057zm.086.056v-.029.029zm0-.056h.057v.057h-.057v-.057zm.057.056v-.029.029zm0-.056l.085-.029v.057l-.085.029v-.057zm.115.027h-.029v-.029h.029v.029zm-.057-.912h.057v.885h-.057v-.885zm0-.059h.057v.057h-.057v-.057zm0 0h.027-.027zm0 0c0-.027 0-.057-.029-.057l.086-.029v.086h-.057zm-.029-.056h.057-.057zm0 0v-.057h.057l.029.027-.086.03zm0-.057h.029-.029zm0 0h-.028l.058-.059s.027.029.027.059h-.057zm-.029 0l.028-.029-.028.029zm0 0c0-.029 0-.029-.028-.029l.057-.057.029.027-.058.059zm-.028-.029h-.029l.029-.086c0 .029.028.029.057.029l-.057.057zm0-.086v.057-.057zm-.029.086c0-.029-.028-.029-.028-.029v-.057h.058l-.03.086zm-.028-.03v-.027.027zm0 0h-.058v-.057h.058v.057zm-.058-.056v.029-.029zm0 .056h-.057v-.057h.057v.057zm-.057 0v-.027.027zm0 0h-.057v-.057h.057v.057zm-.057 0h-.029v-.029h.029v.029zm-.029-.027v-.143h.057l.029.143h-.086zm0-.172h.029v.029h-.029v-.029zm.029 0l.286-.027.029.057-.315.027v-.057zm.286-.027v.027-.027zm0 0h.257v.057h-.228l-.029-.057zm.257 0v.027-.027zm0 0h.171v.057h-.171v-.057zm.171 0v.027-.027zm0 0h.086v.057h-.086v-.057zm.085 0v.027-.027zm0 0c.059 0 .086 0 .086.027l-.027.029h-.059v-.056zm.086.027c.029 0 .057.029.057.086h-.084v-.057l.027-.029zm.057 1.399h-.086v-1.313h.086v1.313zm1.943-.313v.086c0 .027.029.057.029.057.027.027.027.027.057.027h.914c.113 0 .2-.027.257-.057.086-.027.144-.086.2-.172s.113-.199.171-.342l.144.029v.113c-.028.029-.028.113-.028.172-.029.086-.058.143-.058.229-.028.084-.028.141-.058.199a.156.156 0 0 1-.142.086h-1.972c-.027 0-.057 0-.057-.029 0 0-.027-.027-.027-.057V23.49c0-.086 0-.172-.058-.199-.058-.029-.115-.029-.172-.029h-.144v-.172c.029 0 .086 0 .172-.027.086 0 .172 0 .258-.029.084 0 .171 0 .257-.027h1.742c.027 0 .057 0 .057.027 0 .029 0 .057.027.113v.544c.029.029.029.059.029.059l-.172.027c-.027-.143-.057-.229-.085-.314-.057-.084-.086-.113-.143-.17-.058-.029-.114-.059-.2-.059h-.944c-.027 0-.027 0-.027.029-.029 0-.029 0-.029.029v1.198c.171-.027.314-.027.457-.027s.257-.029.371-.029h.343c.058 0 .086.029.086.086v.115c0 .027 0 .057-.028.113l-1.229-.057v1.141z"/><path d="M81.409 25.889h-.057v-.057h.057v.057zm-.057 0h.028-.028zm.057.029h-.057v-.029h.057v.029zm-.057 0h.028-.028zm.057 0l.029.027-.086.029v-.057h.057zm-.057.057l.057-.029-.057.029zm.086-.03v.029l-.058.027s0-.027-.028-.027l.086-.029zm0 .03h-.029.029zm0 0h.028l-.028.057c-.029 0-.029-.029-.058-.029l.058-.028zm.028 0l-.028.027.028-.027zm0 0h.028l-.028.057h-.028l.028-.057zm0 .056v-.029.029zm.029-.056h.028v.057h-.057l.029-.057zm.028.056v-.029.029zm0-.056h.086v.084l-.086-.027v-.057zm.086.084v-.057.057zm0-.084h.4v.086h-.4v-.086zm.4.084v-.057.057zm0-.084h.199v.057l-.199.027v-.084zm.199.056v-.029.029zm0-.056h.172v.057h-.172v-.057zm.172 0c.058 0 .086 0 .143-.029v.057c-.028.029-.085.029-.143.029v-.057zm.143-.03c.029 0 .086-.027.115-.027l.027.057c-.027 0-.086.027-.143.027v-.057zm.115-.027v.027-.027zm0 0c.027-.029.057-.029.084-.059l.058.029c-.058.029-.085.057-.114.086l-.028-.056zm.084-.059h.029-.029zm0 0a.381.381 0 0 0 .087-.113l.057.027c-.028.059-.057.086-.086.115l-.058-.029zm.087-.113l.028.027-.028-.027zm0 0a.678.678 0 0 0 .086-.143l.057.027a.583.583 0 0 1-.086.143l-.057-.027zm.086-.142c.028-.057.057-.115.085-.201l.059.029c-.029.086-.059.143-.087.199l-.057-.027zm.085-.202h.029v.029l-.029-.029zm.029 0l.143.029v.057l-.143-.027v-.059zm.143.03h.029v.029h-.029v-.029zm.027.056h-.057v-.029h.057v.029zm0 0h-.027.027zm0 0v.086l-.057-.027v-.059h.057zm0 .086h-.027.027zm0 0l-.027.086-.057-.029.027-.084.057.027zm-.027.086h-.029.029zm0 0v.086h-.086l.029-.115.057.029zm0 .086h-.029.029zm0 0l-.029.113h-.057v-.113h.086zm-.029.113h-.027.027zm0 0l-.027.115h-.057l.027-.115h.057zm-.028.116c0 .057-.029.084-.029.113l-.057-.029c0-.027 0-.057.029-.084h.057zm-.029.113c0 .027-.027.057-.027.086h-.059c0-.029 0-.059.029-.115l.057.029zm-.027.086h-.029.029zm0 0c-.029.057-.029.086-.059.086l-.057-.029c.028-.027.028-.057.057-.057h.059zm-.059.086l-.028-.029.028.029zm0 0c-.028.029-.085.029-.114.029v-.059h.058l.056.03zm-.114.029v-.029.029zm0 0h-.286v-.059h.286v.059zm-.286 0h-.343v-.059h.343v.059zm-.342 0h-.4v-.059h.4v.059zm-.401-.059v.029-.029zm0 .059h-.429v-.059h.429v.059zm-.428 0h-.514v-.059h.514v.059zm-.514 0h-.058l.028-.059h.029v.059zm-.058 0l.028-.029-.028.029zm0 0c0-.029-.028-.029-.028-.029l.057-.029-.029.058zm.029-.059h-.028.028zm-.057.03c0-.029 0-.029-.028-.029l.085-.027v.027l-.057.029zm-.028-.03l.057-.027-.057.027zm0 0v-.057h.085v.029l-.085.028zm0-2.74h.086v2.684h-.086V23.49zm0 0v-.113l.057-.029c0 .057.028.086.028.143h-.085zm0-.113h.028-.028zm0 0l-.057-.059.057-.057c.028.029.028.057.057.086l-.057.03zm0-.115l-.029.029.029-.029zm-.057.056s-.029-.027-.059-.027l.029-.059c.029 0 .057.029.086.029l-.056.057zm-.029-.086l-.029.029.029-.029zm-.029.059h-.084v-.059h.113l-.029.059zm-.084 0h-.115l-.028-.059h.144v.059zm-.116 0h-.058v-.029h.029l.029.029zm-.057-.029v-.143l.058-.029.028.172h-.086zm0-.143v-.029l.029-.027v.027l-.029.029zm.029-.056h.057l.029.057-.086.027v-.084zm.057 0l.029.027-.029-.027zm0 0l.114-.029v.086h-.085l-.029-.057zm.114-.03v.029-.029zm0 0l.257-.027v.057l-.257.057v-.087zm.257-.027v.027-.027zm0 0h.115l.028.057h-.144v-.057zm.115 0l.028.027-.028-.027zm0 0l.142-.029v.057l-.113.029-.029-.057zm.142-.029v.029-.029zm0 0h.114v.057h-.114v-.057zm.115 0v.029-.029zm0 0h.086v.057h-.086v-.057zm.085 0h1.086v.057h-1.086v-.057zm1.086 0h.229v.057h-.229v-.057zm.229.056v-.027.027zm0-.056h.229v.057h-.229v-.057zm.228 0v.029-.029zm0 0h.058l-.028.057h-.029v-.057zm.057 0v.029-.029zm0 0c.028.029.028.029.028.057h-.057l.029-.057zm.029.056h-.028.028zm0 0l.028.113h-.085v-.113h.057zm.028.113v.059h-.057l-.028-.059h.085zm0 .059h-.028.028zm0 .086h-.057v-.086h.057v.086zm-.057 0h.028-.028zm.057.143h-.057v-.143h.057v.143zm0 .142h-.057v-.143h.057v.143zm0 0h-.028.028zm0 0l.029.113h-.086v-.113h.057zm.029.113h-.058.058zm0 .059h-.086v-.059h.086v.059zm0 .027h-.029v-.029h.029v.029zm-.029 0l-.171.029v-.057l.143-.029.028.057zm-.171.03h-.029v-.029h.029v.029zm-.029-.03a.4.4 0 0 0-.058-.172l.087-.027c0 .057.028.113.028.199h-.057zm-.058-.171c0-.057-.027-.084-.027-.143h.057a.21.21 0 0 0 .058.115l-.088.028zm-.027-.143c-.029-.027-.057-.057-.057-.084l.027-.029c.029.029.057.057.086.113h-.056zm-.057-.084c-.029 0-.059-.029-.086-.059l.057-.057c.029.029.057.057.057.086l-.028.03zm-.029-.115l-.029.029.029-.029zm-.057.056c-.029 0-.058-.027-.086-.027l.028-.059c.028 0 .085.029.114.029l-.056.057zm-.057-.086v.029-.029zm-.029.059c-.028 0-.058-.029-.086-.029v-.057c.028 0 .086.027.114.027l-.028.059zm-.086-.086v.027-.027zm0 .057h-.144v-.057h.144v.057zm-.142-.057v.027-.027zm0 .057h-.199v-.057h.199v.057zm-.199-.057v.027-.027zm0 .057h-.515v-.057h.515v.057zm-.516-.057v.027-.027zm0 .057h-.057v-.057h.057v.057zm-.057-.057v.027-.027zm0 .057h-.029v-.057h.029v.057zm-.028-.057v.027-.027zm0 .057l-.029-.057h.029v.057zm0 0l-.029-.029.029.029zm0 0h-.029l-.028-.029s0-.027.028-.027l.029.056zm-.029 0h-.057c0-.029.028-.029.028-.029l.029.029zm-.057 0h.028-.028zm.057.029h-.057v-.029h.057v.029zm-.057 0h.028-.028zm.057 0v.027l-.057-.027h.057zm-.057.027v-.027l.028.027h-.028zm.057.03h-.057v-.029h.057v.029zm-.057 0h.028-.028zm.057 1.14h-.057v-1.141h.057v1.141zm-.029.03h-.028v-.029h.028v.029zm0-.057l.457-.029v.057l-.457.029v-.057zm.457.027v-.027.027zm0-.056l.342-.027.029.057-.371.027v-.057zm.342-.028h.259v.057h-.229l-.03-.057zm.259 0v.027-.027zm0 0h.114v.057h-.114v-.057zm.114 0v.027-.027zm0 0c.027 0 .057 0 .086.027l-.059.029h-.027v-.056zm.086.028c.027 0 .027.029.027.086h-.057c0-.029 0-.057-.029-.057l.059-.029zm.028.086v.115l-.057-.029v-.086h.057zm0 .115h-.027.027zm0 0l-.027.113h-.059l.029-.143.057.03zm-.028.142h-.029v-.029h.029v.029zm-.029 0l-1.229-.029v-.086l1.229.059v.056zm-1.257-.115h.028v.029h-.028v-.029zm.057 1.172h-.057v-1.143h.057v1.143zm-.057 0h.028-.028zM6.218 19.578l91.075.258v.428l-91.075-.285"/></g></svg>